{
.appVersion = "1342";
classes = (
{
automatic = 1;

glyphs = (
{
glyphname = A;
lastChange = "2020-08-11 15:55:37 +0000";
layers = (
{
anchors = (
{
name = bottom;
position = "{317, 0}";
},
{
name = ogonek;
position = "{551, 0}";
},
{
name = top;
position = "{317, 700}";
}
);
background = {
anchors = (
{
name = bottom;
position = "{317, 0}";
},
{
name = ogonek;
position = "{551, 0}";
},
{
name = top;
position = "{317, 700}";
}
);
paths = (
{
closed = 1;
nodes = (
"154 0 LINE",
"192 154 LINE",
"442 154 LINE",
"480 0 LINE",
"616 0 LINE",
"432 700 LINE",
"202 700 LINE",
"18 0 LINE"
);
},
{
closed = 1;
nodes = (
"308 617 LINE",
"326 617 LINE",
"411 276 LINE",
"223 276 LINE"
);
}
);
};
layerId = "5117E3E8-E17C-4812-BAF5-9E7064564A59";
paths = (
{
closed = 1;
nodes = (
"154 0 LINE",
"192 154 LINE",
"442 154 LINE",
"480 0 LINE",
"616 0 LINE",
"432 700 LINE",
"202 700 LINE",
"18 0 LINE"
);
},
{
closed = 1;
nodes = (
"308 617 LINE",
"326 617 LINE",
"411 276 LINE",
"223 276 LINE"
);
}
);
width = 634;
},
{
anchors = (
{
name = bottom;
position = "{314, 0}";
},
{
name = ogonek;
position = "{567, 0}";
},
{
name = top;
position = "{314, 700}";
}
);
background = {
anchors = (
{
name = bottom;
position = "{314, 0}";
},
{
name = ogonek;
position = "{567, 0}";
},
{
name = top;
position = "{314, 700}";
}
);
paths = (
{
closed = 1;
nodes = (
"95 0 LINE",
"155 186 LINE",
"473 186 LINE",
"533 0 LINE",
"600 0 LINE",
"371 700 LINE",
"257 700 LINE",
"28 0 LINE"
);
},
{
closed = 1;
nodes = (
"308 662 LINE",
"320 662 LINE",
"455 244 LINE",
"173 244 LINE"
);
}
);
};
layerId = "CEFBB1E5-951F-4065-926E-8B9137F837F5";
paths = (
{
closed = 1;
nodes = (
"95 0 LINE",
"155 186 LINE",
"473 186 LINE",
"533 0 LINE",
"600 0 LINE",
"371 700 LINE",
"257 700 LINE",
"28 0 LINE"
);
},
{
closed = 1;
nodes = (
"308 662 LINE",
"320 662 LINE",
"455 244 LINE",
"173 244 LINE"
);
}
);
width = 628;
}
);
leftKerningGroup = A;
note = A;
rightKerningGroup = A;
unicode = 0041;
},
{
glyphname = B;
lastChange = "2020-08-10 18:51:13 +0000";
layers = (
{
anchors = (
{
name = stroke;
position = "{138, 350}";
}
);
background = {
anchors = (
{
name = stroke;
position = "{138, 350}";
}
);
paths = (
{
closed = 1;
nodes = (
"410 0 LINE SMOOTH",
"535 0 OFFCURVE",
"622 68 OFFCURVE",
"622 185 CURVE SMOOTH",
"622 195 LINE SMOOTH",
"622 295 OFFCURVE",
"555 334 OFFCURVE",
"511 346 CURVE",
"511 364 LINE",
"554 377 OFFCURVE",
"618 416 OFFCURVE",
"618 513 CURVE SMOOTH",
"618 523 LINE SMOOTH",
"618 632 OFFCURVE",
"534 700 OFFCURVE",
"406 700 CURVE SMOOTH",
"46 700 LINE",
"46 584 LINE",
"138 584 LINE",
"138 116 LINE",
"46 116 LINE",
"46 0 LINE"
);
},
{
closed = 1;
nodes = (
"270 292 LINE",
"394 292 LINE SMOOTH",
"452 292 OFFCURVE",
"490 263 OFFCURVE",
"490 211 CURVE SMOOTH",
"490 201 LINE SMOOTH",
"490 149 OFFCURVE",
"451 120 OFFCURVE",
"394 120 CURVE SMOOTH",
"270 120 LINE"
);
},
{
closed = 1;
nodes = (
"270 580 LINE",
"392 580 LINE SMOOTH",
"448 580 OFFCURVE",
"486 551 OFFCURVE",
"486 501 CURVE SMOOTH",
"486 491 LINE SMOOTH",
"486 441 OFFCURVE",
"447 412 OFFCURVE",
"392 412 CURVE SMOOTH",
"270 412 LINE"
);
}
);
};
layerId = "5117E3E8-E17C-4812-BAF5-9E7064564A59";
paths = (
{
closed = 1;
nodes = (
"410 0 LINE SMOOTH",
"535 0 OFFCURVE",
"622 68 OFFCURVE",
"622 185 CURVE SMOOTH",
"622 195 LINE SMOOTH",
"622 295 OFFCURVE",
"555 334 OFFCURVE",
"511 346 CURVE",
"511 364 LINE",
"554 377 OFFCURVE",
"618 416 OFFCURVE",
"618 513 CURVE SMOOTH",
"618 523 LINE SMOOTH",
"618 632 OFFCURVE",
"534 700 OFFCURVE",
"406 700 CURVE SMOOTH",
"46 700 LINE",
"46 584 LINE",
"138 584 LINE",
"138 116 LINE",
"46 116 LINE",
"46 0 LINE"
);
},
{
closed = 1;
nodes = (
"270 292 LINE",
"394 292 LINE SMOOTH",
"452 292 OFFCURVE",
"490 263 OFFCURVE",
"490 211 CURVE SMOOTH",
"490 201 LINE SMOOTH",
"490 149 OFFCURVE",
"451 120 OFFCURVE",
"394 120 CURVE SMOOTH",
"270 120 LINE"
);
},
{
closed = 1;
nodes = (
"270 580 LINE",
"392 580 LINE SMOOTH",
"448 580 OFFCURVE",
"486 551 OFFCURVE",
"486 501 CURVE SMOOTH",
"486 491 LINE SMOOTH",
"486 441 OFFCURVE",
"447 412 OFFCURVE",
"392 412 CURVE SMOOTH",
"270 412 LINE"
);
}
);
width = 664;
},
{
anchors = (
{
name = stroke;
position = "{148, 330}";
}
);
background = {
anchors = (
{
name = stroke;
position = "{148, 330}";
}
);
paths = (
{
closed = 1;
nodes = (
"392 0 LINE SMOOTH",
"511 0 OFFCURVE",
"602 68 OFFCURVE",
"602 182 CURVE SMOOTH",
"602 192 LINE SMOOTH",
"602 290 OFFCURVE",
"536 335 OFFCURVE",
"484 348 CURVE",
"484 360 LINE",
"535 375 OFFCURVE",
"602 419 OFFCURVE",
"602 517 CURVE SMOOTH",
"602 525 LINE SMOOTH",
"602 629 OFFCURVE",
"515 700 OFFCURVE",
"395 700 CURVE SMOOTH",
"48 700 LINE",
"48 642 LINE",
"148 642 LINE",
"148 58 LINE",
"48 58 LINE",
"48 0 LINE"
);
},
{
closed = 1;
nodes = (
"212 324 LINE",
"386 324 LINE SMOOTH",
"486 324 OFFCURVE",
"538 274 OFFCURVE",
"538 195 CURVE SMOOTH",
"538 187 LINE SMOOTH",
"538 108 OFFCURVE",
"486 58 OFFCURVE",
"386 58 CURVE SMOOTH",
"212 58 LINE"
);
},
{
closed = 1;
nodes = (
"212 642 LINE",
"390 642 LINE SMOOTH",
"482 642 OFFCURVE",
"538 592 OFFCURVE",
"538 517 CURVE SMOOTH",
"538 507 LINE SMOOTH",
"538 432 OFFCURVE",
"482 382 OFFCURVE",
"390 382 CURVE SMOOTH",
"212 382 LINE"
);
}
);
};
layerId = "CEFBB1E5-951F-4065-926E-8B9137F837F5";
paths = (
{
closed = 1;
nodes = (
"392 0 LINE SMOOTH",
"511 0 OFFCURVE",
"602 68 OFFCURVE",
"602 182 CURVE SMOOTH",
"602 192 LINE SMOOTH",
"602 290 OFFCURVE",
"536 335 OFFCURVE",
"484 348 CURVE",
"484 360 LINE",
"535 375 OFFCURVE",
"602 419 OFFCURVE",
"602 517 CURVE SMOOTH",
"602 525 LINE SMOOTH",
"602 629 OFFCURVE",
"515 700 OFFCURVE",
"395 700 CURVE SMOOTH",
"48 700 LINE",
"48 642 LINE",
"148 642 LINE",
"148 58 LINE",
"48 58 LINE",
"48 0 LINE"
);
},
{
closed = 1;
nodes = (
"212 324 LINE",
"386 324 LINE SMOOTH",
"486 324 OFFCURVE",
"538 274 OFFCURVE",
"538 195 CURVE SMOOTH",
"538 187 LINE SMOOTH",
"538 108 OFFCURVE",
"486 58 OFFCURVE",
"386 58 CURVE SMOOTH",
"212 58 LINE"
);
},
{
closed = 1;
nodes = (
"212 642 LINE",
"390 642 LINE SMOOTH",
"482 642 OFFCURVE",
"538 592 OFFCURVE",
"538 517 CURVE SMOOTH",
"538 507 LINE SMOOTH",
"538 432 OFFCURVE",
"482 382 OFFCURVE",
"390 382 CURVE SMOOTH",
"212 382 LINE"
);
}
);
width = 660;
}
);
leftKerningGroup = Serif;
leftMetricsKey = I.ss05;
note = B.alt;
rightKerningGroup = B;
unicode = 0042;
},
{
glyphname = C;
lastChange = "2020-08-10 18:52:34 +0000";
layers = (
{
anchors = (
{
name = bottom;
position = "{332, 0}";
},
{
name = top;
position = "{332, 700}";
}
);
background = {
anchors = (
{
name = bottom;
position = "{332, 0}";
},
{
name = top;
position = "{332, 700}";
}
);
paths = (
{
closed = 1;
nodes = (
"504 -14 OFFCURVE",
"602 86 OFFCURVE",
"602 250 CURVE SMOOTH",
"602 264 LINE",
"472 264 LINE",
"472 246 LINE SMOOTH",
"472 164 OFFCURVE",
"426 104 OFFCURVE",
"332 104 CURVE SMOOTH",
"238 104 OFFCURVE",
"182 166 OFFCURVE",
"182 264 CURVE SMOOTH",
"182 436 LINE SMOOTH",
"182 534 OFFCURVE",
"238 596 OFFCURVE",
"332 596 CURVE SMOOTH",
"426 596 OFFCURVE",
"472 536 OFFCURVE",
"472 454 CURVE SMOOTH",
"472 444 LINE",
"602 444 LINE",
"602 450 LINE SMOOTH",
"602 614 OFFCURVE",
"504 714 OFFCURVE",
"332 714 CURVE SMOOTH",
"158 714 OFFCURVE",
"50 614 OFFCURVE",
"50 434 CURVE SMOOTH",
"50 266 LINE SMOOTH",
"50 86 OFFCURVE",
"158 -14 OFFCURVE",
"332 -14 CURVE SMOOTH"
);
}
);
};
layerId = "5117E3E8-E17C-4812-BAF5-9E7064564A59";
paths = (
{
closed = 1;
nodes = (
"504 -14 OFFCURVE",
"602 86 OFFCURVE",
"602 250 CURVE SMOOTH",
"602 264 LINE",
"472 264 LINE",
"472 246 LINE SMOOTH",
"472 164 OFFCURVE",
"426 104 OFFCURVE",
"332 104 CURVE SMOOTH",
"238 104 OFFCURVE",
"182 166 OFFCURVE",
"182 264 CURVE SMOOTH",
"182 436 LINE SMOOTH",
"182 534 OFFCURVE",
"238 596 OFFCURVE",
"332 596 CURVE SMOOTH",
"426 596 OFFCURVE",
"472 536 OFFCURVE",
"472 454 CURVE SMOOTH",
"472 444 LINE",
"602 444 LINE",
"602 450 LINE SMOOTH",
"602 614 OFFCURVE",
"504 714 OFFCURVE",
"332 714 CURVE SMOOTH",
"158 714 OFFCURVE",
"50 614 OFFCURVE",
"50 434 CURVE SMOOTH",
"50 266 LINE SMOOTH",
"50 86 OFFCURVE",
"158 -14 OFFCURVE",
"332 -14 CURVE SMOOTH"
);
}
);
width = 644;
},
{
anchors = (
{
name = bottom;
position = "{331, 0}";
},
{
name = top;
position = "{334, 700}";
}
);
background = {
anchors = (
{
name = bottom;
position = "{331, 0}";
},
{
name = top;
position = "{334, 700}";
}
);
paths = (
{
closed = 1;
nodes = (
"496 -14 OFFCURVE",
"585 84 OFFCURVE",
"585 241 CURVE SMOOTH",
"585 254 LINE",
"521 254 LINE",
"521 239 LINE SMOOTH",
"521 124 OFFCURVE",
"462 44 OFFCURVE",
"334 44 CURVE SMOOTH",
"204 44 OFFCURVE",
"128 126 OFFCURVE",
"128 269 CURVE SMOOTH",
"128 431 LINE SMOOTH",
"128 574 OFFCURVE",
"204 656 OFFCURVE",
"334 656 CURVE SMOOTH",
"462 656 OFFCURVE",
"521 576 OFFCURVE",
"521 461 CURVE SMOOTH",
"521 454 LINE",
"585 454 LINE",
"585 459 LINE SMOOTH",
"585 616 OFFCURVE",
"496 714 OFFCURVE",
"334 714 CURVE SMOOTH",
"170 714 OFFCURVE",
"64 616 OFFCURVE",
"64 429 CURVE SMOOTH",
"64 271 LINE SMOOTH",
"64 84 OFFCURVE",
"170 -14 OFFCURVE",
"334 -14 CURVE SMOOTH"
);
}
);
};
layerId = "CEFBB1E5-951F-4065-926E-8B9137F837F5";
paths = (
{
closed = 1;
nodes = (
"496 -14 OFFCURVE",
"585 84 OFFCURVE",
"585 241 CURVE SMOOTH",
"585 254 LINE",
"521 254 LINE",
"521 239 LINE SMOOTH",
"521 124 OFFCURVE",
"462 44 OFFCURVE",
"334 44 CURVE SMOOTH",
"204 44 OFFCURVE",
"128 126 OFFCURVE",
"128 269 CURVE SMOOTH",
"128 431 LINE SMOOTH",
"128 574 OFFCURVE",
"204 656 OFFCURVE",
"334 656 CURVE SMOOTH",
"462 656 OFFCURVE",
"521 576 OFFCURVE",
"521 461 CURVE SMOOTH",
"521 454 LINE",
"585 454 LINE",
"585 459 LINE SMOOTH",
"585 616 OFFCURVE",
"496 714 OFFCURVE",
"334 714 CURVE SMOOTH",
"170 714 OFFCURVE",
"64 616 OFFCURVE",
"64 429 CURVE SMOOTH",
"64 271 LINE SMOOTH",
"64 84 OFFCURVE",
"170 -14 OFFCURVE",
"334 -14 CURVE SMOOTH"
);
}
);
width = 641;
}
);
leftKerningGroup = O;
leftMetricsKey = O;
note = C;
rightKerningGroup = C;
rightMetricsKey = "=O-8";
unicode = 0043;
},
{
glyphname = D;
lastChange = "2020-08-10 18:12:01 +0000";
layers = (
{
anchors = (
{
name = bottom;
position = "{320, 0}";
},
{
name = stroke;
position = "{138, 496}";
},
{
name = top;
position = "{320, 700}";
}
);
background = {
anchors = (
{
name = bottom;
position = "{320, 0}";
},
{
name = stroke;
position = "{138, 496}";
},
{
name = top;
position = "{320, 700}";
}
);
paths = (
{
closed = 1;
nodes = (
"334 0 LINE SMOOTH",
"522 0 OFFCURVE",
"622 96 OFFCURVE",
"622 284 CURVE SMOOTH",
"622 416 LINE SMOOTH",
"622 604 OFFCURVE",
"522 700 OFFCURVE",
"334 700 CURVE SMOOTH",
"46 700 LINE",
"46 584 LINE",
"138 584 LINE",
"138 116 LINE",
"46 116 LINE",
"46 0 LINE"
);
},
{
closed = 1;
nodes = (
"270 580 LINE",
"336 580 LINE SMOOTH",
"442 580 OFFCURVE",
"490 522 OFFCURVE",
"490 420 CURVE SMOOTH",
"490 280 LINE SMOOTH",
"490 178 OFFCURVE",
"442 120 OFFCURVE",
"336 120 CURVE SMOOTH",
"270 120 LINE"
);
}
);
};
layerId = "5117E3E8-E17C-4812-BAF5-9E7064564A59";
paths = (
{
closed = 1;
nodes = (
"334 0 LINE SMOOTH",
"522 0 OFFCURVE",
"622 96 OFFCURVE",
"622 284 CURVE SMOOTH",
"622 416 LINE SMOOTH",
"622 604 OFFCURVE",
"522 700 OFFCURVE",
"334 700 CURVE SMOOTH",
"46 700 LINE",
"46 584 LINE",
"138 584 LINE",
"138 116 LINE",
"46 116 LINE",
"46 0 LINE"
);
},
{
closed = 1;
nodes = (
"270 580 LINE",
"336 580 LINE SMOOTH",
"442 580 OFFCURVE",
"490 522 OFFCURVE",
"490 420 CURVE SMOOTH",
"490 280 LINE SMOOTH",
"490 178 OFFCURVE",
"442 120 OFFCURVE",
"336 120 CURVE SMOOTH",
"270 120 LINE"
);
}
);
width = 666;
},
{
anchors = (
{
name = bottom;
position = "{317, 0}";
},
{
name = stroke;
position = "{148, 486}";
},
{
name = top;
position = "{317, 700}";
}
);
background = {
anchors = (
{
name = bottom;
position = "{317, 0}";
},
{
name = stroke;
position = "{148, 486}";
},
{
name = top;
position = "{317, 700}";
}
);
paths = (
{
closed = 1;
nodes = (
"314 0 LINE SMOOTH",
"496 0 OFFCURVE",
"604 89 OFFCURVE",
"604 285 CURVE SMOOTH",
"604 414 LINE SMOOTH",
"604 610 OFFCURVE",
"496 700 OFFCURVE",
"314 700 CURVE SMOOTH",
"48 700 LINE",
"48 642 LINE",
"148 642 LINE",
"148 58 LINE",
"48 58 LINE",
"48 0 LINE"
);
},
{
closed = 1;
nodes = (
"212 641 LINE",
"314 641 LINE SMOOTH",
"460 641 OFFCURVE",
"540 575 OFFCURVE",
"540 417 CURVE SMOOTH",
"540 282 LINE SMOOTH",
"540 124 OFFCURVE",
"460 58 OFFCURVE",
"314 58 CURVE SMOOTH",
"212 58 LINE"
);
}
);
};
layerId = "CEFBB1E5-951F-4065-926E-8B9137F837F5";
paths = (
{
closed = 1;
nodes = (
"314 0 LINE SMOOTH",
"496 0 OFFCURVE",
"604 89 OFFCURVE",
"604 285 CURVE SMOOTH",
"604 414 LINE SMOOTH",
"604 610 OFFCURVE",
"496 700 OFFCURVE",
"314 700 CURVE SMOOTH",
"48 700 LINE",
"48 642 LINE",
"148 642 LINE",
"148 58 LINE",
"48 58 LINE",
"48 0 LINE"
);
},
{
closed = 1;
nodes = (
"212 641 LINE",
"314 641 LINE SMOOTH",
"460 641 OFFCURVE",
"540 575 OFFCURVE",
"540 417 CURVE SMOOTH",
"540 282 LINE SMOOTH",
"540 124 OFFCURVE",
"460 58 OFFCURVE",
"314 58 CURVE SMOOTH",
"212 58 LINE"
);
}
);
width = 662;
}
);
leftKerningGroup = Serif;
leftMetricsKey = I.ss05;
note = D.alt;
rightKerningGroup = O;
rightMetricsKey = "=O-6";
unicode = 0044;
},
{
glyphname = E;
lastChange = "2020-08-10 18:53:30 +0000";
layers = (
{
anchors = (
{
name = bottom;
position = "{294, 0}";
},
{
name = ogonek;
position = "{426, 0}";
},
{
name = top;
position = "{296, 700}";
}
);
background = {
anchors = (
{
name = bottom;
position = "{294, 0}";
},
{
name = ogonek;
position = "{426, 0}";
},
{
name = top;
position = "{296, 700}";
}
);
paths = (
{
closed = 1;
nodes = (
"522 0 LINE",
"522 120 LINE",
"198 120 LINE",
"198 293 LINE",
"488 293 LINE",
"488 413 LINE",
"198 413 LINE",
"198 580 LINE",
"516 580 LINE",
"516 700 LINE",
"66 700 LINE",
"66 0 LINE"
);
}
);
};
layerId = "5117E3E8-E17C-4812-BAF5-9E7064564A59";
paths = (
{
closed = 1;
nodes = (
"522 0 LINE",
"522 120 LINE",
"198 120 LINE",
"198 293 LINE",
"488 293 LINE",
"488 413 LINE",
"198 413 LINE",
"198 580 LINE",
"516 580 LINE",
"516 700 LINE",
"66 700 LINE",
"66 0 LINE"
);
}
);
width = 554;
},
{
anchors = (
{
name = bottom;
position = "{299, 0}";
},
{
name = ogonek;
position = "{439, 0}";
},
{
name = top;
position = "{304, 700}";
}
);
background = {
anchors = (
{
name = bottom;
position = "{299, 0}";
},
{
name = ogonek;
position = "{439, 0}";
},
{
name = top;
position = "{304, 700}";
}
);
paths = (
{
closed = 1;
nodes = (
"513 0 LINE",
"513 58 LINE",
"150 58 LINE",
"150 322 LINE",
"481 322 LINE",
"481 380 LINE",
"150 380 LINE",
"150 642 LINE",
"509 642 LINE",
"509 700 LINE",
"86 700 LINE",
"86 0 LINE"
);
}
);
};
layerId = "CEFBB1E5-951F-4065-926E-8B9137F837F5";
paths = (
{
closed = 1;
nodes = (
"513 0 LINE",
"513 58 LINE",
"150 58 LINE",
"150 322 LINE",
"481 322 LINE",
"481 380 LINE",
"150 380 LINE",
"150 642 LINE",
"509 642 LINE",
"509 700 LINE",
"86 700 LINE",
"86 0 LINE"
);
}
);
width = 567;
}
);
leftKerningGroup = H;
leftMetricsKey = I;
note = E;
rightKerningGroup = E;
unicode = 0045;
},
{
glyphname = F;
lastChange = "2020-08-10 18:54:47 +0000";
layers = (
{
background = {
paths = (
{
closed = 1;
nodes = (
"198 0 LINE",
"198 291 LINE",
"482 291 LINE",
"482 411 LINE",
"198 411 LINE",
"198 580 LINE",
"506 580 LINE",
"506 700 LINE",
"66 700 LINE",
"66 0 LINE"
);
}
);
};
layerId = "5117E3E8-E17C-4812-BAF5-9E7064564A59";
paths = (
{
closed = 1;
nodes = (
"198 0 LINE",
"198 291 LINE",
"482 291 LINE",
"482 411 LINE",
"198 411 LINE",
"198 580 LINE",
"506 580 LINE",
"506 700 LINE",
"66 700 LINE",
"66 0 LINE"
);
}
);
width = 534;
},
{
background = {
paths = (
{
closed = 1;
nodes = (
"150 0 LINE",
"150 322 LINE",
"473 322 LINE",
"473 380 LINE",
"150 380 LINE",
"150 642 LINE",
"502 642 LINE",
"502 700 LINE",
"86 700 LINE",
"86 0 LINE"
);
}
);
};
layerId = "CEFBB1E5-951F-4065-926E-8B9137F837F5";
paths = (
{
closed = 1;
nodes = (
"150 0 LINE",
"150 322 LINE",
"473 322 LINE",
"473 380 LINE",
"150 380 LINE",
"150 642 LINE",
"502 642 LINE",
"502 700 LINE",
"86 700 LINE",
"86 0 LINE"
);
}
);
width = 542;
}
);
leftKerningGroup = H;
leftMetricsKey = I;
note = F;
rightKerningGroup = F;
unicode = 0046;
},
{
glyphname = G;
lastChange = "2020-08-10 20:17:15 +0000";
layers = (
{
anchors = (
{
name = bottom;
position = "{336, 0}";
},
{
name = top;
position = "{335, 700}";
}
);
background = {
anchors = (
{
name = bottom;
position = "{336, 0}";
},
{
name = top;
position = "{335, 700}";
}
);
paths = (
{
closed = 1;
nodes = (
"416 -14 OFFCURVE",
"448 33 OFFCURVE",
"462 67 CURVE",
"480 67 LINE",
"480 0 LINE",
"602 0 LINE",
"602 358 LINE",
"306 358 LINE",
"306 246 LINE",
"472 246 LINE",
"472 236 LINE SMOOTH",
"472 158 OFFCURVE",
"430 102 OFFCURVE",
"334 102 CURVE SMOOTH",
"238 102 OFFCURVE",
"182 166 OFFCURVE",
"182 264 CURVE SMOOTH",
"182 436 LINE SMOOTH",
"182 534 OFFCURVE",
"238 596 OFFCURVE",
"332 596 CURVE SMOOTH",
"426 596 OFFCURVE",
"472 538 OFFCURVE",
"472 464 CURVE SMOOTH",
"472 456 LINE",
"602 456 LINE",
"602 460 LINE SMOOTH",
"602 616 OFFCURVE",
"504 714 OFFCURVE",
"332 714 CURVE SMOOTH",
"158 714 OFFCURVE",
"50 614 OFFCURVE",
"50 434 CURVE SMOOTH",
"50 266 LINE SMOOTH",
"50 86 OFFCURVE",
"164 -14 OFFCURVE",
"308 -14 CURVE SMOOTH"
);
}
);
};
layerId = "5117E3E8-E17C-4812-BAF5-9E7064564A59";
paths = (
{
closed = 1;
nodes = (
"416 -14 OFFCURVE",
"448 33 OFFCURVE",
"462 67 CURVE",
"480 67 LINE",
"480 0 LINE",
"602 0 LINE",
"602 358 LINE",
"306 358 LINE",
"306 246 LINE",
"472 246 LINE",
"472 236 LINE SMOOTH",
"472 158 OFFCURVE",
"430 102 OFFCURVE",
"334 102 CURVE SMOOTH",
"238 102 OFFCURVE",
"182 166 OFFCURVE",
"182 264 CURVE SMOOTH",
"182 436 LINE SMOOTH",
"182 534 OFFCURVE",
"238 596 OFFCURVE",
"332 596 CURVE SMOOTH",
"426 596 OFFCURVE",
"472 538 OFFCURVE",
"472 464 CURVE SMOOTH",
"472 456 LINE",
"602 456 LINE",
"602 460 LINE SMOOTH",
"602 616 OFFCURVE",
"504 714 OFFCURVE",
"332 714 CURVE SMOOTH",
"158 714 OFFCURVE",
"50 614 OFFCURVE",
"50 434 CURVE SMOOTH",
"50 266 LINE SMOOTH",
"50 86 OFFCURVE",
"164 -14 OFFCURVE",
"308 -14 CURVE SMOOTH"
);
}
);
width = 662;
},
{
anchors = (
{
name = bottom;
position = "{337, 0}";
},
{
name = top;
position = "{335, 700}";
}
);
background = {
anchors = (
{
name = bottom;
position = "{337, 0}";
},
{
name = top;
position = "{335, 700}";
}
);
paths = (
{
closed = 1;
nodes = (
"438 -14 OFFCURVE",
"487 30 OFFCURVE",
"511 79 CURVE",
"523 79 LINE",
"523 0 LINE",
"581 0 LINE",
"581 323 LINE",
"288 323 LINE",
"288 267 LINE",
"519 267 LINE",
"519 247 LINE SMOOTH",
"519 123 OFFCURVE",
"460 44 OFFCURVE",
"334 44 CURVE SMOOTH",
"204 44 OFFCURVE",
"128 126 OFFCURVE",
"128 269 CURVE SMOOTH",
"128 431 LINE SMOOTH",
"128 574 OFFCURVE",
"204 656 OFFCURVE",
"334 656 CURVE SMOOTH",
"462 656 OFFCURVE",
"517 576 OFFCURVE",
"517 467 CURVE SMOOTH",
"517 460 LINE",
"581 460 LINE",
"581 465 LINE SMOOTH",
"581 616 OFFCURVE",
"496 714 OFFCURVE",
"334 714 CURVE SMOOTH",
"170 714 OFFCURVE",
"64 616 OFFCURVE",
"64 429 CURVE SMOOTH",
"64 271 LINE SMOOTH",
"64 84 OFFCURVE",
"170 -14 OFFCURVE",
"330 -14 CURVE SMOOTH"
);
}
);
};
layerId = "CEFBB1E5-951F-4065-926E-8B9137F837F5";
paths = (
{
closed = 1;
nodes = (
"438 -14 OFFCURVE",
"487 30 OFFCURVE",
"511 79 CURVE",
"523 79 LINE",
"523 0 LINE",
"581 0 LINE",
"581 323 LINE",
"288 323 LINE",
"288 267 LINE",
"519 267 LINE",
"519 247 LINE SMOOTH",
"519 123 OFFCURVE",
"460 44 OFFCURVE",
"334 44 CURVE SMOOTH",
"204 44 OFFCURVE",
"128 126 OFFCURVE",
"128 269 CURVE SMOOTH",
"128 431 LINE SMOOTH",
"128 574 OFFCURVE",
"204 656 OFFCURVE",
"334 656 CURVE SMOOTH",
"462 656 OFFCURVE",
"517 576 OFFCURVE",
"517 467 CURVE SMOOTH",
"517 460 LINE",
"581 460 LINE",
"581 465 LINE SMOOTH",
"581 616 OFFCURVE",
"496 714 OFFCURVE",
"334 714 CURVE SMOOTH",
"170 714 OFFCURVE",
"64 616 OFFCURVE",
"64 429 CURVE SMOOTH",
"64 271 LINE SMOOTH",
"64 84 OFFCURVE",
"170 -14 OFFCURVE",
"330 -14 CURVE SMOOTH"
);
}
);
width = 659;
}
);
leftKerningGroup = O;
leftMetricsKey = O;
note = G;
rightKerningGroup = G;
unicode = 0047;
},
{
glyphname = H;
lastChange = "2020-08-10 20:16:15 +0000";
layers = (
{
anchors = (
{
name = bottom;
position = "{328, 0}";
},
{
name = stroke;
position = "{328, 496}";
},
{
name = top;
position = "{328, 700}";
}
);
background = {
anchors = (
{
name = bottom;
position = "{328, 0}";
},
{
name = stroke;
position = "{328, 496}";
},
{
name = top;
position = "{328, 700}";
}
);
paths = (
{
closed = 1;
nodes = (
"198 0 LINE",
"198 291 LINE",
"458 291 LINE",
"458 0 LINE",
"590 0 LINE",
"590 700 LINE",
"458 700 LINE",
"458 411 LINE",
"198 411 LINE",
"198 700 LINE",
"66 700 LINE",
"66 0 LINE"
);
}
);
};
layerId = "5117E3E8-E17C-4812-BAF5-9E7064564A59";
paths = (
{
closed = 1;
nodes = (
"198 0 LINE",
"198 291 LINE",
"458 291 LINE",
"458 0 LINE",
"590 0 LINE",
"590 700 LINE",
"458 700 LINE",
"458 411 LINE",
"198 411 LINE",
"198 700 LINE",
"66 700 LINE",
"66 0 LINE"
);
}
);
width = 656;
},
{
anchors = (
{
name = bottom;
position = "{328, 0}";
},
{
name = stroke;
position = "{328, 486}";
},
{
name = top;
position = "{328, 700}";
}
);
background = {
anchors = (
{
name = bottom;
position = "{328, 0}";
},
{
name = stroke;
position = "{328, 486}";
},
{
name = top;
position = "{328, 700}";
}
);
paths = (
{
closed = 1;
nodes = (
"150 0 LINE",
"150 322 LINE",
"506 322 LINE",
"506 0 LINE",
"570 0 LINE",
"570 700 LINE",
"506 700 LINE",
"506 380 LINE",
"150 380 LINE",
"150 700 LINE",
"86 700 LINE",
"86 0 LINE"
);
}
);
};
layerId = "CEFBB1E5-951F-4065-926E-8B9137F837F5";
paths = (
{
closed = 1;
nodes = (
"150 0 LINE",
"150 322 LINE",
"506 322 LINE",
"506 0 LINE",
"570 0 LINE",
"570 700 LINE",
"506 700 LINE",
"506 380 LINE",
"150 380 LINE",
"150 700 LINE",
"86 700 LINE",
"86 0 LINE"
);
}
);
width = 656;
}
);
leftKerningGroup = H;
leftMetricsKey = I;
note = H;
rightKerningGroup = H;
rightMetricsKey = I;
unicode = 0048;
},
{
glyphname = I;
lastChange = "2020-08-10 18:12:01 +0000";
layers = (
{
anchors = (
{
name = bottom;
position = "{132, 0}";
},
{
name = ogonek;
position = "{132, 0}";
},
{
name = top;
position = "{132, 700}";
}
);
background = {
anchors = (
{
name = bottom;
position = "{132, 0}";
},
{
name = ogonek;
position = "{132, 0}";
},
{
name = top;
position = "{132, 700}";
}
);
paths = (
{
closed = 1;
nodes = (
"198 0 LINE",
"198 700 LINE",
"66 700 LINE",
"66 0 LINE"
);
}
);
};
layerId = "5117E3E8-E17C-4812-BAF5-9E7064564A59";
paths = (
{
closed = 1;
nodes = (
"198 0 LINE",
"198 700 LINE",
"66 700 LINE",
"66 0 LINE"
);
}
);
width = 264;
},
{
anchors = (
{
name = bottom;
position = "{118, 0}";
},
{
name = ogonek;
position = "{118, 0}";
},
{
name = top;
position = "{118, 700}";
}
);
background = {
anchors = (
{
name = bottom;
position = "{118, 0}";
},
{
name = ogonek;
position = "{118, 0}";
},
{
name = top;
position = "{118, 700}";
}
);
paths = (
{
closed = 1;
nodes = (
"150 0 LINE",
"150 700 LINE",
"86 700 LINE",
"86 0 LINE"
);
}
);
};
layerId = "CEFBB1E5-951F-4065-926E-8B9137F837F5";
paths = (
{
closed = 1;
nodes = (
"150 0 LINE",
"150 700 LINE",
"86 700 LINE",
"86 0 LINE"
);
}
);
width = 236;
}
);
leftKerningGroup = H;
note = I;
rightKerningGroup = H;
unicode = 0049;
},
{
glyphname = J;
lastChange = "2020-08-11 15:48:20 +0000";
layers = (
{
anchors = (
{
name = top;
position = "{402, 700}";
}
);
background = {
anchors = (
{
name = top;
position = "{402, 700}";
}
);
paths = (
{
closed = 1;
nodes = (
"404 -14 OFFCURVE",
"488 65 OFFCURVE",
"488 210 CURVE SMOOTH",
"488 580 LINE",
"568 580 LINE",
"568 700 LINE",
"236 700 LINE",
"236 580 LINE",
"356 580 LINE",
"356 210 LINE SMOOTH",
"356 146 OFFCURVE",
"322 110 OFFCURVE",
"263 110 CURVE SMOOTH",
"200 110 OFFCURVE",
"164 147 OFFCURVE",
"164 210 CURVE SMOOTH",
"164 276 LINE",
"32 276 LINE",
"32 210 LINE SMOOTH",
"32 69 OFFCURVE",
"123 -14 OFFCURVE",
"267 -14 CURVE SMOOTH"
);
}
);
};
layerId = "5117E3E8-E17C-4812-BAF5-9E7064564A59";
paths = (
{
closed = 1;
nodes = (
"404 -14 OFFCURVE",
"488 65 OFFCURVE",
"488 210 CURVE SMOOTH",
"488 580 LINE",
"568 580 LINE",
"568 700 LINE",
"236 700 LINE",
"236 580 LINE",
"356 580 LINE",
"356 210 LINE SMOOTH",
"356 146 OFFCURVE",
"322 110 OFFCURVE",
"263 110 CURVE SMOOTH",
"200 110 OFFCURVE",
"164 147 OFFCURVE",
"164 210 CURVE SMOOTH",
"164 276 LINE",
"32 276 LINE",
"32 210 LINE SMOOTH",
"32 69 OFFCURVE",
"123 -14 OFFCURVE",
"267 -14 CURVE SMOOTH"
);
}
);
width = 610;
},
{
anchors = (
{
name = top;
position = "{411, 700}";
}
);
background = {
anchors = (
{
name = top;
position = "{411, 700}";
}
);
paths = (
{
closed = 1;
nodes = (
"399 -14 OFFCURVE",
"468 64 OFFCURVE",
"468 210 CURVE SMOOTH",
"468 642 LINE",
"542 642 LINE",
"542 700 LINE",
"280 700 LINE",
"280 642 LINE",
"404 642 LINE",
"404 210 LINE SMOOTH",
"404 112 OFFCURVE",
"368 44 OFFCURVE",
"262 44 CURVE SMOOTH",
"158 44 OFFCURVE",
"108 112 OFFCURVE",
"108 210 CURVE SMOOTH",
"108 259 LINE",
"44 259 LINE",
"44 210 LINE SMOOTH",
"44 64 OFFCURVE",
"127 -14 OFFCURVE",
"261 -14 CURVE SMOOTH"
);
}
);
};
layerId = "CEFBB1E5-951F-4065-926E-8B9137F837F5";
paths = (
{
closed = 1;
nodes = (
"399 -14 OFFCURVE",
"468 64 OFFCURVE",
"468 210 CURVE SMOOTH",
"468 642 LINE",
"542 642 LINE",
"542 700 LINE",
"280 700 LINE",
"280 642 LINE",
"404 642 LINE",
"404 210 LINE SMOOTH",
"404 112 OFFCURVE",
"368 44 OFFCURVE",
"262 44 CURVE SMOOTH",
"158 44 OFFCURVE",
"108 112 OFFCURVE",
"108 210 CURVE SMOOTH",
"108 259 LINE",
"44 259 LINE",
"44 210 LINE SMOOTH",
"44 64 OFFCURVE",
"127 -14 OFFCURVE",
"261 -14 CURVE SMOOTH"
);
}
);
width = 588;
}
);
leftKerningGroup = J;
note = J;
rightKerningGroup = JSerif;
unicode = 004A;
},
{
glyphname = K;
lastChange = "2020-08-10 20:19:42 +0000";
layers = (
{
anchors = (
{
name = bottom;
position = "{311, 0}";
}
);
background = {
anchors = (
{
name = bottom;
position = "{311, 0}";
}
);
paths = (
{
closed = 1;
nodes = (
"198 0 LINE",
"198 284 LINE",
"216 284 LINE",
"448 0 LINE",
"622 0 LINE",
"320 355 LINE",
"612 700 LINE",
"443 700 LINE",
"216 422 LINE",
"198 422 LINE",
"198 700 LINE",
"66 700 LINE",
"66 0 LINE"
);
}
);
};
layerId = "5117E3E8-E17C-4812-BAF5-9E7064564A59";
paths = (
{
closed = 1;
nodes = (
"198 0 LINE",
"198 284 LINE",
"216 284 LINE",
"448 0 LINE",
"622 0 LINE",
"320 355 LINE",
"612 700 LINE",
"443 700 LINE",
"216 422 LINE",
"198 422 LINE",
"198 700 LINE",
"66 700 LINE",
"66 0 LINE"
);
}
);
width = 626;
},
{
anchors = (
{
name = bottom;
position = "{312, 0}";
}
);
background = {
anchors = (
{
name = bottom;
position = "{312, 0}";
}
);
paths = (
{
closed = 1;
nodes = (
"150 0 LINE",
"150 322 LINE",
"162 322 LINE",
"497 0 LINE",
"588 0 LINE",
"214 354 LINE",
"576 700 LINE",
"486 700 LINE",
"162 384 LINE",
"150 384 LINE",
"150 700 LINE",
"86 700 LINE",
"86 0 LINE"
);
}
);
};
layerId = "CEFBB1E5-951F-4065-926E-8B9137F837F5";
paths = (
{
closed = 1;
nodes = (
"150 0 LINE",
"150 322 LINE",
"162 322 LINE",
"497 0 LINE",
"588 0 LINE",
"214 354 LINE",
"576 700 LINE",
"486 700 LINE",
"162 384 LINE",
"150 384 LINE",
"150 700 LINE",
"86 700 LINE",
"86 0 LINE"
);
}
);
width = 604;
}
);
leftKerningGroup = H;
leftMetricsKey = I;
note = K;
rightKerningGroup = K;
unicode = 004B;
},
{
glyphname = L;
lastChange = "2020-08-10 20:21:05 +0000";
layers = (
{
anchors = (
{
name = bottom;
position = "{292, 0}";
},
{
name = caron;
position = "{198, 700}";
},
{
name = sidecaron;
position = "{198, 700}";
},
{
name = top;
position = "{132, 700}";
}
);
background = {
anchors = (
{
name = bottom;
position = "{292, 0}";
},
{
name = caron;
position = "{198, 700}";
},
{
name = sidecaron;
position = "{198, 700}";
},
{
name = top;
position = "{132, 700}";
}
);
paths = (
{
closed = 1;
nodes = (
"518 0 LINE",
"518 120 LINE",
"198 120 LINE",
"198 700 LINE",
"66 700 LINE",
"66 0 LINE"
);
}
);
};
layerId = "5117E3E8-E17C-4812-BAF5-9E7064564A59";
paths = (
{
closed = 1;
nodes = (
"518 0 LINE",
"518 120 LINE",
"198 120 LINE",
"198 700 LINE",
"66 700 LINE",
"66 0 LINE"
);
}
);
width = 542;
},
{
anchors = (
{
name = bottom;
position = "{302, 0}";
},
{
name = caron;
position = "{149, 700}";
},
{
name = sidecaron;
position = "{150, 700}";
},
{
name = top;
position = "{117, 700}";
}
);
background = {
anchors = (
{
name = bottom;
position = "{302, 0}";
},
{
name = caron;
position = "{149, 700}";
},
{
name = sidecaron;
position = "{150, 700}";
},
{
name = top;
position = "{117, 700}";
}
);
paths = (
{
closed = 1;
nodes = (
"518 0 LINE",
"518 58 LINE",
"150 58 LINE",
"150 700 LINE",
"86 700 LINE",
"86 0 LINE"
);
}
);
};
layerId = "CEFBB1E5-951F-4065-926E-8B9137F837F5";
paths = (
{
closed = 1;
nodes = (
"518 0 LINE",
"518 58 LINE",
"150 58 LINE",
"150 700 LINE",
"86 700 LINE",
"86 0 LINE"
);
}
);
width = 547;
}
);
leftKerningGroup = H;
leftMetricsKey = I;
note = L;
rightKerningGroup = L;
unicode = 004C;
},
{
glyphname = M;
lastChange = "2020-08-10 18:12:01 +0000";
layers = (
{
anchors = (
{
name = bottom;
position = "{441, 0}";
}
);
background = {
anchors = (
{
name = bottom;
position = "{441, 0}";
}
);
paths = (
{
closed = 1;
nodes = (
"194 0 LINE",
"194 603 LINE",
"212 603 LINE",
"332 0 LINE",
"550 0 LINE",
"670 603 LINE",
"688 603 LINE",
"688 0 LINE",
"816 0 LINE",
"816 700 LINE",
"571 700 LINE",
"450 90 LINE",
"432 90 LINE",
"311 700 LINE",
"66 700 LINE",
"66 0 LINE"
);
}
);
};
layerId = "5117E3E8-E17C-4812-BAF5-9E7064564A59";
paths = (
{
closed = 1;
nodes = (
"194 0 LINE",
"194 603 LINE",
"212 603 LINE",
"332 0 LINE",
"550 0 LINE",
"670 603 LINE",
"688 603 LINE",
"688 0 LINE",
"816 0 LINE",
"816 700 LINE",
"571 700 LINE",
"450 90 LINE",
"432 90 LINE",
"311 700 LINE",
"66 700 LINE",
"66 0 LINE"
);
}
);
width = 882;
},
{
anchors = (
{
name = bottom;
position = "{429, 0}";
}
);
background = {
anchors = (
{
name = bottom;
position = "{429, 0}";
}
);
paths = (
{
closed = 1;
nodes = (
"148 0 LINE",
"148 662 LINE",
"160 662 LINE",
"372 0 LINE",
"486 0 LINE",
"698 662 LINE",
"710 662 LINE",
"710 0 LINE",
"772 0 LINE",
"772 700 LINE",
"647 700 LINE",
"435 38 LINE",
"423 38 LINE",
"211 700 LINE",
"86 700 LINE",
"86 0 LINE"
);
}
);
};
layerId = "CEFBB1E5-951F-4065-926E-8B9137F837F5";
paths = (
{
closed = 1;
nodes = (
"148 0 LINE",
"148 662 LINE",
"160 662 LINE",
"372 0 LINE",
"486 0 LINE",
"698 662 LINE",
"710 662 LINE",
"710 0 LINE",
"772 0 LINE",
"772 700 LINE",
"647 700 LINE",
"435 38 LINE",
"423 38 LINE",
"211 700 LINE",
"86 700 LINE",
"86 0 LINE"
);
}
);
width = 858;
}
);
leftKerningGroup = H;
leftMetricsKey = I;
note = M;
rightKerningGroup = H;
rightMetricsKey = I;
unicode = 004D;
},
{
glyphname = N;
lastChange = "2020-08-10 18:12:01 +0000";
layers = (
{
anchors = (
{
name = bottom;
position = "{336, 0}";
},
{
name = top;
position = "{334, 700}";
}
);
background = {
anchors = (
{
name = bottom;
position = "{336, 0}";
},
{
name = top;
position = "{334, 700}";
}
);
paths = (
{
closed = 1;
nodes = (
"196 0 LINE",
"196 610 LINE",
"214 610 LINE",
"353 0 LINE",
"604 0 LINE",
"604 700 LINE",
"474 700 LINE",
"474 90 LINE",
"456 90 LINE",
"317 700 LINE",
"66 700 LINE",
"66 0 LINE"
);
}
);
};
layerId = "5117E3E8-E17C-4812-BAF5-9E7064564A59";
paths = (
{
closed = 1;
nodes = (
"196 0 LINE",
"196 610 LINE",
"214 610 LINE",
"353 0 LINE",
"604 0 LINE",
"604 700 LINE",
"474 700 LINE",
"474 90 LINE",
"456 90 LINE",
"317 700 LINE",
"66 700 LINE",
"66 0 LINE"
);
}
);
width = 670;
},
{
anchors = (
{
name = bottom;
position = "{334, 0}";
},
{
name = top;
position = "{335, 700}";
}
);
background = {
anchors = (
{
name = bottom;
position = "{334, 0}";
},
{
name = top;
position = "{335, 700}";
}
);
paths = (
{
closed = 1;
nodes = (
"150 0 LINE",
"150 663 LINE",
"162 663 LINE",
"448 0 LINE",
"575 0 LINE",
"575 700 LINE",
"511 700 LINE",
"511 38 LINE",
"499 38 LINE",
"213 700 LINE",
"86 700 LINE",
"86 0 LINE"
);
}
);
};
layerId = "CEFBB1E5-951F-4065-926E-8B9137F837F5";
paths = (
{
closed = 1;
nodes = (
"150 0 LINE",
"150 663 LINE",
"162 663 LINE",
"448 0 LINE",
"575 0 LINE",
"575 700 LINE",
"511 700 LINE",
"511 38 LINE",
"499 38 LINE",
"213 700 LINE",
"86 700 LINE",
"86 0 LINE"
);
}
);
width = 661;
}
);
leftKerningGroup = H;
leftMetricsKey = I;
note = N;
rightKerningGroup = H;
rightMetricsKey = I;
unicode = 004E;
},
{
glyphname = O;
lastChange = "2020-08-11 15:38:03 +0000";
layers = (
{
anchors = (
{
name = bottom;
position = "{338, 0}";
},
{
name = horn;
position = "{450, 700}";
},
{
name = ogonek;
position = "{352, 0}";
},
{
name = top;
position = "{338, 700}";
}
);
background = {
anchors = (
{
name = bottom;
position = "{338, 0}";
},
{
name = horn;
position = "{450, 700}";
},
{
name = ogonek;
position = "{352, 0}";
},
{
name = top;
position = "{338, 700}";
}
);
paths = (
{
closed = 1;
nodes = (
"514 -14 OFFCURVE",
"626 86 OFFCURVE",
"626 266 CURVE SMOOTH",
"626 434 LINE SMOOTH",
"626 614 OFFCURVE",
"514 714 OFFCURVE",
"338 714 CURVE SMOOTH",
"162 714 OFFCURVE",
"50 614 OFFCURVE",
"50 434 CURVE SMOOTH",
"50 266 LINE SMOOTH",
"50 86 OFFCURVE",
"162 -14 OFFCURVE",
"338 -14 CURVE SMOOTH"
);
},
{
closed = 1;
nodes = (
"240 104 OFFCURVE",
"182 166 OFFCURVE",
"182 262 CURVE SMOOTH",
"182 438 LINE SMOOTH",
"182 534 OFFCURVE",
"240 596 OFFCURVE",
"338 596 CURVE SMOOTH",
"436 596 OFFCURVE",
"494 534 OFFCURVE",
"494 438 CURVE SMOOTH",
"494 262 LINE SMOOTH",
"494 166 OFFCURVE",
"436 104 OFFCURVE",
"338 104 CURVE SMOOTH"
);
}
);
};
layerId = "5117E3E8-E17C-4812-BAF5-9E7064564A59";
paths = (
{
closed = 1;
nodes = (
"514 -14 OFFCURVE",
"626 86 OFFCURVE",
"626 266 CURVE SMOOTH",
"626 434 LINE SMOOTH",
"626 614 OFFCURVE",
"514 714 OFFCURVE",
"338 714 CURVE SMOOTH",
"162 714 OFFCURVE",
"50 614 OFFCURVE",
"50 434 CURVE SMOOTH",
"50 266 LINE SMOOTH",
"50 86 OFFCURVE",
"162 -14 OFFCURVE",
"338 -14 CURVE SMOOTH"
);
},
{
closed = 1;
nodes = (
"240 104 OFFCURVE",
"182 166 OFFCURVE",
"182 262 CURVE SMOOTH",
"182 438 LINE SMOOTH",
"182 534 OFFCURVE",
"240 596 OFFCURVE",
"338 596 CURVE SMOOTH",
"436 596 OFFCURVE",
"494 534 OFFCURVE",
"494 438 CURVE SMOOTH",
"494 262 LINE SMOOTH",
"494 166 OFFCURVE",
"436 104 OFFCURVE",
"338 104 CURVE SMOOTH"
);
}
);
width = 676;
},
{
anchors = (
{
name = bottom;
position = "{333, 0}";
},
{
name = horn;
position = "{436, 700}";
},
{
name = ogonek;
position = "{349, 0}";
},
{
name = top;
position = "{333, 700}";
}
);
background = {
anchors = (
{
name = bottom;
position = "{333, 0}";
},
{
name = horn;
position = "{436, 700}";
},
{
name = ogonek;
position = "{349, 0}";
},
{
name = top;
position = "{333, 700}";
}
);
paths = (
{
closed = 1;
nodes = (
"497 -14 OFFCURVE",
"602 84 OFFCURVE",
"602 271 CURVE SMOOTH",
"602 429 LINE SMOOTH",
"602 616 OFFCURVE",
"497 714 OFFCURVE",
"333 714 CURVE SMOOTH",
"169 714 OFFCURVE",
"64 616 OFFCURVE",
"64 429 CURVE SMOOTH",
"64 271 LINE SMOOTH",
"64 84 OFFCURVE",
"169 -14 OFFCURVE",
"333 -14 CURVE SMOOTH"
);
},
{
closed = 1;
nodes = (
"203 44 OFFCURVE",
"128 126 OFFCURVE",
"128 269 CURVE SMOOTH",
"128 431 LINE SMOOTH",
"128 574 OFFCURVE",
"203 656 OFFCURVE",
"333 656 CURVE SMOOTH",
"463 656 OFFCURVE",
"538 574 OFFCURVE",
"538 431 CURVE SMOOTH",
"538 269 LINE SMOOTH",
"538 126 OFFCURVE",
"463 44 OFFCURVE",
"333 44 CURVE SMOOTH"
);
}
);
};
layerId = "CEFBB1E5-951F-4065-926E-8B9137F837F5";
paths = (
{
closed = 1;
nodes = (
"497 -14 OFFCURVE",
"602 84 OFFCURVE",
"602 271 CURVE SMOOTH",
"602 429 LINE SMOOTH",
"602 616 OFFCURVE",
"497 714 OFFCURVE",
"333 714 CURVE SMOOTH",
"169 714 OFFCURVE",
"64 616 OFFCURVE",
"64 429 CURVE SMOOTH",
"64 271 LINE SMOOTH",
"64 84 OFFCURVE",
"169 -14 OFFCURVE",
"333 -14 CURVE SMOOTH"
);
},
{
closed = 1;
nodes = (
"203 44 OFFCURVE",
"128 126 OFFCURVE",
"128 269 CURVE SMOOTH",
"128 431 LINE SMOOTH",
"128 574 OFFCURVE",
"203 656 OFFCURVE",
"333 656 CURVE SMOOTH",
"463 656 OFFCURVE",
"538 574 OFFCURVE",
"538 431 CURVE SMOOTH",
"538 269 LINE SMOOTH",
"538 126 OFFCURVE",
"463 44 OFFCURVE",
"333 44 CURVE SMOOTH"
);
}
);
width = 666;
}
);
leftKerningGroup = O;
note = O;
rightKerningGroup = O;
unicode = 004F;
},
{
glyphname = P;
lastChange = "2020-08-10 18:12:01 +0000";
layers = (
{
background = {
paths = (
{
closed = 1;
nodes = (
"198 0 LINE",
"198 256 LINE",
"354 256 LINE SMOOTH",
"482 256 OFFCURVE",
"578 340 OFFCURVE",
"578 471 CURVE SMOOTH",
"578 485 LINE SMOOTH",
"578 616 OFFCURVE",
"486 700 OFFCURVE",
"354 700 CURVE SMOOTH",
"66 700 LINE",
"66 0 LINE"
);
},
{
closed = 1;
nodes = (
"198 580 LINE",
"341 580 LINE SMOOTH",
"404 580 OFFCURVE",
"446 543 OFFCURVE",
"446 483 CURVE SMOOTH",
"446 473 LINE SMOOTH",
"446 413 OFFCURVE",
"403 376 OFFCURVE",
"341 376 CURVE SMOOTH",
"198 376 LINE"
);
}
);
};
layerId = "5117E3E8-E17C-4812-BAF5-9E7064564A59";
paths = (
{
closed = 1;
nodes = (
"198 0 LINE",
"198 256 LINE",
"354 256 LINE SMOOTH",
"482 256 OFFCURVE",
"578 340 OFFCURVE",
"578 471 CURVE SMOOTH",
"578 485 LINE SMOOTH",
"578 616 OFFCURVE",
"486 700 OFFCURVE",
"354 700 CURVE SMOOTH",
"66 700 LINE",
"66 0 LINE"
);
},
{
closed = 1;
nodes = (
"198 580 LINE",
"341 580 LINE SMOOTH",
"404 580 OFFCURVE",
"446 543 OFFCURVE",
"446 483 CURVE SMOOTH",
"446 473 LINE SMOOTH",
"446 413 OFFCURVE",
"403 376 OFFCURVE",
"341 376 CURVE SMOOTH",
"198 376 LINE"
);
}
);
width = 604;
},
{
background = {
paths = (
{
closed = 1;
nodes = (
"150 0 LINE",
"150 292 LINE",
"345 292 LINE SMOOTH",
"466 292 OFFCURVE",
"564 364 OFFCURVE",
"564 490 CURVE SMOOTH",
"564 502 LINE SMOOTH",
"564 628 OFFCURVE",
"468 700 OFFCURVE",
"345 700 CURVE SMOOTH",
"86 700 LINE",
"86 0 LINE"
);
},
{
closed = 1;
nodes = (
"150 642 LINE",
"338 642 LINE SMOOTH",
"440 642 OFFCURVE",
"500 591 OFFCURVE",
"500 501 CURVE SMOOTH",
"500 491 LINE SMOOTH",
"500 401 OFFCURVE",
"438 350 OFFCURVE",
"338 350 CURVE SMOOTH",
"150 350 LINE"
);
}
);
};
layerId = "CEFBB1E5-951F-4065-926E-8B9137F837F5";
paths = (
{
closed = 1;
nodes = (
"150 0 LINE",
"150 292 LINE",
"345 292 LINE SMOOTH",
"466 292 OFFCURVE",
"564 364 OFFCURVE",
"564 490 CURVE SMOOTH",
"564 502 LINE SMOOTH",
"564 628 OFFCURVE",
"468 700 OFFCURVE",
"345 700 CURVE SMOOTH",
"86 700 LINE",
"86 0 LINE"
);
},
{
closed = 1;
nodes = (
"150 642 LINE",
"338 642 LINE SMOOTH",
"440 642 OFFCURVE",
"500 591 OFFCURVE",
"500 501 CURVE SMOOTH",
"500 491 LINE SMOOTH",
"500 401 OFFCURVE",
"438 350 OFFCURVE",
"338 350 CURVE SMOOTH",
"150 350 LINE"
);
}
);
width = 600;
}
);
leftKerningGroup = H;
leftMetricsKey = I;
note = P;
rightKerningGroup = P;
unicode = 0050;
},
{
glyphname = Q;
lastChange = "2020-08-10 18:12:01 +0000";
layers = (
{
background = {
paths = (
{
closed = 1;
nodes = (
"514 -14 OFFCURVE",
"626 86 OFFCURVE",
"626 266 CURVE SMOOTH",
"626 434 LINE SMOOTH",
"626 614 OFFCURVE",
"514 714 OFFCURVE",
"338 714 CURVE SMOOTH",
"162 714 OFFCURVE",
"50 614 OFFCURVE",
"50 434 CURVE SMOOTH",
"50 266 LINE SMOOTH",
"50 86 OFFCURVE",
"162 -14 OFFCURVE",
"338 -14 CURVE SMOOTH"
);
},
{
closed = 1;
nodes = (
"240 104 OFFCURVE",
"182 166 OFFCURVE",
"182 262 CURVE SMOOTH",
"182 438 LINE SMOOTH",
"182 534 OFFCURVE",
"240 596 OFFCURVE",
"338 596 CURVE SMOOTH",
"436 596 OFFCURVE",
"494 534 OFFCURVE",
"494 438 CURVE SMOOTH",
"494 262 LINE SMOOTH",
"494 166 OFFCURVE",
"436 104 OFFCURVE",
"338 104 CURVE SMOOTH"
);
},
{
closed = 1;
nodes = (
"489 -180 LINE",
"489 -78 LINE",
"430 -78 LINE SMOOTH",
"412 -78 OFFCURVE",
"402 -68 OFFCURVE",
"402 -48 CURVE SMOOTH",
"402 0 LINE",
"274 0 LINE",
"274 -68 LINE SMOOTH",
"274 -136 OFFCURVE",
"318 -180 OFFCURVE",
"384 -180 CURVE SMOOTH"
);
}
);
};
layerId = "5117E3E8-E17C-4812-BAF5-9E7064564A59";
paths = (
{
closed = 1;
nodes = (
"514 -14 OFFCURVE",
"626 86 OFFCURVE",
"626 266 CURVE SMOOTH",
"626 434 LINE SMOOTH",
"626 614 OFFCURVE",
"514 714 OFFCURVE",
"338 714 CURVE SMOOTH",
"162 714 OFFCURVE",
"50 614 OFFCURVE",
"50 434 CURVE SMOOTH",
"50 266 LINE SMOOTH",
"50 86 OFFCURVE",
"162 -14 OFFCURVE",
"338 -14 CURVE SMOOTH"
);
},
{
closed = 1;
nodes = (
"240 104 OFFCURVE",
"182 166 OFFCURVE",
"182 262 CURVE SMOOTH",
"182 438 LINE SMOOTH",
"182 534 OFFCURVE",
"240 596 OFFCURVE",
"338 596 CURVE SMOOTH",
"436 596 OFFCURVE",
"494 534 OFFCURVE",
"494 438 CURVE SMOOTH",
"494 262 LINE SMOOTH",
"494 166 OFFCURVE",
"436 104 OFFCURVE",
"338 104 CURVE SMOOTH"
);
},
{
closed = 1;
nodes = (
"489 -180 LINE",
"489 -78 LINE",
"430 -78 LINE SMOOTH",
"412 -78 OFFCURVE",
"402 -68 OFFCURVE",
"402 -48 CURVE SMOOTH",
"402 0 LINE",
"274 0 LINE",
"274 -68 LINE SMOOTH",
"274 -136 OFFCURVE",
"318 -180 OFFCURVE",
"384 -180 CURVE SMOOTH"
);
}
);
width = 676;
},
{
background = {
paths = (
{
closed = 1;
nodes = (
"497 -14 OFFCURVE",
"602 84 OFFCURVE",
"602 271 CURVE SMOOTH",
"602 429 LINE SMOOTH",
"602 616 OFFCURVE",
"497 714 OFFCURVE",
"333 714 CURVE SMOOTH",
"169 714 OFFCURVE",
"64 616 OFFCURVE",
"64 429 CURVE SMOOTH",
"64 271 LINE SMOOTH",
"64 84 OFFCURVE",
"169 -14 OFFCURVE",
"333 -14 CURVE SMOOTH"
);
},
{
closed = 1;
nodes = (
"203 44 OFFCURVE",
"128 126 OFFCURVE",
"128 269 CURVE SMOOTH",
"128 431 LINE SMOOTH",
"128 574 OFFCURVE",
"203 656 OFFCURVE",
"333 656 CURVE SMOOTH",
"463 656 OFFCURVE",
"538 574 OFFCURVE",
"538 431 CURVE SMOOTH",
"538 269 LINE SMOOTH",
"538 126 OFFCURVE",
"463 44 OFFCURVE",
"333 44 CURVE SMOOTH"
);
},
{
closed = 1;
nodes = (
"461 -154 LINE",
"461 -99 LINE",
"392 -99 LINE SMOOTH",
"374 -99 OFFCURVE",
"364 -89 OFFCURVE",
"364 -69 CURVE SMOOTH",
"364 0 LINE",
"301 0 LINE",
"301 -82 LINE SMOOTH",
"301 -127 OFFCURVE",
"328 -154 OFFCURVE",
"371 -154 CURVE SMOOTH"
);
}
);
};
layerId = "CEFBB1E5-951F-4065-926E-8B9137F837F5";
paths = (
{
closed = 1;
nodes = (
"497 -14 OFFCURVE",
"602 84 OFFCURVE",
"602 271 CURVE SMOOTH",
"602 429 LINE SMOOTH",
"602 616 OFFCURVE",
"497 714 OFFCURVE",
"333 714 CURVE SMOOTH",
"169 714 OFFCURVE",
"64 616 OFFCURVE",
"64 429 CURVE SMOOTH",
"64 271 LINE SMOOTH",
"64 84 OFFCURVE",
"169 -14 OFFCURVE",
"333 -14 CURVE SMOOTH"
);
},
{
closed = 1;
nodes = (
"203 44 OFFCURVE",
"128 126 OFFCURVE",
"128 269 CURVE SMOOTH",
"128 431 LINE SMOOTH",
"128 574 OFFCURVE",
"203 656 OFFCURVE",
"333 656 CURVE SMOOTH",
"463 656 OFFCURVE",
"538 574 OFFCURVE",
"538 431 CURVE SMOOTH",
"538 269 LINE SMOOTH",
"538 126 OFFCURVE",
"463 44 OFFCURVE",
"333 44 CURVE SMOOTH"
);
},
{
closed = 1;
nodes = (
"461 -154 LINE",
"461 -99 LINE",
"392 -99 LINE SMOOTH",
"374 -99 OFFCURVE",
"364 -89 OFFCURVE",
"364 -69 CURVE SMOOTH",
"364 0 LINE",
"301 0 LINE",
"301 -82 LINE SMOOTH",
"301 -127 OFFCURVE",
"328 -154 OFFCURVE",
"371 -154 CURVE SMOOTH"
);
}
);
width = 666;
}
);
leftKerningGroup = O;
leftMetricsKey = O;
note = Q;
rightKerningGroup = O;
rightMetricsKey = O;
unicode = 0051;
},
{
glyphname = R;
lastChange = "2020-08-10 18:12:01 +0000";
layers = (
{
anchors = (
{
name = bottom;
position = "{313, 0}";
},
{
name = top;
position = "{301, 700}";
}
);
background = {
anchors = (
{
name = bottom;
position = "{313, 0}";
},
{
name = top;
position = "{301, 700}";
}
);
paths = (
{
closed = 1;
nodes = (
"198 0 LINE",
"198 264 LINE",
"382 264 LINE SMOOTH",
"421 264 OFFCURVE",
"436 242 OFFCURVE",
"436 210 CURVE SMOOTH",
"436 0 LINE",
"568 0 LINE",
"568 229 LINE SMOOTH",
"568 285 OFFCURVE",
"537 321 OFFCURVE",
"484 324 CURVE",
"484 342 LINE",
"543 366 OFFCURVE",
"588 417 OFFCURVE",
"588 501 CURVE SMOOTH",
"588 513 LINE SMOOTH",
"588 626 OFFCURVE",
"501 700 OFFCURVE",
"370 700 CURVE SMOOTH",
"66 700 LINE",
"66 0 LINE"
);
},
{
closed = 1;
nodes = (
"198 580 LINE",
"356 580 LINE SMOOTH",
"420 580 OFFCURVE",
"456 543 OFFCURVE",
"456 487 CURVE SMOOTH",
"456 477 LINE SMOOTH",
"456 421 OFFCURVE",
"418 384 OFFCURVE",
"356 384 CURVE SMOOTH",
"198 384 LINE"
);
}
);
};
layerId = "5117E3E8-E17C-4812-BAF5-9E7064564A59";
paths = (
{
closed = 1;
nodes = (
"198 0 LINE",
"198 264 LINE",
"382 264 LINE SMOOTH",
"421 264 OFFCURVE",
"436 242 OFFCURVE",
"436 210 CURVE SMOOTH",
"436 0 LINE",
"568 0 LINE",
"568 229 LINE SMOOTH",
"568 285 OFFCURVE",
"537 321 OFFCURVE",
"484 324 CURVE",
"484 342 LINE",
"543 366 OFFCURVE",
"588 417 OFFCURVE",
"588 501 CURVE SMOOTH",
"588 513 LINE SMOOTH",
"588 626 OFFCURVE",
"501 700 OFFCURVE",
"370 700 CURVE SMOOTH",
"66 700 LINE",
"66 0 LINE"
);
},
{
closed = 1;
nodes = (
"198 580 LINE",
"356 580 LINE SMOOTH",
"420 580 OFFCURVE",
"456 543 OFFCURVE",
"456 487 CURVE SMOOTH",
"456 477 LINE SMOOTH",
"456 421 OFFCURVE",
"418 384 OFFCURVE",
"356 384 CURVE SMOOTH",
"198 384 LINE"
);
}
);
width = 632;
},
{
anchors = (
{
name = bottom;
position = "{319, 0}";
},
{
name = top;
position = "{310, 700}";
}
);
background = {
anchors = (
{
name = bottom;
position = "{319, 0}";
},
{
name = top;
position = "{310, 700}";
}
);
paths = (
{
closed = 1;
nodes = (
"150 0 LINE",
"150 297 LINE",
"416 297 LINE SMOOTH",
"463 297 OFFCURVE",
"486 274 OFFCURVE",
"486 231 CURVE SMOOTH",
"486 0 LINE",
"550 0 LINE",
"550 238 LINE SMOOTH",
"550 299 OFFCURVE",
"513 325 OFFCURVE",
"467 327 CURVE",
"467 339 LINE",
"528 356 OFFCURVE",
"581 409 OFFCURVE",
"581 504 CURVE SMOOTH",
"581 514 LINE SMOOTH",
"581 632 OFFCURVE",
"489 700 OFFCURVE",
"360 700 CURVE SMOOTH",
"86 700 LINE",
"86 0 LINE"
);
},
{
closed = 1;
nodes = (
"150 642 LINE",
"354 642 LINE SMOOTH",
"460 642 OFFCURVE",
"517 592 OFFCURVE",
"517 501 CURVE SMOOTH",
"517 496 LINE SMOOTH",
"517 405 OFFCURVE",
"458 355 OFFCURVE",
"354 355 CURVE SMOOTH",
"150 355 LINE"
);
}
);
};
layerId = "CEFBB1E5-951F-4065-926E-8B9137F837F5";
paths = (
{
closed = 1;
nodes = (
"150 0 LINE",
"150 297 LINE",
"416 297 LINE SMOOTH",
"463 297 OFFCURVE",
"486 274 OFFCURVE",
"486 231 CURVE SMOOTH",
"486 0 LINE",
"550 0 LINE",
"550 238 LINE SMOOTH",
"550 299 OFFCURVE",
"513 325 OFFCURVE",
"467 327 CURVE",
"467 339 LINE",
"528 356 OFFCURVE",
"581 409 OFFCURVE",
"581 504 CURVE SMOOTH",
"581 514 LINE SMOOTH",
"581 632 OFFCURVE",
"489 700 OFFCURVE",
"360 700 CURVE SMOOTH",
"86 700 LINE",
"86 0 LINE"
);
},
{
closed = 1;
nodes = (
"150 642 LINE",
"354 642 LINE SMOOTH",
"460 642 OFFCURVE",
"517 592 OFFCURVE",
"517 501 CURVE SMOOTH",
"517 496 LINE SMOOTH",
"517 405 OFFCURVE",
"458 355 OFFCURVE",
"354 355 CURVE SMOOTH",
"150 355 LINE"
);
}
);
width = 631;
}
);
leftKerningGroup = H;
leftMetricsKey = I;
note = R;
rightKerningGroup = R;
unicode = 0052;
},
{
glyphname = S;
lastChange = "2020-08-11 15:56:16 +0000";
layers = (
{
anchors = (
{
name = bottom;
position = "{315, 0}";
},
{
name = top;
position = "{301, 700}";
}
);
background = {
anchors = (
{
name = bottom;
position = "{315, 0}";
},
{
name = top;
position = "{301, 700}";
}
);
paths = (
{
closed = 1;
nodes = (
"471 -14 OFFCURVE",
"574 74 OFFCURVE",
"574 202 CURVE SMOOTH",
"574 330 OFFCURVE",
"475 382 OFFCURVE",
"326 414 CURVE SMOOTH",
"303 419 LINE SMOOTH",
"219 437 OFFCURVE",
"180 462 OFFCURVE",
"180 514 CURVE SMOOTH",
"180 566 OFFCURVE",
"217 598 OFFCURVE",
"297 598 CURVE SMOOTH",
"377 598 OFFCURVE",
"426 566 OFFCURVE",
"426 486 CURVE SMOOTH",
"426 456 LINE",
"556 456 LINE",
"556 486 LINE SMOOTH",
"556 638 OFFCURVE",
"447 714 OFFCURVE",
"297 714 CURVE SMOOTH",
"147 714 OFFCURVE",
"50 638 OFFCURVE",
"50 510 CURVE SMOOTH",
"50 382 OFFCURVE",
"135 333 OFFCURVE",
"280 301 CURVE SMOOTH",
"303 296 LINE SMOOTH",
"393 276 OFFCURVE",
"444 256 OFFCURVE",
"444 198 CURVE SMOOTH",
"444 142 OFFCURVE",
"399 102 OFFCURVE",
"309 102 CURVE SMOOTH",
"219 102 OFFCURVE",
"164 144 OFFCURVE",
"164 228 CURVE SMOOTH",
"164 256 LINE",
"34 256 LINE",
"34 228 LINE SMOOTH",
"34 76 OFFCURVE",
"147 -14 OFFCURVE",
"309 -14 CURVE SMOOTH"
);
}
);
};
layerId = "5117E3E8-E17C-4812-BAF5-9E7064564A59";
paths = (
{
closed = 1;
nodes = (
"471 -14 OFFCURVE",
"574 74 OFFCURVE",
"574 202 CURVE SMOOTH",
"574 330 OFFCURVE",
"475 382 OFFCURVE",
"326 414 CURVE SMOOTH",
"303 419 LINE SMOOTH",
"219 437 OFFCURVE",
"180 462 OFFCURVE",
"180 514 CURVE SMOOTH",
"180 566 OFFCURVE",
"217 598 OFFCURVE",
"297 598 CURVE SMOOTH",
"377 598 OFFCURVE",
"426 566 OFFCURVE",
"426 486 CURVE SMOOTH",
"426 456 LINE",
"556 456 LINE",
"556 486 LINE SMOOTH",
"556 638 OFFCURVE",
"447 714 OFFCURVE",
"297 714 CURVE SMOOTH",
"147 714 OFFCURVE",
"50 638 OFFCURVE",
"50 510 CURVE SMOOTH",
"50 382 OFFCURVE",
"135 333 OFFCURVE",
"280 301 CURVE SMOOTH",
"303 296 LINE SMOOTH",
"393 276 OFFCURVE",
"444 256 OFFCURVE",
"444 198 CURVE SMOOTH",
"444 142 OFFCURVE",
"399 102 OFFCURVE",
"309 102 CURVE SMOOTH",
"219 102 OFFCURVE",
"164 144 OFFCURVE",
"164 228 CURVE SMOOTH",
"164 256 LINE",
"34 256 LINE",
"34 228 LINE SMOOTH",
"34 76 OFFCURVE",
"147 -14 OFFCURVE",
"309 -14 CURVE SMOOTH"
);
}
);
width = 606;
},
{
anchors = (
{
name = bottom;
position = "{320, 0}";
},
{
name = top;
position = "{307, 700}";
}
);
background = {
anchors = (
{
name = bottom;
position = "{320, 0}";
},
{
name = top;
position = "{307, 700}";
}
);
paths = (
{
closed = 1;
nodes = (
"463 -14 OFFCURVE",
"560 64 OFFCURVE",
"560 186 CURVE SMOOTH",
"560 308 OFFCURVE",
"466 351 OFFCURVE",
"357 378 CURVE SMOOTH",
"293 394 LINE SMOOTH",
"196 418 OFFCURVE",
"135 444 OFFCURVE",
"135 528 CURVE SMOOTH",
"135 612 OFFCURVE",
"205 658 OFFCURVE",
"303 658 CURVE SMOOTH",
"405 658 OFFCURVE",
"484 612 OFFCURVE",
"484 503 CURVE SMOOTH",
"484 456 LINE",
"548 456 LINE",
"548 503 LINE SMOOTH",
"548 642 OFFCURVE",
"440 714 OFFCURVE",
"303 714 CURVE SMOOTH",
"166 714 OFFCURVE",
"71 642 OFFCURVE",
"71 528 CURVE SMOOTH",
"71 414 OFFCURVE",
"155 367 OFFCURVE",
"270 338 CURVE SMOOTH",
"334 322 LINE SMOOTH",
"430 298 OFFCURVE",
"496 270 OFFCURVE",
"496 186 CURVE SMOOTH",
"496 102 OFFCURVE",
"431 42 OFFCURVE",
"315 42 CURVE SMOOTH",
"200 42 OFFCURVE",
"118 102 OFFCURVE",
"118 232 CURVE SMOOTH",
"118 251 LINE",
"54 251 LINE",
"54 232 LINE SMOOTH",
"54 64 OFFCURVE",
"166 -14 OFFCURVE",
"315 -14 CURVE SMOOTH"
);
}
);
};
layerId = "CEFBB1E5-951F-4065-926E-8B9137F837F5";
paths = (
{
closed = 1;
nodes = (
"463 -14 OFFCURVE",
"560 64 OFFCURVE",
"560 186 CURVE SMOOTH",
"560 308 OFFCURVE",
"466 351 OFFCURVE",
"357 378 CURVE SMOOTH",
"293 394 LINE SMOOTH",
"196 418 OFFCURVE",
"135 444 OFFCURVE",
"135 528 CURVE SMOOTH",
"135 612 OFFCURVE",
"205 658 OFFCURVE",
"303 658 CURVE SMOOTH",
"405 658 OFFCURVE",
"484 612 OFFCURVE",
"484 503 CURVE SMOOTH",
"484 456 LINE",
"548 456 LINE",
"548 503 LINE SMOOTH",
"548 642 OFFCURVE",
"440 714 OFFCURVE",
"303 714 CURVE SMOOTH",
"166 714 OFFCURVE",
"71 642 OFFCURVE",
"71 528 CURVE SMOOTH",
"71 414 OFFCURVE",
"155 367 OFFCURVE",
"270 338 CURVE SMOOTH",
"334 322 LINE SMOOTH",
"430 298 OFFCURVE",
"496 270 OFFCURVE",
"496 186 CURVE SMOOTH",
"496 102 OFFCURVE",
"431 42 OFFCURVE",
"315 42 CURVE SMOOTH",
"200 42 OFFCURVE",
"118 102 OFFCURVE",
"118 232 CURVE SMOOTH",
"118 251 LINE",
"54 251 LINE",
"54 232 LINE SMOOTH",
"54 64 OFFCURVE",
"166 -14 OFFCURVE",
"315 -14 CURVE SMOOTH"
);
}
);
width = 616;
}
);
leftKerningGroup = S;
note = S;
rightKerningGroup = S;
unicode = 0053;
},
{
glyphname = T;
lastChange = "2020-08-11 09:51:51 +0000";
layers = (
{
anchors = (
{
name = bottom;
position = "{294, 0}";
},
{
name = strokeC;
position = "{294, 496}";
},
{
name = top;
position = "{294, 700}";
}
);
background = {
anchors = (
{
name = bottom;
position = "{294, 0}";
},
{
name = strokeC;
position = "{294, 496}";
},
{
name = top;
position = "{294, 700}";
}
);
paths = (
{
closed = 1;
nodes = (
"360 0 LINE",
"360 580 LINE",
"564 580 LINE",
"564 700 LINE",
"24 700 LINE",
"24 580 LINE",
"228 580 LINE",
"228 0 LINE"
);
}
);
};
layerId = "5117E3E8-E17C-4812-BAF5-9E7064564A59";
paths = (
{
closed = 1;
nodes = (
"360 0 LINE",
"360 580 LINE",
"564 580 LINE",
"564 700 LINE",
"24 700 LINE",
"24 580 LINE",
"228 580 LINE",
"228 0 LINE"
);
}
);
width = 588;
},
{
anchors = (
{
name = bottom;
position = "{295, 0}";
},
{
name = strokeC;
position = "{294, 486}";
},
{
name = top;
position = "{294, 700}";
}
);
background = {
anchors = (
{
name = bottom;
position = "{295, 0}";
},
{
name = strokeC;
position = "{294, 486}";
},
{
name = top;
position = "{294, 700}";
}
);
paths = (
{
closed = 1;
nodes = (
"326 0 LINE",
"326 642 LINE",
"560 642 LINE",
"560 700 LINE",
"28 700 LINE",
"28 642 LINE",
"262 642 LINE",
"262 0 LINE"
);
}
);
};
layerId = "CEFBB1E5-951F-4065-926E-8B9137F837F5";
paths = (
{
closed = 1;
nodes = (
"326 0 LINE",
"326 642 LINE",
"560 642 LINE",
"560 700 LINE",
"28 700 LINE",
"28 642 LINE",
"262 642 LINE",
"262 0 LINE"
);
}
);
width = 588;
}
);
leftKerningGroup = T;
note = T;
rightKerningGroup = T;
unicode = 0054;
},
{
glyphname = U;
lastChange = "2020-08-10 18:12:01 +0000";
layers = (
{
anchors = (
{
name = bottom;
position = "{336, 0}";
},
{
name = horn;
position = "{610, 700}";
},
{
name = ogonek;
position = "{424, 0}";
},
{
name = top;
position = "{336, 700}";
}
);
background = {
anchors = (
{
name = bottom;
position = "{336, 0}";
},
{
name = horn;
position = "{610, 700}";
},
{
name = ogonek;
position = "{424, 0}";
},
{
name = top;
position = "{336, 700}";
}
);
paths = (
{
closed = 1;
nodes = (
"508 -14 OFFCURVE",
"610 86 OFFCURVE",
"610 246 CURVE SMOOTH",
"610 700 LINE",
"478 700 LINE",
"478 242 LINE SMOOTH",
"478 156 OFFCURVE",
"428 104 OFFCURVE",
"336 104 CURVE SMOOTH",
"244 104 OFFCURVE",
"194 156 OFFCURVE",
"194 242 CURVE SMOOTH",
"194 700 LINE",
"62 700 LINE",
"62 246 LINE SMOOTH",
"62 86 OFFCURVE",
"164 -14 OFFCURVE",
"336 -14 CURVE SMOOTH"
);
}
);
};
layerId = "5117E3E8-E17C-4812-BAF5-9E7064564A59";
paths = (
{
closed = 1;
nodes = (
"508 -14 OFFCURVE",
"610 86 OFFCURVE",
"610 246 CURVE SMOOTH",
"610 700 LINE",
"478 700 LINE",
"478 242 LINE SMOOTH",
"478 156 OFFCURVE",
"428 104 OFFCURVE",
"336 104 CURVE SMOOTH",
"244 104 OFFCURVE",
"194 156 OFFCURVE",
"194 242 CURVE SMOOTH",
"194 700 LINE",
"62 700 LINE",
"62 246 LINE SMOOTH",
"62 86 OFFCURVE",
"164 -14 OFFCURVE",
"336 -14 CURVE SMOOTH"
);
}
);
width = 672;
},
{
anchors = (
{
name = bottom;
position = "{334, 0}";
},
{
name = horn;
position = "{584, 700}";
},
{
name = ogonek;
position = "{399, 0}";
},
{
name = top;
position = "{332, 700}";
}
);
background = {
anchors = (
{
name = bottom;
position = "{334, 0}";
},
{
name = horn;
position = "{584, 700}";
},
{
name = ogonek;
position = "{399, 0}";
},
{
name = top;
position = "{332, 700}";
}
);
paths = (
{
closed = 1;
nodes = (
"482 -14 OFFCURVE",
"584 65 OFFCURVE",
"584 229 CURVE SMOOTH",
"584 700 LINE",
"520 700 LINE",
"520 229 LINE SMOOTH",
"520 104 OFFCURVE",
"451 44 OFFCURVE",
"332 44 CURVE SMOOTH",
"213 44 OFFCURVE",
"144 104 OFFCURVE",
"144 229 CURVE SMOOTH",
"144 700 LINE",
"80 700 LINE",
"80 229 LINE SMOOTH",
"80 65 OFFCURVE",
"182 -14 OFFCURVE",
"332 -14 CURVE SMOOTH"
);
}
);
};
layerId = "CEFBB1E5-951F-4065-926E-8B9137F837F5";
paths = (
{
closed = 1;
nodes = (
"482 -14 OFFCURVE",
"584 65 OFFCURVE",
"584 229 CURVE SMOOTH",
"584 700 LINE",
"520 700 LINE",
"520 229 LINE SMOOTH",
"520 104 OFFCURVE",
"451 44 OFFCURVE",
"332 44 CURVE SMOOTH",
"213 44 OFFCURVE",
"144 104 OFFCURVE",
"144 229 CURVE SMOOTH",
"144 700 LINE",
"80 700 LINE",
"80 229 LINE SMOOTH",
"80 65 OFFCURVE",
"182 -14 OFFCURVE",
"332 -14 CURVE SMOOTH"
);
}
);
width = 664;
}
);
leftKerningGroup = U;
note = U;
rightKerningGroup = U;
unicode = 0055;
},
{
glyphname = V;
lastChange = "2020-08-11 15:24:01 +0000";
layers = (
{
background = {
paths = (
{
closed = 1;
nodes = (
"422 0 LINE",
"600 700 LINE",
"464 700 LINE",
"316 85 LINE",
"302 85 LINE",
"154 700 LINE",
"18 700 LINE",
"196 0 LINE"
);
}
);
};
layerId = "5117E3E8-E17C-4812-BAF5-9E7064564A59";
paths = (
{
closed = 1;
nodes = (
"422 0 LINE",
"600 700 LINE",
"464 700 LINE",
"316 85 LINE",
"302 85 LINE",
"154 700 LINE",
"18 700 LINE",
"196 0 LINE"
);
}
);
width = 618;
},
{
background = {
paths = (
{
closed = 1;
nodes = (
"367 0 LINE",
"592 700 LINE",
"525 700 LINE",
"316 37 LINE",
"304 37 LINE",
"95 700 LINE",
"28 700 LINE",
"253 0 LINE"
);
}
);
};
layerId = "CEFBB1E5-951F-4065-926E-8B9137F837F5";
paths = (
{
closed = 1;
nodes = (
"367 0 LINE",
"592 700 LINE",
"525 700 LINE",
"316 37 LINE",
"304 37 LINE",
"95 700 LINE",
"28 700 LINE",
"253 0 LINE"
);
}
);
width = 620;
}
);
leftKerningGroup = V;
note = V;
rightKerningGroup = V;
unicode = 0056;
},
{
glyphname = W;
lastChange = "2020-08-11 15:47:45 +0000";
layers = (
{
anchors = (
{
name = top;
position = "{449, 700}";
}
);
background = {
anchors = (
{
name = top;
position = "{449, 700}";
}
);
paths = (
{
closed = 1;
nodes = (
"350 0 LINE",
"440 622 LINE",
"458 622 LINE",
"548 0 LINE",
"776 0 LINE",
"868 700 LINE",
"737 700 LINE",
"669 92 LINE",
"651 92 LINE",
"563 700 LINE",
"335 700 LINE",
"247 92 LINE",
"229 92 LINE",
"161 700 LINE",
"30 700 LINE",
"122 0 LINE"
);
}
);
};
layerId = "5117E3E8-E17C-4812-BAF5-9E7064564A59";
paths = (
{
closed = 1;
nodes = (
"350 0 LINE",
"440 622 LINE",
"458 622 LINE",
"548 0 LINE",
"776 0 LINE",
"868 700 LINE",
"737 700 LINE",
"669 92 LINE",
"651 92 LINE",
"563 700 LINE",
"335 700 LINE",
"247 92 LINE",
"229 92 LINE",
"161 700 LINE",
"30 700 LINE",
"122 0 LINE"
);
}
);
width = 898;
},
{
anchors = (
{
name = top;
position = "{433, 700}";
}
);
background = {
anchors = (
{
name = top;
position = "{433, 700}";
}
);
paths = (
{
closed = 1;
nodes = (
"282 0 LINE",
"427 662 LINE",
"439 662 LINE",
"584 0 LINE",
"703 0 LINE",
"826 700 LINE",
"761 700 LINE",
"649 38 LINE",
"637 38 LINE",
"492 700 LINE",
"374 700 LINE",
"229 38 LINE",
"217 38 LINE",
"105 700 LINE",
"40 700 LINE",
"163 0 LINE"
);
}
);
};
layerId = "CEFBB1E5-951F-4065-926E-8B9137F837F5";
paths = (
{
closed = 1;
nodes = (
"282 0 LINE",
"427 662 LINE",
"439 662 LINE",
"584 0 LINE",
"703 0 LINE",
"826 700 LINE",
"761 700 LINE",
"649 38 LINE",
"637 38 LINE",
"492 700 LINE",
"374 700 LINE",
"229 38 LINE",
"217 38 LINE",
"105 700 LINE",
"40 700 LINE",
"163 0 LINE"
);
}
);
width = 866;
}
);
leftKerningGroup = W;
note = W;
rightKerningGroup = W;
unicode = 0057;
},
{
glyphname = X;
lastChange = "2020-08-10 18:12:01 +0000";
layers = (
{
background = {
paths = (
{
closed = 1;
nodes = (
"172 0 LINE",
"313 259 LINE",
"331 259 LINE",
"472 0 LINE",
"622 0 LINE",
"417 353 LINE",
"620 700 LINE",
"470 700 LINE",
"331 447 LINE",
"313 447 LINE",
"174 700 LINE",
"24 700 LINE",
"227 353 LINE",
"22 0 LINE"
);
}
);
};
layerId = "5117E3E8-E17C-4812-BAF5-9E7064564A59";
paths = (
{
closed = 1;
nodes = (
"172 0 LINE",
"313 259 LINE",
"331 259 LINE",
"472 0 LINE",
"622 0 LINE",
"417 353 LINE",
"620 700 LINE",
"470 700 LINE",
"331 447 LINE",
"313 447 LINE",
"174 700 LINE",
"24 700 LINE",
"227 353 LINE",
"22 0 LINE"
);
}
);
width = 644;
},
{
background = {
paths = (
{
closed = 1;
nodes = (
"113 0 LINE",
"311 309 LINE",
"323 309 LINE",
"522 0 LINE",
"599 0 LINE",
"365 353 LINE",
"595 700 LINE",
"518 700 LINE",
"323 397 LINE",
"311 397 LINE",
"117 700 LINE",
"40 700 LINE",
"270 353 LINE",
"36 0 LINE"
);
}
);
};
layerId = "CEFBB1E5-951F-4065-926E-8B9137F837F5";
paths = (
{
closed = 1;
nodes = (
"113 0 LINE",
"311 309 LINE",
"323 309 LINE",
"522 0 LINE",
"599 0 LINE",
"365 353 LINE",
"595 700 LINE",
"518 700 LINE",
"323 397 LINE",
"311 397 LINE",
"117 700 LINE",
"40 700 LINE",
"270 353 LINE",
"36 0 LINE"
);
}
);
width = 635;
}
);
leftKerningGroup = X;
note = X;
rightKerningGroup = X;
unicode = 0058;
},
{
glyphname = Y;
lastChange = "2020-08-10 18:12:01 +0000";
layers = (
{
anchors = (
{
name = bottom;
position = "{312, 0}";
},
{
name = top;
position = "{312, 700}";
}
);
background = {
anchors = (
{
name = bottom;
position = "{312, 0}";
},
{
name = top;
position = "{312, 700}";
}
);
paths = (
{
closed = 1;
nodes = (
"378 0 LINE",
"378 241 LINE",
"616 700 LINE",
"469 700 LINE",
"321 400 LINE",
"303 400 LINE",
"155 700 LINE",
"8 700 LINE",
"246 241 LINE",
"246 0 LINE"
);
}
);
};
layerId = "5117E3E8-E17C-4812-BAF5-9E7064564A59";
paths = (
{
closed = 1;
nodes = (
"378 0 LINE",
"378 241 LINE",
"616 700 LINE",
"469 700 LINE",
"321 400 LINE",
"303 400 LINE",
"155 700 LINE",
"8 700 LINE",
"246 241 LINE",
"246 0 LINE"
);
}
);
width = 624;
},
{
anchors = (
{
name = bottom;
position = "{302, 0}";
},
{
name = top;
position = "{302, 700}";
}
);
background = {
anchors = (
{
name = bottom;
position = "{302, 0}";
},
{
name = top;
position = "{302, 700}";
}
);
paths = (
{
closed = 1;
nodes = (
"334 0 LINE",
"334 277 LINE",
"588 700 LINE",
"512 700 LINE",
"308 350 LINE",
"296 350 LINE",
"92 700 LINE",
"16 700 LINE",
"270 277 LINE",
"270 0 LINE"
);
}
);
};
layerId = "CEFBB1E5-951F-4065-926E-8B9137F837F5";
paths = (
{
closed = 1;
nodes = (
"334 0 LINE",
"334 277 LINE",
"588 700 LINE",
"512 700 LINE",
"308 350 LINE",
"296 350 LINE",
"92 700 LINE",
"16 700 LINE",
"270 277 LINE",
"270 0 LINE"
);
}
);
width = 604;
}
);
leftKerningGroup = Y;
note = Y;
rightKerningGroup = Y;
unicode = 0059;
},
{
glyphname = Z;
lastChange = "2020-08-11 15:07:55 +0000";
layers = (
{
anchors = (
{
name = bottom;
position = "{289, 0}";
},
{
name = top;
position = "{293, 700}";
}
);
background = {
anchors = (
{
name = bottom;
position = "{289, 0}";
},
{
name = top;
position = "{293, 700}";
}
);
paths = (
{
closed = 1;
nodes = (
"532 0 LINE",
"532 118 LINE",
"184 118 LINE",
"184 134 LINE",
"530 532 LINE",
"530 700 LINE",
"56 700 LINE",
"56 582 LINE",
"392 582 LINE",
"392 566 LINE",
"46 168 LINE",
"46 0 LINE"
);
}
);
};
layerId = "5117E3E8-E17C-4812-BAF5-9E7064564A59";
paths = (
{
closed = 1;
nodes = (
"532 0 LINE",
"532 118 LINE",
"184 118 LINE",
"184 134 LINE",
"530 532 LINE",
"530 700 LINE",
"56 700 LINE",
"56 582 LINE",
"392 582 LINE",
"392 566 LINE",
"46 168 LINE",
"46 0 LINE"
);
}
);
width = 576;
},
{
anchors = (
{
name = bottom;
position = "{284, 0}";
},
{
name = top;
position = "{283, 700}";
}
);
background = {
anchors = (
{
name = bottom;
position = "{284, 0}";
},
{
name = top;
position = "{283, 700}";
}
);
paths = (
{
closed = 1;
nodes = (
"530 0 LINE",
"530 58 LINE",
"112 58 LINE",
"112 68 LINE",
"520 612 LINE",
"520 700 LINE",
"64 700 LINE",
"64 642 LINE",
"460 642 LINE",
"460 632 LINE",
"52 88 LINE",
"52 0 LINE"
);
}
);
};
layerId = "CEFBB1E5-951F-4065-926E-8B9137F837F5";
paths = (
{
closed = 1;
nodes = (
"530 0 LINE",
"530 58 LINE",
"112 58 LINE",
"112 68 LINE",
"520 612 LINE",
"520 700 LINE",
"64 700 LINE",
"64 642 LINE",
"460 642 LINE",
"460 632 LINE",
"52 88 LINE",
"52 0 LINE"
);
}
);
width = 578;
}
);
leftKerningGroup = Z;
note = Z;
rightKerningGroup = Z;
unicode = 005A;
},
{
glyphname = a;
lastChange = "2020-09-18 16:01:24 +0000";
layers = (
{
anchors = (
{
name = bottom;
position = "{276, 0}";
},
{
name = ogonek;
position = "{468, 0}";
},
{
name = top;
position = "{281, 496}";
}
);
background = {
anchors = (
{
name = bottom;
position = "{276, 0}";
},
{
name = ogonek;
position = "{468, 0}";
},
{
name = top;
position = "{281, 496}";
}
);
paths = (
{
closed = 1;
nodes = (
"328 -14 OFFCURVE",
"359 42 OFFCURVE",
"368 67 CURVE",
"488 67 LINE",
"488 319 LINE SMOOTH",
"488 443 OFFCURVE",
"406 510 OFFCURVE",
"276 510 CURVE SMOOTH",
"147 510 OFFCURVE",
"82 445 OFFCURVE",
"58 370 CURVE",
"174 331 LINE",
"183 376 OFFCURVE",
"211 408 OFFCURVE",
"274 408 CURVE SMOOTH",
"338 408 OFFCURVE",
"366 374 OFFCURVE",
"366 328 CURVE SMOOTH",
"366 300 LINE",
"230 300 LINE SMOOTH",
"118 300 OFFCURVE",
"38 247 OFFCURVE",
"38 145 CURVE SMOOTH",
"38 43 OFFCURVE",
"118 -14 OFFCURVE",
"224 -14 CURVE SMOOTH"
);
},
{
closed = 1;
nodes = (
"192 88 OFFCURVE",
"164 113 OFFCURVE",
"164 149 CURVE SMOOTH",
"164 185 OFFCURVE",
"192 206 OFFCURVE",
"239 206 CURVE SMOOTH",
"366 206 LINE",
"366 196 LINE SMOOTH",
"366 130 OFFCURVE",
"316 88 OFFCURVE",
"246 88 CURVE SMOOTH"
);
},
{
closed = 1;
nodes = (
"556 0 LINE",
"556 104 LINE",
"516 104 LINE SMOOTH",
"498 104 OFFCURVE",
"488 114 OFFCURVE",
"488 134 CURVE SMOOTH",
"488 162 LINE",
"384 162 LINE",
"384 92 LINE SMOOTH",
"384 36 OFFCURVE",
"418 0 OFFCURVE",
"472 0 CURVE SMOOTH"
);
}
);
};
layerId = "5117E3E8-E17C-4812-BAF5-9E7064564A59";
paths = (
{
closed = 1;
nodes = (
"328 -14 OFFCURVE",
"359 42 OFFCURVE",
"368 67 CURVE",
"387 67 LINE",
"387 66 LINE SMOOTH",
"387 26 OFFCURVE",
"423 0 OFFCURVE",
"472 0 CURVE SMOOTH",
"556 0 LINE",
"556 104 LINE",
"516 104 LINE SMOOTH",
"498 104 OFFCURVE",
"488 114 OFFCURVE",
"488 134 CURVE SMOOTH",
"488 319 LINE SMOOTH",
"488 443 OFFCURVE",
"406 510 OFFCURVE",
"276 510 CURVE SMOOTH",
"147 510 OFFCURVE",
"82 445 OFFCURVE",
"58 370 CURVE",
"174 331 LINE",
"183 376 OFFCURVE",
"211 408 OFFCURVE",
"274 408 CURVE SMOOTH",
"338 408 OFFCURVE",
"366 374 OFFCURVE",
"366 328 CURVE SMOOTH",
"366 300 LINE",
"230 300 LINE SMOOTH",
"118 300 OFFCURVE",
"38 247 OFFCURVE",
"38 145 CURVE SMOOTH",
"38 43 OFFCURVE",
"118 -14 OFFCURVE",
"224 -14 CURVE SMOOTH"
);
},
{
closed = 1;
nodes = (
"192 88 OFFCURVE",
"164 113 OFFCURVE",
"164 149 CURVE SMOOTH",
"164 185 OFFCURVE",
"192 206 OFFCURVE",
"239 206 CURVE SMOOTH",
"366 206 LINE",
"366 196 LINE SMOOTH",
"366 130 OFFCURVE",
"316 88 OFFCURVE",
"246 88 CURVE SMOOTH"
);
}
);
width = 578;
},
{
anchors = (
{
name = bottom;
position = "{287, 0}";
},
{
name = ogonek;
position = "{475, 0}";
},
{
name = top;
position = "{282, 486}";
}
);
background = {
anchors = (
{
name = bottom;
position = "{287, 0}";
},
{
name = ogonek;
position = "{475, 0}";
},
{
name = top;
position = "{282, 486}";
}
);
paths = (
{
closed = 1;
nodes = (
"337 -14 OFFCURVE",
"381 31 OFFCURVE",
"407 76 CURVE",
"473 78 LINE",
"473 318 LINE SMOOTH",
"473 432 OFFCURVE",
"402 500 OFFCURVE",
"280 500 CURVE SMOOTH",
"159 500 OFFCURVE",
"93 432 OFFCURVE",
"70 347 CURVE",
"128 330 LINE",
"145 400 OFFCURVE",
"194 446 OFFCURVE",
"280 446 CURVE SMOOTH",
"367 446 OFFCURVE",
"413 399 OFFCURVE",
"413 321 CURVE SMOOTH",
"413 282 LINE",
"235 282 LINE SMOOTH",
"134 282 OFFCURVE",
"55 234 OFFCURVE",
"55 137 CURVE SMOOTH",
"55 40 OFFCURVE",
"134 -14 OFFCURVE",
"237 -14 CURVE SMOOTH"
);
},
{
closed = 1;
nodes = (
"167 40 OFFCURVE",
"115 75 OFFCURVE",
"115 138 CURVE SMOOTH",
"115 200 OFFCURVE",
"167 230 OFFCURVE",
"236 230 CURVE SMOOTH",
"413 230 LINE",
"413 218 LINE SMOOTH",
"413 105 OFFCURVE",
"344 40 OFFCURVE",
"241 40 CURVE SMOOTH"
);
},
{
closed = 1;
nodes = (
"548 0 LINE",
"548 52 LINE",
"501 52 LINE SMOOTH",
"483 52 OFFCURVE",
"473 62 OFFCURVE",
"473 82 CURVE SMOOTH",
"473 98 LINE",
"417 96 LINE",
"417 69 LINE SMOOTH",
"417 26 OFFCURVE",
"443 0 OFFCURVE",
"484 0 CURVE SMOOTH"
);
}
);
};
layerId = "CEFBB1E5-951F-4065-926E-8B9137F837F5";
paths = (
{
closed = 1;
nodes = (
"337 -14 OFFCURVE",
"381 31 OFFCURVE",
"407 76 CURVE",
"417 76 LINE",
"417 69 LINE SMOOTH",
"417 26 OFFCURVE",
"443 0 OFFCURVE",
"484 0 CURVE SMOOTH",
"548 0 LINE",
"548 52 LINE",
"501 52 LINE SMOOTH",
"483 52 OFFCURVE",
"473 62 OFFCURVE",
"473 82 CURVE SMOOTH",
"473 318 LINE SMOOTH",
"473 432 OFFCURVE",
"402 500 OFFCURVE",
"280 500 CURVE SMOOTH",
"159 500 OFFCURVE",
"93 432 OFFCURVE",
"70 347 CURVE",
"128 330 LINE",
"145 400 OFFCURVE",
"194 446 OFFCURVE",
"280 446 CURVE SMOOTH",
"367 446 OFFCURVE",
"413 399 OFFCURVE",
"413 321 CURVE SMOOTH",
"413 282 LINE",
"235 282 LINE SMOOTH",
"134 282 OFFCURVE",
"55 234 OFFCURVE",
"55 137 CURVE SMOOTH",
"55 40 OFFCURVE",
"134 -14 OFFCURVE",
"237 -14 CURVE SMOOTH"
);
},
{
closed = 1;
nodes = (
"167 40 OFFCURVE",
"115 75 OFFCURVE",
"115 138 CURVE SMOOTH",
"115 200 OFFCURVE",
"167 230 OFFCURVE",
"236 230 CURVE SMOOTH",
"413 230 LINE",
"413 218 LINE SMOOTH",
"413 105 OFFCURVE",
"344 40 OFFCURVE",
"241 40 CURVE SMOOTH"
);
}
);
width = 574;
}
);
leftKerningGroup = a;
note = a.alt;
rightKerningGroup = a;
unicode = 0061;
},
{
glyphname = b;
lastChange = "2020-08-10 18:12:01 +0000";
layers = (
{
anchors = (
{
name = strokeA;
position = "{70, 496}";
}
);
background = {
anchors = (
{
name = strokeA;
position = "{70, 496}";
}
);
paths = (
{
closed = 1;
nodes = (
"487 -14 OFFCURVE",
"592 78 OFFCURVE",
"592 240 CURVE SMOOTH",
"592 256 LINE SMOOTH",
"592 418 OFFCURVE",
"488 510 OFFCURVE",
"368 510 CURVE SMOOTH",
"278 510 OFFCURVE",
"235 474 OFFCURVE",
"214 439 CURVE",
"196 439 LINE",
"196 700 LINE",
"70 700 LINE",
"70 0 LINE",
"194 0 LINE",
"194 60 LINE",
"212 60 LINE",
"235 22 OFFCURVE",
"278 -14 OFFCURVE",
"368 -14 CURVE SMOOTH"
);
},
{
closed = 1;
nodes = (
"253 96 OFFCURVE",
"194 147 OFFCURVE",
"194 243 CURVE SMOOTH",
"194 253 LINE SMOOTH",
"194 349 OFFCURVE",
"252 400 OFFCURVE",
"330 400 CURVE SMOOTH",
"408 400 OFFCURVE",
"466 349 OFFCURVE",
"466 253 CURVE SMOOTH",
"466 243 LINE SMOOTH",
"466 147 OFFCURVE",
"407 96 OFFCURVE",
"330 96 CURVE SMOOTH"
);
}
);
};
layerId = "5117E3E8-E17C-4812-BAF5-9E7064564A59";
paths = (
{
closed = 1;
nodes = (
"487 -14 OFFCURVE",
"592 78 OFFCURVE",
"592 240 CURVE SMOOTH",
"592 256 LINE SMOOTH",
"592 418 OFFCURVE",
"488 510 OFFCURVE",
"368 510 CURVE SMOOTH",
"278 510 OFFCURVE",
"235 474 OFFCURVE",
"214 439 CURVE",
"196 439 LINE",
"196 700 LINE",
"70 700 LINE",
"70 0 LINE",
"194 0 LINE",
"194 60 LINE",
"212 60 LINE",
"235 22 OFFCURVE",
"278 -14 OFFCURVE",
"368 -14 CURVE SMOOTH"
);
},
{
closed = 1;
nodes = (
"253 96 OFFCURVE",
"194 147 OFFCURVE",
"194 243 CURVE SMOOTH",
"194 253 LINE SMOOTH",
"194 349 OFFCURVE",
"252 400 OFFCURVE",
"330 400 CURVE SMOOTH",
"408 400 OFFCURVE",
"466 349 OFFCURVE",
"466 253 CURVE SMOOTH",
"466 243 LINE SMOOTH",
"466 147 OFFCURVE",
"407 96 OFFCURVE",
"330 96 CURVE SMOOTH"
);
}
);
width = 638;
},
{
anchors = (
{
name = strokeA;
position = "{88, 486}";
}
);
background = {
anchors = (
{
name = strokeA;
position = "{88, 486}";
}
);
paths = (
{
closed = 1;
nodes = (
"478 -14 OFFCURVE",
"582 82 OFFCURVE",
"582 237 CURVE SMOOTH",
"582 249 LINE SMOOTH",
"582 403 OFFCURVE",
"479 500 OFFCURVE",
"348 500 CURVE SMOOTH",
"241 500 OFFCURVE",
"186 450 OFFCURVE",
"160 401 CURVE",
"148 401 LINE",
"148 700 LINE",
"88 700 LINE",
"88 0 LINE",
"146 0 LINE",
"146 89 LINE",
"158 89 LINE",
"186 36 OFFCURVE",
"241 -14 OFFCURVE",
"348 -14 CURVE SMOOTH"
);
},
{
closed = 1;
nodes = (
"224 40 OFFCURVE",
"148 115 OFFCURVE",
"148 239 CURVE SMOOTH",
"148 247 LINE SMOOTH",
"148 371 OFFCURVE",
"224 446 OFFCURVE",
"334 446 CURVE SMOOTH",
"444 446 OFFCURVE",
"520 371 OFFCURVE",
"520 247 CURVE SMOOTH",
"520 239 LINE SMOOTH",
"520 115 OFFCURVE",
"444 40 OFFCURVE",
"334 40 CURVE SMOOTH"
);
}
);
};
layerId = "CEFBB1E5-951F-4065-926E-8B9137F837F5";
paths = (
{
closed = 1;
nodes = (
"478 -14 OFFCURVE",
"582 82 OFFCURVE",
"582 237 CURVE SMOOTH",
"582 249 LINE SMOOTH",
"582 403 OFFCURVE",
"479 500 OFFCURVE",
"348 500 CURVE SMOOTH",
"241 500 OFFCURVE",
"186 450 OFFCURVE",
"160 401 CURVE",
"148 401 LINE",
"148 700 LINE",
"88 700 LINE",
"88 0 LINE",
"146 0 LINE",
"146 89 LINE",
"158 89 LINE",
"186 36 OFFCURVE",
"241 -14 OFFCURVE",
"348 -14 CURVE SMOOTH"
);
},
{
closed = 1;
nodes = (
"224 40 OFFCURVE",
"148 115 OFFCURVE",
"148 239 CURVE SMOOTH",
"148 247 LINE SMOOTH",
"148 371 OFFCURVE",
"224 446 OFFCURVE",
"334 446 CURVE SMOOTH",
"444 446 OFFCURVE",
"520 371 OFFCURVE",
"520 247 CURVE SMOOTH",
"520 239 LINE SMOOTH",
"520 115 OFFCURVE",
"444 40 OFFCURVE",
"334 40 CURVE SMOOTH"
);
}
);
width = 646;
}
);
leftKerningGroup = l;
leftMetricsKey = l;
note = b;
rightKerningGroup = o;
rightMetricsKey = o;
unicode = 0062;
},
{
glyphname = c;
lastChange = "2020-08-10 18:12:01 +0000";
layers = (
{
anchors = (
{
name = bottom;
position = "{303, 0}";
},
{
name = top;
position = "{303, 496}";
}
);
background = {
anchors = (
{
name = bottom;
position = "{303, 0}";
},
{
name = top;
position = "{303, 496}";
}
);
paths = (
{
closed = 1;
nodes = (
"445 -14 OFFCURVE",
"526 69 OFFCURVE",
"552 176 CURVE",
"430 205 LINE",
"419 141 OFFCURVE",
"382 98 OFFCURVE",
"306 98 CURVE SMOOTH",
"230 98 OFFCURVE",
"172 149 OFFCURVE",
"172 243 CURVE SMOOTH",
"172 253 LINE SMOOTH",
"172 347 OFFCURVE",
"230 398 OFFCURVE",
"306 398 CURVE SMOOTH",
"382 398 OFFCURVE",
"419 352 OFFCURVE",
"427 292 CURVE",
"549 318 LINE",
"528 428 OFFCURVE",
"445 510 OFFCURVE",
"303 510 CURVE SMOOTH",
"159 510 OFFCURVE",
"46 417 OFFCURVE",
"46 255 CURVE SMOOTH",
"46 241 LINE SMOOTH",
"46 79 OFFCURVE",
"159 -14 OFFCURVE",
"303 -14 CURVE SMOOTH"
);
}
);
};
layerId = "5117E3E8-E17C-4812-BAF5-9E7064564A59";
rightMetricsKey = "=o-12";
paths = (
{
closed = 1;
nodes = (
"445 -14 OFFCURVE",
"526 69 OFFCURVE",
"552 176 CURVE",
"430 205 LINE",
"419 141 OFFCURVE",
"382 98 OFFCURVE",
"306 98 CURVE SMOOTH",
"230 98 OFFCURVE",
"172 149 OFFCURVE",
"172 243 CURVE SMOOTH",
"172 253 LINE SMOOTH",
"172 347 OFFCURVE",
"230 398 OFFCURVE",
"306 398 CURVE SMOOTH",
"382 398 OFFCURVE",
"419 352 OFFCURVE",
"427 292 CURVE",
"549 318 LINE",
"528 428 OFFCURVE",
"445 510 OFFCURVE",
"303 510 CURVE SMOOTH",
"159 510 OFFCURVE",
"46 417 OFFCURVE",
"46 255 CURVE SMOOTH",
"46 241 LINE SMOOTH",
"46 79 OFFCURVE",
"159 -14 OFFCURVE",
"303 -14 CURVE SMOOTH"
);
}
);
width = 586;
},
{
anchors = (
{
name = bottom;
position = "{310, 0}";
},
{
name = top;
position = "{310, 486}";
}
);
background = {
anchors = (
{
name = bottom;
position = "{310, 0}";
},
{
name = top;
position = "{310, 486}";
}
);
paths = (
{
closed = 1;
nodes = (
"450 -14 OFFCURVE",
"525 76 OFFCURVE",
"543 171 CURVE",
"484 183 LINE",
"471 103 OFFCURVE",
"416 40 OFFCURVE",
"310 40 CURVE SMOOTH",
"204 40 OFFCURVE",
"124 117 OFFCURVE",
"124 239 CURVE SMOOTH",
"124 247 LINE SMOOTH",
"124 369 OFFCURVE",
"204 446 OFFCURVE",
"310 446 CURVE SMOOTH",
"416 446 OFFCURVE",
"470 380 OFFCURVE",
"480 303 CURVE",
"539 315 LINE",
"525 409 OFFCURVE",
"450 500 OFFCURVE",
"310 500 CURVE SMOOTH",
"168 500 OFFCURVE",
"64 403 OFFCURVE",
"64 248 CURVE SMOOTH",
"64 238 LINE SMOOTH",
"64 83 OFFCURVE",
"168 -14 OFFCURVE",
"310 -14 CURVE SMOOTH"
);
}
);
};
layerId = "CEFBB1E5-951F-4065-926E-8B9137F837F5";
paths = (
{
closed = 1;
nodes = (
"450 -14 OFFCURVE",
"525 76 OFFCURVE",
"543 171 CURVE",
"484 183 LINE",
"471 103 OFFCURVE",
"416 40 OFFCURVE",
"310 40 CURVE SMOOTH",
"204 40 OFFCURVE",
"124 117 OFFCURVE",
"124 239 CURVE SMOOTH",
"124 247 LINE SMOOTH",
"124 369 OFFCURVE",
"204 446 OFFCURVE",
"310 446 CURVE SMOOTH",
"416 446 OFFCURVE",
"470 380 OFFCURVE",
"480 303 CURVE",
"539 315 LINE",
"525 409 OFFCURVE",
"450 500 OFFCURVE",
"310 500 CURVE SMOOTH",
"168 500 OFFCURVE",
"64 403 OFFCURVE",
"64 248 CURVE SMOOTH",
"64 238 LINE SMOOTH",
"64 83 OFFCURVE",
"168 -14 OFFCURVE",
"310 -14 CURVE SMOOTH"
);
}
);
width = 603;
}
);
leftKerningGroup = o;
leftMetricsKey = o;
note = c;
rightKerningGroup = o;
rightMetricsKey = "=o-4";
unicode = 0063;
},
{
glyphname = d;
lastChange = "2020-08-10 18:12:01 +0000";
layers = (
{
anchors = (
{
name = bottom;
position = "{324, 0}";
},
{
name = sidecaron;
position = "{568, 700}";
},
{
name = strokeB;
position = "{568, 496}";
}
);
background = {
anchors = (
{
name = bottom;
position = "{324, 0}";
},
{
name = sidecaron;
position = "{568, 700}";
},
{
name = strokeB;
position = "{568, 496}";
}
);
paths = (
{
closed = 1;
nodes = (
"360 -14 OFFCURVE",
"403 22 OFFCURVE",
"426 60 CURVE",
"444 60 LINE",
"444 0 LINE",
"568 0 LINE",
"568 700 LINE",
"442 700 LINE",
"442 439 LINE",
"424 439 LINE",
"403 474 OFFCURVE",
"360 510 OFFCURVE",
"270 510 CURVE SMOOTH",
"150 510 OFFCURVE",
"46 418 OFFCURVE",
"46 256 CURVE SMOOTH",
"46 240 LINE SMOOTH",
"46 78 OFFCURVE",
"151 -14 OFFCURVE",
"270 -14 CURVE SMOOTH"
);
},
{
closed = 1;
nodes = (
"231 96 OFFCURVE",
"172 147 OFFCURVE",
"172 243 CURVE SMOOTH",
"172 253 LINE SMOOTH",
"172 349 OFFCURVE",
"230 400 OFFCURVE",
"308 400 CURVE SMOOTH",
"386 400 OFFCURVE",
"444 349 OFFCURVE",
"444 253 CURVE SMOOTH",
"444 243 LINE SMOOTH",
"444 147 OFFCURVE",
"385 96 OFFCURVE",
"308 96 CURVE SMOOTH"
);
}
);
};
layerId = "5117E3E8-E17C-4812-BAF5-9E7064564A59";
paths = (
{
closed = 1;
nodes = (
"360 -14 OFFCURVE",
"403 22 OFFCURVE",
"426 60 CURVE",
"444 60 LINE",
"444 0 LINE",
"568 0 LINE",
"568 700 LINE",
"442 700 LINE",
"442 439 LINE",
"424 439 LINE",
"403 474 OFFCURVE",
"360 510 OFFCURVE",
"270 510 CURVE SMOOTH",
"150 510 OFFCURVE",
"46 418 OFFCURVE",
"46 256 CURVE SMOOTH",
"46 240 LINE SMOOTH",
"46 78 OFFCURVE",
"151 -14 OFFCURVE",
"270 -14 CURVE SMOOTH"
);
},
{
closed = 1;
nodes = (
"231 96 OFFCURVE",
"172 147 OFFCURVE",
"172 243 CURVE SMOOTH",
"172 253 LINE SMOOTH",
"172 349 OFFCURVE",
"230 400 OFFCURVE",
"308 400 CURVE SMOOTH",
"386 400 OFFCURVE",
"444 349 OFFCURVE",
"444 253 CURVE SMOOTH",
"444 243 LINE SMOOTH",
"444 147 OFFCURVE",
"385 96 OFFCURVE",
"308 96 CURVE SMOOTH"
);
}
);
width = 638;
},
{
anchors = (
{
name = bottom;
position = "{316, 0}";
},
{
name = sidecaron;
position = "{558, 700}";
},
{
name = strokeB;
position = "{558, 486}";
}
);
background = {
anchors = (
{
name = bottom;
position = "{316, 0}";
},
{
name = sidecaron;
position = "{558, 700}";
},
{
name = strokeB;
position = "{558, 486}";
}
);
paths = (
{
closed = 1;
nodes = (
"405 -14 OFFCURVE",
"460 36 OFFCURVE",
"488 89 CURVE",
"500 89 LINE",
"500 0 LINE",
"558 0 LINE",
"558 700 LINE",
"498 700 LINE",
"498 401 LINE",
"486 401 LINE",
"460 450 OFFCURVE",
"405 500 OFFCURVE",
"298 500 CURVE SMOOTH",
"167 500 OFFCURVE",
"64 403 OFFCURVE",
"64 249 CURVE SMOOTH",
"64 237 LINE SMOOTH",
"64 82 OFFCURVE",
"168 -14 OFFCURVE",
"298 -14 CURVE SMOOTH"
);
},
{
closed = 1;
nodes = (
"202 40 OFFCURVE",
"126 115 OFFCURVE",
"126 239 CURVE SMOOTH",
"126 247 LINE SMOOTH",
"126 371 OFFCURVE",
"202 446 OFFCURVE",
"312 446 CURVE SMOOTH",
"422 446 OFFCURVE",
"498 371 OFFCURVE",
"498 247 CURVE SMOOTH",
"498 239 LINE SMOOTH",
"498 115 OFFCURVE",
"422 40 OFFCURVE",
"312 40 CURVE SMOOTH"
);
}
);
};
layerId = "CEFBB1E5-951F-4065-926E-8B9137F837F5";
paths = (
{
closed = 1;
nodes = (
"405 -14 OFFCURVE",
"460 36 OFFCURVE",
"488 89 CURVE",
"500 89 LINE",
"500 0 LINE",
"558 0 LINE",
"558 700 LINE",
"498 700 LINE",
"498 401 LINE",
"486 401 LINE",
"460 450 OFFCURVE",
"405 500 OFFCURVE",
"298 500 CURVE SMOOTH",
"167 500 OFFCURVE",
"64 403 OFFCURVE",
"64 249 CURVE SMOOTH",
"64 237 LINE SMOOTH",
"64 82 OFFCURVE",
"168 -14 OFFCURVE",
"298 -14 CURVE SMOOTH"
);
},
{
closed = 1;
nodes = (
"202 40 OFFCURVE",
"126 115 OFFCURVE",
"126 239 CURVE SMOOTH",
"126 247 LINE SMOOTH",
"126 371 OFFCURVE",
"202 446 OFFCURVE",
"312 446 CURVE SMOOTH",
"422 446 OFFCURVE",
"498 371 OFFCURVE",
"498 247 CURVE SMOOTH",
"498 239 LINE SMOOTH",
"498 115 OFFCURVE",
"422 40 OFFCURVE",
"312 40 CURVE SMOOTH"
);
}
);
width = 646;
}
);
leftKerningGroup = o;
leftMetricsKey = o;
note = d;
rightKerningGroup = l;
rightMetricsKey = l;
unicode = 0064;
},
{
glyphname = e;
lastChange = "2020-08-10 18:12:01 +0000";
layers = (
{
anchors = (
{
name = bottom;
position = "{296, 0}";
},
{
name = ogonek;
position = "{384, 0}";
},
{
name = top;
position = "{294, 496}";
}
);
background = {
anchors = (
{
name = bottom;
position = "{296, 0}";
},
{
name = ogonek;
position = "{384, 0}";
},
{
name = top;
position = "{294, 496}";
}
);
paths = (
{
closed = 1;
nodes = (
"432 -14 OFFCURVE",
"491 63 OFFCURVE",
"519 116 CURVE",
"416 170 LINE",
"399 132 OFFCURVE",
"370 96 OFFCURVE",
"300 96 CURVE SMOOTH",
"230 96 OFFCURVE",
"177 143 OFFCURVE",
"174 211 CURVE",
"535 211 LINE",
"535 254 LINE SMOOTH",
"535 406 OFFCURVE",
"440 510 OFFCURVE",
"294 510 CURVE SMOOTH",
"146 510 OFFCURVE",
"46 410 OFFCURVE",
"46 254 CURVE SMOOTH",
"46 242 LINE SMOOTH",
"46 86 OFFCURVE",
"147 -14 OFFCURVE",
"296 -14 CURVE SMOOTH"
);
},
{
closed = 1;
nodes = (
"184 362 OFFCURVE",
"225 400 OFFCURVE",
"293 400 CURVE SMOOTH",
"358 400 OFFCURVE",
"401 362 OFFCURVE",
"407 305 CURVE",
"175 305 LINE"
);
}
);
};
layerId = "5117E3E8-E17C-4812-BAF5-9E7064564A59";
paths = (
{
closed = 1;
nodes = (
"432 -14 OFFCURVE",
"491 63 OFFCURVE",
"519 116 CURVE",
"416 170 LINE",
"399 132 OFFCURVE",
"370 96 OFFCURVE",
"300 96 CURVE SMOOTH",
"230 96 OFFCURVE",
"177 143 OFFCURVE",
"174 211 CURVE",
"535 211 LINE",
"535 254 LINE SMOOTH",
"535 406 OFFCURVE",
"440 510 OFFCURVE",
"294 510 CURVE SMOOTH",
"146 510 OFFCURVE",
"46 410 OFFCURVE",
"46 254 CURVE SMOOTH",
"46 242 LINE SMOOTH",
"46 86 OFFCURVE",
"147 -14 OFFCURVE",
"296 -14 CURVE SMOOTH"
);
},
{
closed = 1;
nodes = (
"184 362 OFFCURVE",
"225 400 OFFCURVE",
"293 400 CURVE SMOOTH",
"358 400 OFFCURVE",
"401 362 OFFCURVE",
"407 305 CURVE",
"175 305 LINE"
);
}
);
width = 577;
},
{
anchors = (
{
name = bottom;
position = "{312, 0}";
},
{
name = ogonek;
position = "{371, 0}";
},
{
name = top;
position = "{305, 486}";
}
);
background = {
anchors = (
{
name = bottom;
position = "{312, 0}";
},
{
name = ogonek;
position = "{371, 0}";
},
{
name = top;
position = "{305, 486}";
}
);
paths = (
{
closed = 1;
nodes = (
"441 -14 OFFCURVE",
"498 57 OFFCURVE",
"529 123 CURVE",
"475 147 LINE",
"448 87 OFFCURVE",
"403 40 OFFCURVE",
"312 40 CURVE SMOOTH",
"205 40 OFFCURVE",
"128 109 OFFCURVE",
"124 230 CURVE",
"538 230 LINE",
"538 262 LINE SMOOTH",
"538 410 OFFCURVE",
"441 500 OFFCURVE",
"305 500 CURVE SMOOTH",
"165 500 OFFCURVE",
"64 398 OFFCURVE",
"64 249 CURVE SMOOTH",
"64 237 LINE SMOOTH",
"64 88 OFFCURVE",
"162 -14 OFFCURVE",
"312 -14 CURVE SMOOTH"
);
},
{
closed = 1;
nodes = (
"139 387 OFFCURVE",
"208 446 OFFCURVE",
"305 446 CURVE SMOOTH",
"403 446 OFFCURVE",
"472 387 OFFCURVE",
"477 282 CURVE",
"125 282 LINE"
);
}
);
};
layerId = "CEFBB1E5-951F-4065-926E-8B9137F837F5";
paths = (
{
closed = 1;
nodes = (
"441 -14 OFFCURVE",
"498 57 OFFCURVE",
"529 123 CURVE",
"475 147 LINE",
"448 87 OFFCURVE",
"403 40 OFFCURVE",
"312 40 CURVE SMOOTH",
"205 40 OFFCURVE",
"128 109 OFFCURVE",
"124 230 CURVE",
"538 230 LINE",
"538 262 LINE SMOOTH",
"538 410 OFFCURVE",
"441 500 OFFCURVE",
"305 500 CURVE SMOOTH",
"165 500 OFFCURVE",
"64 398 OFFCURVE",
"64 249 CURVE SMOOTH",
"64 237 LINE SMOOTH",
"64 88 OFFCURVE",
"162 -14 OFFCURVE",
"312 -14 CURVE SMOOTH"
);
},
{
closed = 1;
nodes = (
"139 387 OFFCURVE",
"208 446 OFFCURVE",
"305 446 CURVE SMOOTH",
"403 446 OFFCURVE",
"472 387 OFFCURVE",
"477 282 CURVE",
"125 282 LINE"
);
}
);
width = 598;
}
);
leftKerningGroup = o;
leftMetricsKey = o;
note = e;
rightKerningGroup = o;
rightMetricsKey = "=o-4";
unicode = 0065;
},
{
glyphname = f;
lastChange = "2020-08-11 15:51:37 +0000";
layers = (
{
background = {
paths = (
{
closed = 1;
nodes = (
"278 0 LINE",
"278 392 LINE",
"408 392 LINE",
"408 496 LINE",
"278 496 LINE",
"278 566 LINE SMOOTH",
"278 586 OFFCURVE",
"288 596 OFFCURVE",
"306 596 CURVE SMOOTH",
"392 596 LINE",
"392 700 LINE",
"262 700 LINE SMOOTH",
"196 700 OFFCURVE",
"152 656 OFFCURVE",
"152 588 CURVE SMOOTH",
"152 496 LINE",
"26 496 LINE",
"26 392 LINE",
"152 392 LINE",
"152 0 LINE"
);
}
);
};
layerId = "5117E3E8-E17C-4812-BAF5-9E7064564A59";
paths = (
{
closed = 1;
nodes = (
"278 0 LINE",
"278 392 LINE",
"408 392 LINE",
"408 496 LINE",
"278 496 LINE",
"278 566 LINE SMOOTH",
"278 586 OFFCURVE",
"288 596 OFFCURVE",
"306 596 CURVE SMOOTH",
"392 596 LINE",
"392 700 LINE",
"262 700 LINE SMOOTH",
"196 700 OFFCURVE",
"152 656 OFFCURVE",
"152 588 CURVE SMOOTH",
"152 496 LINE",
"26 496 LINE",
"26 392 LINE",
"152 392 LINE",
"152 0 LINE"
);
}
);
width = 436;
},
{
background = {
paths = (
{
closed = 1;
nodes = (
"250 0 LINE",
"250 432 LINE",
"414 432 LINE",
"414 486 LINE",
"250 486 LINE",
"250 616 LINE SMOOTH",
"250 636 OFFCURVE",
"258 646 OFFCURVE",
"280 646 CURVE SMOOTH",
"388 646 LINE",
"388 700 LINE",
"268 700 LINE SMOOTH",
"216 700 OFFCURVE",
"190 672 OFFCURVE",
"190 624 CURVE SMOOTH",
"190 486 LINE",
"30 486 LINE",
"30 432 LINE",
"190 432 LINE",
"190 0 LINE"
);
}
);
};
layerId = "CEFBB1E5-951F-4065-926E-8B9137F837F5";
paths = (
{
closed = 1;
nodes = (
"250 0 LINE",
"250 432 LINE",
"414 432 LINE",
"414 486 LINE",
"250 486 LINE",
"250 616 LINE SMOOTH",
"250 636 OFFCURVE",
"258 646 OFFCURVE",
"280 646 CURVE SMOOTH",
"388 646 LINE",
"388 700 LINE",
"268 700 LINE SMOOTH",
"216 700 OFFCURVE",
"190 672 OFFCURVE",
"190 624 CURVE SMOOTH",
"190 486 LINE",
"30 486 LINE",
"30 432 LINE",
"190 432 LINE",
"190 0 LINE"
);
}
);
width = 444;
}
);
leftKerningGroup = t;
note = f;
rightKerningGroup = f;
unicode = 0066;
},
{
glyphname = g;
lastChange = "2020-08-10 18:12:01 +0000";
layers = (
{
anchors = (
{
name = top;
position = "{328, 496}";
}
);
background = {
anchors = (
{
name = top;
position = "{328, 496}";
}
);
paths = (
{
closed = 1;
nodes = (
"46 90 OFFCURVE",
"150 -2 OFFCURVE",
"272 -2 CURVE SMOOTH",
"363 -2 OFFCURVE",
"404 36 OFFCURVE",
"424 69 CURVE",
"442 69 LINE",
"442 -60 LINE SMOOTH",
"442 -80 OFFCURVE",
"432 -90 OFFCURVE",
"414 -90 CURVE SMOOTH",
"126 -90 LINE",
"126 -200 LINE",
"458 -200 LINE SMOOTH",
"524 -200 OFFCURVE",
"568 -156 OFFCURVE",
"568 -88 CURVE SMOOTH",
"568 496 LINE",
"444 496 LINE",
"444 436 LINE",
"426 436 LINE",
"404 470 OFFCURVE",
"362 510 OFFCURVE",
"272 510 CURVE SMOOTH",
"149 510 OFFCURVE",
"46 418 OFFCURVE",
"46 262 CURVE SMOOTH",
"46 246 LINE SMOOTH"
);
},
{
closed = 1;
nodes = (
"231 108 OFFCURVE",
"172 159 OFFCURVE",
"172 249 CURVE SMOOTH",
"172 259 LINE SMOOTH",
"172 349 OFFCURVE",
"230 400 OFFCURVE",
"308 400 CURVE SMOOTH",
"386 400 OFFCURVE",
"444 349 OFFCURVE",
"444 259 CURVE SMOOTH",
"444 249 LINE SMOOTH",
"444 159 OFFCURVE",
"385 108 OFFCURVE",
"308 108 CURVE SMOOTH"
);
}
);
};
layerId = "5117E3E8-E17C-4812-BAF5-9E7064564A59";
paths = (
{
closed = 1;
nodes = (
"46 90 OFFCURVE",
"150 -2 OFFCURVE",
"272 -2 CURVE SMOOTH",
"363 -2 OFFCURVE",
"404 36 OFFCURVE",
"424 69 CURVE",
"442 69 LINE",
"442 -60 LINE SMOOTH",
"442 -80 OFFCURVE",
"432 -90 OFFCURVE",
"414 -90 CURVE SMOOTH",
"126 -90 LINE",
"126 -200 LINE",
"458 -200 LINE SMOOTH",
"524 -200 OFFCURVE",
"568 -156 OFFCURVE",
"568 -88 CURVE SMOOTH",
"568 496 LINE",
"444 496 LINE",
"444 436 LINE",
"426 436 LINE",
"404 470 OFFCURVE",
"362 510 OFFCURVE",
"272 510 CURVE SMOOTH",
"149 510 OFFCURVE",
"46 418 OFFCURVE",
"46 262 CURVE SMOOTH",
"46 246 LINE SMOOTH"
);
},
{
closed = 1;
nodes = (
"231 108 OFFCURVE",
"172 159 OFFCURVE",
"172 249 CURVE SMOOTH",
"172 259 LINE SMOOTH",
"172 349 OFFCURVE",
"230 400 OFFCURVE",
"308 400 CURVE SMOOTH",
"386 400 OFFCURVE",
"444 349 OFFCURVE",
"444 259 CURVE SMOOTH",
"444 249 LINE SMOOTH",
"444 159 OFFCURVE",
"385 108 OFFCURVE",
"308 108 CURVE SMOOTH"
);
}
);
width = 638;
},
{
anchors = (
{
name = top;
position = "{332, 486}";
}
);
background = {
anchors = (
{
name = top;
position = "{332, 486}";
}
);
paths = (
{
closed = 1;
nodes = (
"64 89 OFFCURVE",
"167 -6 OFFCURVE",
"298 -6 CURVE SMOOTH",
"405 -6 OFFCURVE",
"460 44 OFFCURVE",
"486 93 CURVE",
"498 93 LINE",
"498 -116 LINE SMOOTH",
"498 -136 OFFCURVE",
"489 -146 OFFCURVE",
"467 -146 CURVE SMOOTH",
"147 -146 LINE",
"147 -200 LINE",
"479 -200 LINE SMOOTH",
"531 -200 OFFCURVE",
"556 -172 OFFCURVE",
"556 -124 CURVE SMOOTH",
"556 486 LINE",
"500 486 LINE",
"500 397 LINE",
"488 397 LINE",
"460 450 OFFCURVE",
"405 500 OFFCURVE",
"298 500 CURVE SMOOTH",
"168 500 OFFCURVE",
"64 406 OFFCURVE",
"64 253 CURVE SMOOTH",
"64 241 LINE SMOOTH"
);
},
{
closed = 1;
nodes = (
"202 48 OFFCURVE",
"126 121 OFFCURVE",
"126 243 CURVE SMOOTH",
"126 251 LINE SMOOTH",
"126 373 OFFCURVE",
"202 446 OFFCURVE",
"312 446 CURVE SMOOTH",
"422 446 OFFCURVE",
"498 373 OFFCURVE",
"498 251 CURVE SMOOTH",
"498 243 LINE SMOOTH",
"498 121 OFFCURVE",
"422 48 OFFCURVE",
"312 48 CURVE SMOOTH"
);
}
);
};
layerId = "CEFBB1E5-951F-4065-926E-8B9137F837F5";
paths = (
{
closed = 1;
nodes = (
"64 89 OFFCURVE",
"167 -6 OFFCURVE",
"298 -6 CURVE SMOOTH",
"405 -6 OFFCURVE",
"460 44 OFFCURVE",
"486 93 CURVE",
"498 93 LINE",
"498 -116 LINE SMOOTH",
"498 -136 OFFCURVE",
"489 -146 OFFCURVE",
"467 -146 CURVE SMOOTH",
"147 -146 LINE",
"147 -200 LINE",
"479 -200 LINE SMOOTH",
"531 -200 OFFCURVE",
"556 -172 OFFCURVE",
"556 -124 CURVE SMOOTH",
"556 486 LINE",
"500 486 LINE",
"500 397 LINE",
"488 397 LINE",
"460 450 OFFCURVE",
"405 500 OFFCURVE",
"298 500 CURVE SMOOTH",
"168 500 OFFCURVE",
"64 406 OFFCURVE",
"64 253 CURVE SMOOTH",
"64 241 LINE SMOOTH"
);
},
{
closed = 1;
nodes = (
"202 48 OFFCURVE",
"126 121 OFFCURVE",
"126 243 CURVE SMOOTH",
"126 251 LINE SMOOTH",
"126 373 OFFCURVE",
"202 446 OFFCURVE",
"312 446 CURVE SMOOTH",
"422 446 OFFCURVE",
"498 373 OFFCURVE",
"498 251 CURVE SMOOTH",
"498 243 LINE SMOOTH",
"498 121 OFFCURVE",
"422 48 OFFCURVE",
"312 48 CURVE SMOOTH"
);
}
);
width = 644;
}
);
leftKerningGroup = o;
leftMetricsKey = o;
note = g;
rightKerningGroup = u;
rightMetricsKey = u;
unicode = 0067;
},
{
glyphname = h;
lastChange = "2020-08-10 18:12:01 +0000";
layers = (
{
anchors = (
{
name = bottom;
position = "{310, 0}";
},
{
name = strokeA;
position = "{70, 496}";
},
{
name = top;
position = "{133, 700}";
}
);
background = {
anchors = (
{
name = bottom;
position = "{310, 0}";
},
{
name = strokeA;
position = "{70, 496}";
},
{
name = top;
position = "{133, 700}";
}
);
paths = (
{
closed = 1;
nodes = (
"196 0 LINE",
"196 252 LINE SMOOTH",
"196 344 OFFCURVE",
"241 398 OFFCURVE",
"318 398 CURVE SMOOTH",
"386 398 OFFCURVE",
"424 361 OFFCURVE",
"424 286 CURVE SMOOTH",
"424 0 LINE",
"550 0 LINE",
"550 296 LINE SMOOTH",
"550 419 OFFCURVE",
"473 504 OFFCURVE",
"357 504 CURVE SMOOTH",
"269 504 OFFCURVE",
"230 467 OFFCURVE",
"214 435 CURVE",
"196 435 LINE",
"196 700 LINE",
"70 700 LINE",
"70 0 LINE"
);
}
);
};
layerId = "5117E3E8-E17C-4812-BAF5-9E7064564A59";
paths = (
{
closed = 1;
nodes = (
"196 0 LINE",
"196 252 LINE SMOOTH",
"196 344 OFFCURVE",
"241 398 OFFCURVE",
"318 398 CURVE SMOOTH",
"386 398 OFFCURVE",
"424 361 OFFCURVE",
"424 286 CURVE SMOOTH",
"424 0 LINE",
"550 0 LINE",
"550 296 LINE SMOOTH",
"550 419 OFFCURVE",
"473 504 OFFCURVE",
"357 504 CURVE SMOOTH",
"269 504 OFFCURVE",
"230 467 OFFCURVE",
"214 435 CURVE",
"196 435 LINE",
"196 700 LINE",
"70 700 LINE",
"70 0 LINE"
);
}
);
width = 616;
},
{
anchors = (
{
name = bottom;
position = "{309, 0}";
},
{
name = strokeA;
position = "{88, 486}";
},
{
name = top;
position = "{118, 700}";
}
);
background = {
anchors = (
{
name = bottom;
position = "{309, 0}";
},
{
name = strokeA;
position = "{88, 486}";
},
{
name = top;
position = "{118, 700}";
}
);
paths = (
{
closed = 1;
nodes = (
"148 0 LINE",
"148 243 LINE SMOOTH",
"148 376 OFFCURVE",
"223 441 OFFCURVE",
"323 441 CURVE SMOOTH",
"412 441 OFFCURVE",
"470 398 OFFCURVE",
"470 292 CURVE SMOOTH",
"470 0 LINE",
"530 0 LINE",
"530 296 LINE SMOOTH",
"530 430 OFFCURVE",
"441 495 OFFCURVE",
"336 495 CURVE SMOOTH",
"232 495 OFFCURVE",
"184 448 OFFCURVE",
"160 401 CURVE",
"148 401 LINE",
"148 700 LINE",
"88 700 LINE",
"88 0 LINE"
);
}
);
};
layerId = "CEFBB1E5-951F-4065-926E-8B9137F837F5";
paths = (
{
closed = 1;
nodes = (
"148 0 LINE",
"148 243 LINE SMOOTH",
"148 376 OFFCURVE",
"223 441 OFFCURVE",
"323 441 CURVE SMOOTH",
"412 441 OFFCURVE",
"470 398 OFFCURVE",
"470 292 CURVE SMOOTH",
"470 0 LINE",
"530 0 LINE",
"530 296 LINE SMOOTH",
"530 430 OFFCURVE",
"441 495 OFFCURVE",
"336 495 CURVE SMOOTH",
"232 495 OFFCURVE",
"184 448 OFFCURVE",
"160 401 CURVE",
"148 401 LINE",
"148 700 LINE",
"88 700 LINE",
"88 0 LINE"
);
}
);
width = 612;
}
);
leftKerningGroup = l;
leftMetricsKey = l;
note = h;
rightKerningGroup = n;
rightMetricsKey = n;
unicode = 0068;
},
{
glyphname = k;
lastChange = "2020-08-10 18:12:01 +0000";
layers = (
{
anchors = (
{
name = bottom;
position = "{283, 0}";
}
);
background = {
anchors = (
{
name = bottom;
position = "{283, 0}";
}
);
paths = (
{
closed = 1;
nodes = (
"196 0 LINE",
"196 197 LINE",
"214 197 LINE",
"388 0 LINE",
"550 0 LINE",
"313 256 LINE",
"542 496 LINE",
"378 496 LINE",
"214 313 LINE",
"196 313 LINE",
"196 700 LINE",
"70 700 LINE",
"70 0 LINE"
);
}
);
};
layerId = "5117E3E8-E17C-4812-BAF5-9E7064564A59";
paths = (
{
closed = 1;
nodes = (
"196 0 LINE",
"196 197 LINE",
"214 197 LINE",
"388 0 LINE",
"550 0 LINE",
"313 256 LINE",
"542 496 LINE",
"378 496 LINE",
"214 313 LINE",
"196 313 LINE",
"196 700 LINE",
"70 700 LINE",
"70 0 LINE"
);
}
);
width = 564;
},
{
anchors = (
{
name = bottom;
position = "{278, 0}";
}
);
background = {
anchors = (
{
name = bottom;
position = "{278, 0}";
}
);
paths = (
{
closed = 1;
nodes = (
"148 0 LINE",
"148 219 LINE",
"160 219 LINE",
"418 0 LINE",
"505 0 LINE",
"209 249 LINE",
"497 486 LINE",
"409 486 LINE",
"160 278 LINE",
"148 278 LINE",
"148 700 LINE",
"88 700 LINE",
"88 0 LINE"
);
}
);
};
layerId = "CEFBB1E5-951F-4065-926E-8B9137F837F5";
paths = (
{
closed = 1;
nodes = (
"148 0 LINE",
"148 219 LINE",
"160 219 LINE",
"418 0 LINE",
"505 0 LINE",
"209 249 LINE",
"497 486 LINE",
"409 486 LINE",
"160 278 LINE",
"148 278 LINE",
"148 700 LINE",
"88 700 LINE",
"88 0 LINE"
);
}
);
width = 527;
}
);
leftKerningGroup = l;
leftMetricsKey = l;
note = k;
rightKerningGroup = k;
unicode = 006B;
},
{
glyphname = l;
lastChange = "2020-08-11 15:49:13 +0000";
layers = (
{
anchors = (
{
name = bottom;
position = "{133, 0}";
},
{
name = sidecaron;
position = "{196, 700}";
},
{
name = top;
position = "{133, 700}";
}
);
background = {
anchors = (
{
name = bottom;
position = "{133, 0}";
},
{
name = sidecaron;
position = "{196, 700}";
},
{
name = top;
position = "{133, 700}";
}
);
paths = (
{
closed = 1;
nodes = (
"196 0 LINE",
"196 700 LINE",
"70 700 LINE",
"70 0 LINE"
);
}
);
};
layerId = "5117E3E8-E17C-4812-BAF5-9E7064564A59";
paths = (
{
closed = 1;
nodes = (
"196 0 LINE",
"196 700 LINE",
"70 700 LINE",
"70 0 LINE"
);
}
);
width = 266;
},
{
anchors = (
{
name = bottom;
position = "{118, 0}";
},
{
name = sidecaron;
position = "{148, 700}";
},
{
name = top;
position = "{118, 700}";
}
);
background = {
anchors = (
{
name = bottom;
position = "{118, 0}";
},
{
name = sidecaron;
position = "{148, 700}";
},
{
name = top;
position = "{118, 700}";
}
);
paths = (
{
closed = 1;
nodes = (
"148 0 LINE",
"148 700 LINE",
"88 700 LINE",
"88 0 LINE"
);
}
);
};
layerId = "CEFBB1E5-951F-4065-926E-8B9137F837F5";
paths = (
{
closed = 1;
nodes = (
"148 0 LINE",
"148 700 LINE",
"88 700 LINE",
"88 0 LINE"
);
}
);
width = 236;
}
);
leftKerningGroup = l;
note = l;
rightKerningGroup = l;
unicode = 006C;
},
{
glyphname = m;
lastChange = "2020-08-10 18:12:01 +0000";
layers = (
{
anchors = (
{
name = bottom;
position = "{429, 0}";
}
);
background = {
anchors = (
{
name = bottom;
position = "{429, 0}";
}
);
paths = (
{
closed = 1;
nodes = (
"196 0 LINE",
"196 293 LINE SMOOTH",
"196 361 OFFCURVE",
"228 399 OFFCURVE",
"286 399 CURVE SMOOTH",
"336 399 OFFCURVE",
"366 371 OFFCURVE",
"366 317 CURVE SMOOTH",
"366 0 LINE",
"492 0 LINE",
"492 293 LINE SMOOTH",
"492 361 OFFCURVE",
"524 399 OFFCURVE",
"582 399 CURVE SMOOTH",
"632 399 OFFCURVE",
"662 371 OFFCURVE",
"662 317 CURVE SMOOTH",
"662 0 LINE",
"788 0 LINE",
"788 326 LINE SMOOTH",
"788 446 OFFCURVE",
"714 504 OFFCURVE",
"622 504 CURVE SMOOTH",
"546 504 OFFCURVE",
"508 472 OFFCURVE",
"486 430 CURVE",
"468 430 LINE",
"445 474 OFFCURVE",
"405 504 OFFCURVE",
"334 504 CURVE SMOOTH",
"268 504 OFFCURVE",
"229 475 OFFCURVE",
"212 442 CURVE",
"194 442 LINE",
"194 496 LINE",
"70 496 LINE",
"70 0 LINE"
);
}
);
};
layerId = "5117E3E8-E17C-4812-BAF5-9E7064564A59";
paths = (
{
closed = 1;
nodes = (
"196 0 LINE",
"196 293 LINE SMOOTH",
"196 361 OFFCURVE",
"228 399 OFFCURVE",
"286 399 CURVE SMOOTH",
"336 399 OFFCURVE",
"366 371 OFFCURVE",
"366 317 CURVE SMOOTH",
"366 0 LINE",
"492 0 LINE",
"492 293 LINE SMOOTH",
"492 361 OFFCURVE",
"524 399 OFFCURVE",
"582 399 CURVE SMOOTH",
"632 399 OFFCURVE",
"662 371 OFFCURVE",
"662 317 CURVE SMOOTH",
"662 0 LINE",
"788 0 LINE",
"788 326 LINE SMOOTH",
"788 446 OFFCURVE",
"714 504 OFFCURVE",
"622 504 CURVE SMOOTH",
"546 504 OFFCURVE",
"508 472 OFFCURVE",
"486 430 CURVE",
"468 430 LINE",
"445 474 OFFCURVE",
"405 504 OFFCURVE",
"334 504 CURVE SMOOTH",
"268 504 OFFCURVE",
"229 475 OFFCURVE",
"212 442 CURVE",
"194 442 LINE",
"194 496 LINE",
"70 496 LINE",
"70 0 LINE"
);
}
);
width = 854;
},
{
anchors = (
{
name = bottom;
position = "{434, 0}";
}
);
background = {
anchors = (
{
name = bottom;
position = "{434, 0}";
}
);
paths = (
{
closed = 1;
nodes = (
"148 0 LINE",
"148 295 LINE SMOOTH",
"148 391 OFFCURVE",
"207 442 OFFCURVE",
"284 442 CURVE SMOOTH",
"360 442 OFFCURVE",
"404 396 OFFCURVE",
"404 327 CURVE SMOOTH",
"404 0 LINE",
"464 0 LINE",
"464 295 LINE SMOOTH",
"464 391 OFFCURVE",
"523 442 OFFCURVE",
"600 442 CURVE SMOOTH",
"676 442 OFFCURVE",
"720 396 OFFCURVE",
"720 327 CURVE SMOOTH",
"720 0 LINE",
"780 0 LINE",
"780 333 LINE SMOOTH",
"780 430 OFFCURVE",
"713 496 OFFCURVE",
"614 496 CURVE SMOOTH",
"527 496 OFFCURVE",
"482 455 OFFCURVE",
"460 404 CURVE",
"448 404 LINE",
"426 454 OFFCURVE",
"378 496 OFFCURVE",
"300 496 CURVE SMOOTH",
"218 496 OFFCURVE",
"178 458 OFFCURVE",
"158 422 CURVE",
"146 422 LINE",
"146 486 LINE",
"88 486 LINE",
"88 0 LINE"
);
}
);
};
layerId = "CEFBB1E5-951F-4065-926E-8B9137F837F5";
paths = (
{
closed = 1;
nodes = (
"148 0 LINE",
"148 295 LINE SMOOTH",
"148 391 OFFCURVE",
"207 442 OFFCURVE",
"284 442 CURVE SMOOTH",
"360 442 OFFCURVE",
"404 396 OFFCURVE",
"404 327 CURVE SMOOTH",
"404 0 LINE",
"464 0 LINE",
"464 295 LINE SMOOTH",
"464 391 OFFCURVE",
"523 442 OFFCURVE",
"600 442 CURVE SMOOTH",
"676 442 OFFCURVE",
"720 396 OFFCURVE",
"720 327 CURVE SMOOTH",
"720 0 LINE",
"780 0 LINE",
"780 333 LINE SMOOTH",
"780 430 OFFCURVE",
"713 496 OFFCURVE",
"614 496 CURVE SMOOTH",
"527 496 OFFCURVE",
"482 455 OFFCURVE",
"460 404 CURVE",
"448 404 LINE",
"426 454 OFFCURVE",
"378 496 OFFCURVE",
"300 496 CURVE SMOOTH",
"218 496 OFFCURVE",
"178 458 OFFCURVE",
"158 422 CURVE",
"146 422 LINE",
"146 486 LINE",
"88 486 LINE",
"88 0 LINE"
);
}
);
width = 862;
}
);
leftKerningGroup = n;
leftMetricsKey = idotless;
note = m;
rightKerningGroup = n;
rightMetricsKey = n;
unicode = 006D;
},
{
glyphname = n;
lastChange = "2020-08-11 15:27:23 +0000";
layers = (
{
anchors = (
{
name = apostrophe;
position = "{70, 496}";
},
{
name = bottom;
position = "{310, 0}";
},
{
name = top;
position = "{303, 496}";
}
);
background = {
anchors = (
{
name = apostrophe;
position = "{70, 496}";
},
{
name = bottom;
position = "{310, 0}";
},
{
name = top;
position = "{303, 496}";
}
);
paths = (
{
closed = 1;
nodes = (
"196 0 LINE",
"196 252 LINE SMOOTH",
"196 344 OFFCURVE",
"241 398 OFFCURVE",
"318 398 CURVE SMOOTH",
"386 398 OFFCURVE",
"424 361 OFFCURVE",
"424 286 CURVE SMOOTH",
"424 0 LINE",
"550 0 LINE",
"550 296 LINE SMOOTH",
"550 419 OFFCURVE",
"473 504 OFFCURVE",
"357 504 CURVE SMOOTH",
"268 504 OFFCURVE",
"228 465 OFFCURVE",
"212 431 CURVE",
"194 431 LINE",
"194 496 LINE",
"70 496 LINE",
"70 0 LINE"
);
}
);
};
layerId = "5117E3E8-E17C-4812-BAF5-9E7064564A59";
paths = (
{
closed = 1;
nodes = (
"196 0 LINE",
"196 252 LINE SMOOTH",
"196 344 OFFCURVE",
"241 398 OFFCURVE",
"318 398 CURVE SMOOTH",
"386 398 OFFCURVE",
"424 361 OFFCURVE",
"424 286 CURVE SMOOTH",
"424 0 LINE",
"550 0 LINE",
"550 296 LINE SMOOTH",
"550 419 OFFCURVE",
"473 504 OFFCURVE",
"357 504 CURVE SMOOTH",
"268 504 OFFCURVE",
"228 465 OFFCURVE",
"212 431 CURVE",
"194 431 LINE",
"194 496 LINE",
"70 496 LINE",
"70 0 LINE"
);
}
);
width = 616;
},
{
anchors = (
{
name = apostrophe;
position = "{88, 486}";
},
{
name = bottom;
position = "{309, 0}";
},
{
name = top;
position = "{310, 486}";
}
);
background = {
anchors = (
{
name = apostrophe;
position = "{88, 486}";
},
{
name = bottom;
position = "{309, 0}";
},
{
name = top;
position = "{310, 486}";
}
);
paths = (
{
closed = 1;
nodes = (
"148 0 LINE",
"148 243 LINE SMOOTH",
"148 376 OFFCURVE",
"223 442 OFFCURVE",
"323 442 CURVE SMOOTH",
"412 442 OFFCURVE",
"470 398 OFFCURVE",
"470 292 CURVE SMOOTH",
"470 0 LINE",
"530 0 LINE",
"530 296 LINE SMOOTH",
"530 430 OFFCURVE",
"441 496 OFFCURVE",
"336 496 CURVE SMOOTH",
"232 496 OFFCURVE",
"182 448 OFFCURVE",
"158 396 CURVE",
"146 396 LINE",
"146 486 LINE",
"88 486 LINE",
"88 0 LINE"
);
}
);
};
layerId = "CEFBB1E5-951F-4065-926E-8B9137F837F5";
paths = (
{
closed = 1;
nodes = (
"148 0 LINE",
"148 243 LINE SMOOTH",
"148 376 OFFCURVE",
"223 442 OFFCURVE",
"323 442 CURVE SMOOTH",
"412 442 OFFCURVE",
"470 398 OFFCURVE",
"470 292 CURVE SMOOTH",
"470 0 LINE",
"530 0 LINE",
"530 296 LINE SMOOTH",
"530 430 OFFCURVE",
"441 496 OFFCURVE",
"336 496 CURVE SMOOTH",
"232 496 OFFCURVE",
"182 448 OFFCURVE",
"158 396 CURVE",
"146 396 LINE",
"146 486 LINE",
"88 486 LINE",
"88 0 LINE"
);
}
);
width = 612;
}
);
leftKerningGroup = n;
leftMetricsKey = idotless;
note = n;
rightKerningGroup = n;
unicode = 006E;
},
{
glyphname = o;
lastChange = "2020-08-11 15:06:05 +0000";
layers = (
{
anchors = (
{
name = bottom;
position = "{306, 0}";
},
{
name = horn;
position = "{398, 496}";
},
{
name = ogonek;
position = "{318, 0}";
},
{
name = top;
position = "{306, 496}";
}
);
background = {
anchors = (
{
name = bottom;
position = "{306, 0}";
},
{
name = horn;
position = "{398, 496}";
},
{
name = ogonek;
position = "{318, 0}";
},
{
name = top;
position = "{306, 496}";
}
);
paths = (
{
closed = 1;
nodes = (
"454 -14 OFFCURVE",
"566 80 OFFCURVE",
"566 240 CURVE SMOOTH",
"566 256 LINE SMOOTH",
"566 416 OFFCURVE",
"454 510 OFFCURVE",
"306 510 CURVE SMOOTH",
"158 510 OFFCURVE",
"46 416 OFFCURVE",
"46 256 CURVE SMOOTH",
"46 240 LINE SMOOTH",
"46 80 OFFCURVE",
"158 -14 OFFCURVE",
"306 -14 CURVE SMOOTH"
);
},
{
closed = 1;
nodes = (
"229 98 OFFCURVE",
"172 150 OFFCURVE",
"172 243 CURVE SMOOTH",
"172 253 LINE SMOOTH",
"172 346 OFFCURVE",
"228 398 OFFCURVE",
"306 398 CURVE SMOOTH",
"384 398 OFFCURVE",
"440 346 OFFCURVE",
"440 253 CURVE SMOOTH",
"440 243 LINE SMOOTH",
"440 150 OFFCURVE",
"383 98 OFFCURVE",
"306 98 CURVE SMOOTH"
);
}
);
};
layerId = "5117E3E8-E17C-4812-BAF5-9E7064564A59";
paths = (
{
closed = 1;
nodes = (
"454 -14 OFFCURVE",
"566 80 OFFCURVE",
"566 240 CURVE SMOOTH",
"566 256 LINE SMOOTH",
"566 416 OFFCURVE",
"454 510 OFFCURVE",
"306 510 CURVE SMOOTH",
"158 510 OFFCURVE",
"46 416 OFFCURVE",
"46 256 CURVE SMOOTH",
"46 240 LINE SMOOTH",
"46 80 OFFCURVE",
"158 -14 OFFCURVE",
"306 -14 CURVE SMOOTH"
);
},
{
closed = 1;
nodes = (
"229 98 OFFCURVE",
"172 150 OFFCURVE",
"172 243 CURVE SMOOTH",
"172 253 LINE SMOOTH",
"172 346 OFFCURVE",
"228 398 OFFCURVE",
"306 398 CURVE SMOOTH",
"384 398 OFFCURVE",
"440 346 OFFCURVE",
"440 253 CURVE SMOOTH",
"440 243 LINE SMOOTH",
"440 150 OFFCURVE",
"383 98 OFFCURVE",
"306 98 CURVE SMOOTH"
);
}
);
width = 612;
},
{
anchors = (
{
name = bottom;
position = "{310, 0}";
},
{
name = horn;
position = "{404, 486}";
},
{
name = ogonek;
position = "{321, 0}";
},
{
name = top;
position = "{310, 486}";
}
);
background = {
anchors = (
{
name = bottom;
position = "{310, 0}";
},
{
name = horn;
position = "{404, 486}";
},
{
name = ogonek;
position = "{321, 0}";
},
{
name = top;
position = "{310, 486}";
}
);
paths = (
{
closed = 1;
nodes = (
"458 -14 OFFCURVE",
"556 87 OFFCURVE",
"556 237 CURVE SMOOTH",
"556 249 LINE SMOOTH",
"556 399 OFFCURVE",
"458 500 OFFCURVE",
"310 500 CURVE SMOOTH",
"162 500 OFFCURVE",
"64 399 OFFCURVE",
"64 249 CURVE SMOOTH",
"64 237 LINE SMOOTH",
"64 87 OFFCURVE",
"162 -14 OFFCURVE",
"310 -14 CURVE SMOOTH"
);
},
{
closed = 1;
nodes = (
"196 40 OFFCURVE",
"124 119 OFFCURVE",
"124 239 CURVE SMOOTH",
"124 247 LINE SMOOTH",
"124 367 OFFCURVE",
"196 446 OFFCURVE",
"310 446 CURVE SMOOTH",
"424 446 OFFCURVE",
"496 367 OFFCURVE",
"496 247 CURVE SMOOTH",
"496 239 LINE SMOOTH",
"496 119 OFFCURVE",
"424 40 OFFCURVE",
"310 40 CURVE SMOOTH"
);
}
);
};
layerId = "CEFBB1E5-951F-4065-926E-8B9137F837F5";
paths = (
{
closed = 1;
nodes = (
"458 -14 OFFCURVE",
"556 87 OFFCURVE",
"556 237 CURVE SMOOTH",
"556 249 LINE SMOOTH",
"556 399 OFFCURVE",
"458 500 OFFCURVE",
"310 500 CURVE SMOOTH",
"162 500 OFFCURVE",
"64 399 OFFCURVE",
"64 249 CURVE SMOOTH",
"64 237 LINE SMOOTH",
"64 87 OFFCURVE",
"162 -14 OFFCURVE",
"310 -14 CURVE SMOOTH"
);
},
{
closed = 1;
nodes = (
"196 40 OFFCURVE",
"124 119 OFFCURVE",
"124 239 CURVE SMOOTH",
"124 247 LINE SMOOTH",
"124 367 OFFCURVE",
"196 446 OFFCURVE",
"310 446 CURVE SMOOTH",
"424 446 OFFCURVE",
"496 367 OFFCURVE",
"496 247 CURVE SMOOTH",
"496 239 LINE SMOOTH",
"496 119 OFFCURVE",
"424 40 OFFCURVE",
"310 40 CURVE SMOOTH"
);
}
);
width = 620;
}
);
leftKerningGroup = o;
note = o;
rightKerningGroup = o;
unicode = 006F;
},
{
glyphname = p;
lastChange = "2020-08-10 18:18:38 +0000";
layers = (
{
layerId = "5117E3E8-E17C-4812-BAF5-9E7064564A59";
paths = (
{
closed = 1;
nodes = (
"196 -200 LINE",
"196 57 LINE",
"214 57 LINE",
"235 22 OFFCURVE",
"278 -14 OFFCURVE",
"368 -14 CURVE SMOOTH",
"488 -14 OFFCURVE",
"592 78 OFFCURVE",
"592 240 CURVE SMOOTH",
"592 256 LINE SMOOTH",
"592 418 OFFCURVE",
"487 510 OFFCURVE",
"368 510 CURVE SMOOTH",
"278 510 OFFCURVE",
"235 474 OFFCURVE",
"212 436 CURVE",
"194 436 LINE",
"194 496 LINE",
"70 496 LINE",
"70 -200 LINE"
);
},
{
closed = 1;
nodes = (
"252 96 OFFCURVE",
"194 147 OFFCURVE",
"194 243 CURVE SMOOTH",
"194 253 LINE SMOOTH",
"194 349 OFFCURVE",
"253 400 OFFCURVE",
"330 400 CURVE SMOOTH",
"407 400 OFFCURVE",
"466 349 OFFCURVE",
"466 253 CURVE SMOOTH",
"466 243 LINE SMOOTH",
"466 147 OFFCURVE",
"408 96 OFFCURVE",
"330 96 CURVE SMOOTH"
);
}
);
width = 638;
},
{
background = {
paths = (
{
closed = 1;
nodes = (
"148 -200 LINE",
"148 85 LINE",
"160 85 LINE",
"186 36 OFFCURVE",
"241 -14 OFFCURVE",
"348 -14 CURVE SMOOTH",
"479 -14 OFFCURVE",
"582 83 OFFCURVE",
"582 237 CURVE SMOOTH",
"582 249 LINE SMOOTH",
"582 404 OFFCURVE",
"478 500 OFFCURVE",
"348 500 CURVE SMOOTH",
"241 500 OFFCURVE",
"186 450 OFFCURVE",
"158 397 CURVE",
"146 397 LINE",
"146 486 LINE",
"88 486 LINE",
"88 -200 LINE"
);
},
{
closed = 1;
nodes = (
"224 40 OFFCURVE",
"148 115 OFFCURVE",
"148 239 CURVE SMOOTH",
"148 247 LINE SMOOTH",
"148 371 OFFCURVE",
"224 446 OFFCURVE",
"334 446 CURVE SMOOTH",
"444 446 OFFCURVE",
"520 371 OFFCURVE",
"520 247 CURVE SMOOTH",
"520 239 LINE SMOOTH",
"520 115 OFFCURVE",
"444 40 OFFCURVE",
"334 40 CURVE SMOOTH"
);
}
);
};
layerId = "CEFBB1E5-951F-4065-926E-8B9137F837F5";
paths = (
{
closed = 1;
nodes = (
"148 -200 LINE",
"148 85 LINE",
"160 85 LINE",
"186 36 OFFCURVE",
"241 -14 OFFCURVE",
"348 -14 CURVE SMOOTH",
"479 -14 OFFCURVE",
"582 83 OFFCURVE",
"582 237 CURVE SMOOTH",
"582 249 LINE SMOOTH",
"582 404 OFFCURVE",
"478 500 OFFCURVE",
"348 500 CURVE SMOOTH",
"241 500 OFFCURVE",
"186 450 OFFCURVE",
"158 397 CURVE",
"146 397 LINE",
"146 486 LINE",
"88 486 LINE",
"88 -200 LINE"
);
},
{
closed = 1;
nodes = (
"224 40 OFFCURVE",
"148 115 OFFCURVE",
"148 239 CURVE SMOOTH",
"148 247 LINE SMOOTH",
"148 371 OFFCURVE",
"224 446 OFFCURVE",
"334 446 CURVE SMOOTH",
"444 446 OFFCURVE",
"520 371 OFFCURVE",
"520 247 CURVE SMOOTH",
"520 239 LINE SMOOTH",
"520 115 OFFCURVE",
"444 40 OFFCURVE",
"334 40 CURVE SMOOTH"
);
}
);
width = 646;
}
);
leftKerningGroup = n;
leftMetricsKey = idotless;
note = p;
rightKerningGroup = o;
rightMetricsKey = o;
unicode = 0070;
},
{
glyphname = q;
lastChange = "2020-08-10 18:18:33 +0000";
layers = (
{
background = {
paths = (
{
closed = 1;
nodes = (
"568 -200 LINE",
"568 496 LINE",
"444 496 LINE",
"444 436 LINE",
"426 436 LINE",
"403 474 OFFCURVE",
"360 510 OFFCURVE",
"270 510 CURVE SMOOTH",
"151 510 OFFCURVE",
"46 418 OFFCURVE",
"46 256 CURVE SMOOTH",
"46 240 LINE SMOOTH",
"46 78 OFFCURVE",
"150 -14 OFFCURVE",
"270 -14 CURVE SMOOTH",
"360 -14 OFFCURVE",
"403 22 OFFCURVE",
"424 57 CURVE",
"442 57 LINE",
"442 -200 LINE"
);
},
{
closed = 1;
nodes = (
"230 96 OFFCURVE",
"172 147 OFFCURVE",
"172 243 CURVE SMOOTH",
"172 253 LINE SMOOTH",
"172 349 OFFCURVE",
"231 400 OFFCURVE",
"308 400 CURVE SMOOTH",
"385 400 OFFCURVE",
"444 349 OFFCURVE",
"444 253 CURVE SMOOTH",
"444 243 LINE SMOOTH",
"444 147 OFFCURVE",
"386 96 OFFCURVE",
"308 96 CURVE SMOOTH"
);
}
);
};
layerId = "5117E3E8-E17C-4812-BAF5-9E7064564A59";
paths = (
{
closed = 1;
nodes = (
"568 -200 LINE",
"568 496 LINE",
"444 496 LINE",
"444 436 LINE",
"426 436 LINE",
"403 474 OFFCURVE",
"360 510 OFFCURVE",
"270 510 CURVE SMOOTH",
"151 510 OFFCURVE",
"46 418 OFFCURVE",
"46 256 CURVE SMOOTH",
"46 240 LINE SMOOTH",
"46 78 OFFCURVE",
"150 -14 OFFCURVE",
"270 -14 CURVE SMOOTH",
"360 -14 OFFCURVE",
"403 22 OFFCURVE",
"424 57 CURVE",
"442 57 LINE",
"442 -200 LINE"
);
},
{
closed = 1;
nodes = (
"230 96 OFFCURVE",
"172 147 OFFCURVE",
"172 243 CURVE SMOOTH",
"172 253 LINE SMOOTH",
"172 349 OFFCURVE",
"231 400 OFFCURVE",
"308 400 CURVE SMOOTH",
"385 400 OFFCURVE",
"444 349 OFFCURVE",
"444 253 CURVE SMOOTH",
"444 243 LINE SMOOTH",
"444 147 OFFCURVE",
"386 96 OFFCURVE",
"308 96 CURVE SMOOTH"
);
}
);
width = 638;
},
{
background = {
paths = (
{
closed = 1;
nodes = (
"558 -200 LINE",
"558 486 LINE",
"500 486 LINE",
"500 397 LINE",
"488 397 LINE",
"460 450 OFFCURVE",
"405 500 OFFCURVE",
"298 500 CURVE SMOOTH",
"168 500 OFFCURVE",
"64 404 OFFCURVE",
"64 249 CURVE SMOOTH",
"64 237 LINE SMOOTH",
"64 83 OFFCURVE",
"167 -14 OFFCURVE",
"298 -14 CURVE SMOOTH",
"405 -14 OFFCURVE",
"460 36 OFFCURVE",
"486 85 CURVE",
"498 85 LINE",
"498 -200 LINE"
);
},
{
closed = 1;
nodes = (
"202 40 OFFCURVE",
"126 115 OFFCURVE",
"126 239 CURVE SMOOTH",
"126 247 LINE SMOOTH",
"126 371 OFFCURVE",
"202 446 OFFCURVE",
"312 446 CURVE SMOOTH",
"422 446 OFFCURVE",
"498 371 OFFCURVE",
"498 247 CURVE SMOOTH",
"498 239 LINE SMOOTH",
"498 115 OFFCURVE",
"422 40 OFFCURVE",
"312 40 CURVE SMOOTH"
);
}
);
};
layerId = "CEFBB1E5-951F-4065-926E-8B9137F837F5";
paths = (
{
closed = 1;
nodes = (
"558 -200 LINE",
"558 486 LINE",
"500 486 LINE",
"500 397 LINE",
"488 397 LINE",
"460 450 OFFCURVE",
"405 500 OFFCURVE",
"298 500 CURVE SMOOTH",
"168 500 OFFCURVE",
"64 404 OFFCURVE",
"64 249 CURVE SMOOTH",
"64 237 LINE SMOOTH",
"64 83 OFFCURVE",
"167 -14 OFFCURVE",
"298 -14 CURVE SMOOTH",
"405 -14 OFFCURVE",
"460 36 OFFCURVE",
"486 85 CURVE",
"498 85 LINE",
"498 -200 LINE"
);
},
{
closed = 1;
nodes = (
"202 40 OFFCURVE",
"126 115 OFFCURVE",
"126 239 CURVE SMOOTH",
"126 247 LINE SMOOTH",
"126 371 OFFCURVE",
"202 446 OFFCURVE",
"312 446 CURVE SMOOTH",
"422 446 OFFCURVE",
"498 371 OFFCURVE",
"498 247 CURVE SMOOTH",
"498 239 LINE SMOOTH",
"498 115 OFFCURVE",
"422 40 OFFCURVE",
"312 40 CURVE SMOOTH"
);
}
);
width = 646;
}
);
leftKerningGroup = o;
leftMetricsKey = o;
note = q;
rightKerningGroup = u;
rightMetricsKey = idotless;
unicode = 0071;
},
{
glyphname = r;
lastChange = "2020-08-10 18:12:01 +0000";
layers = (
{
anchors = (
{
name = bottom;
position = "{135, 0}";
},
{
name = top;
position = "{216, 496}";
}
);
background = {
anchors = (
{
name = bottom;
position = "{135, 0}";
},
{
name = top;
position = "{216, 496}";
}
);
paths = (
{
closed = 1;
nodes = (
"196 0 LINE",
"196 282 LINE SMOOTH",
"196 352 OFFCURVE",
"242 386 OFFCURVE",
"306 386 CURVE SMOOTH",
"368 386 LINE",
"368 498 LINE",
"308 498 LINE SMOOTH",
"262 498 OFFCURVE",
"226 480 OFFCURVE",
"212 440 CURVE",
"194 440 LINE",
"194 496 LINE",
"70 496 LINE",
"70 0 LINE"
);
}
);
};
layerId = "5117E3E8-E17C-4812-BAF5-9E7064564A59";
paths = (
{
closed = 1;
nodes = (
"196 0 LINE",
"196 282 LINE SMOOTH",
"196 352 OFFCURVE",
"242 386 OFFCURVE",
"306 386 CURVE SMOOTH",
"368 386 LINE",
"368 498 LINE",
"308 498 LINE SMOOTH",
"262 498 OFFCURVE",
"226 480 OFFCURVE",
"212 440 CURVE",
"194 440 LINE",
"194 496 LINE",
"70 496 LINE",
"70 0 LINE"
);
}
);
width = 396;
},
{
anchors = (
{
name = bottom;
position = "{118, 0}";
},
{
name = top;
position = "{211, 486}";
}
);
background = {
anchors = (
{
name = bottom;
position = "{118, 0}";
},
{
name = top;
position = "{211, 486}";
}
);
paths = (
{
closed = 1;
nodes = (
"148 0 LINE",
"148 304 LINE SMOOTH",
"148 392 OFFCURVE",
"195 432 OFFCURVE",
"269 432 CURVE SMOOTH",
"333 432 LINE",
"333 488 LINE",
"276 488 LINE SMOOTH",
"211 488 OFFCURVE",
"176 469 OFFCURVE",
"158 425 CURVE",
"146 425 LINE",
"146 486 LINE",
"88 486 LINE",
"88 0 LINE"
);
}
);
};
layerId = "CEFBB1E5-951F-4065-926E-8B9137F837F5";
paths = (
{
closed = 1;
nodes = (
"148 0 LINE",
"148 304 LINE SMOOTH",
"148 392 OFFCURVE",
"195 432 OFFCURVE",
"269 432 CURVE SMOOTH",
"333 432 LINE",
"333 488 LINE",
"276 488 LINE SMOOTH",
"211 488 OFFCURVE",
"176 469 OFFCURVE",
"158 425 CURVE",
"146 425 LINE",
"146 486 LINE",
"88 486 LINE",
"88 0 LINE"
);
}
);
width = 369;
}
);
leftKerningGroup = n;
leftMetricsKey = idotless;
note = r;
rightKerningGroup = r;
unicode = 0072;
},
{
glyphname = s;
lastChange = "2020-08-11 15:53:53 +0000";
layers = (
{
anchors = (
{
name = bottom;
position = "{265, 0}";
},
{
name = top;
position = "{261, 496}";
}
);
background = {
anchors = (
{
name = bottom;
position = "{265, 0}";
},
{
name = top;
position = "{261, 496}";
}
);
paths = (
{
closed = 1;
nodes = (
"402 -14 OFFCURVE",
"484 45 OFFCURVE",
"484 149 CURVE SMOOTH",
"484 253 OFFCURVE",
"396 285 OFFCURVE",
"284 305 CURVE SMOOTH",
"256 310 LINE SMOOTH",
"210 318 OFFCURVE",
"182 331 OFFCURVE",
"182 363 CURVE SMOOTH",
"182 392 OFFCURVE",
"208 410 OFFCURVE",
"256 410 CURVE SMOOTH",
"304 410 OFFCURVE",
"338 391 OFFCURVE",
"349 340 CURVE",
"466 376 LINE",
"443 456 OFFCURVE",
"367 510 OFFCURVE",
"256 510 CURVE SMOOTH",
"138 510 OFFCURVE",
"60 455 OFFCURVE",
"60 357 CURVE SMOOTH",
"60 259 OFFCURVE",
"146 220 OFFCURVE",
"250 201 CURVE SMOOTH",
"278 196 LINE SMOOTH",
"337 185 OFFCURVE",
"362 171 OFFCURVE",
"362 140 CURVE SMOOTH",
"362 109 OFFCURVE",
"334 86 OFFCURVE",
"276 86 CURVE SMOOTH",
"218 86 OFFCURVE",
"171 108 OFFCURVE",
"158 178 CURVE",
"42 148 LINE",
"59 44 OFFCURVE",
"146 -14 OFFCURVE",
"276 -14 CURVE SMOOTH"
);
}
);
};
layerId = "5117E3E8-E17C-4812-BAF5-9E7064564A59";
paths = (
{
closed = 1;
nodes = (
"402 -14 OFFCURVE",
"484 45 OFFCURVE",
"484 149 CURVE SMOOTH",
"484 253 OFFCURVE",
"396 285 OFFCURVE",
"284 305 CURVE SMOOTH",
"256 310 LINE SMOOTH",
"210 318 OFFCURVE",
"182 331 OFFCURVE",
"182 363 CURVE SMOOTH",
"182 392 OFFCURVE",
"208 410 OFFCURVE",
"256 410 CURVE SMOOTH",
"304 410 OFFCURVE",
"338 391 OFFCURVE",
"349 340 CURVE",
"466 376 LINE",
"443 456 OFFCURVE",
"367 510 OFFCURVE",
"256 510 CURVE SMOOTH",
"138 510 OFFCURVE",
"60 455 OFFCURVE",
"60 357 CURVE SMOOTH",
"60 259 OFFCURVE",
"146 220 OFFCURVE",
"250 201 CURVE SMOOTH",
"278 196 LINE SMOOTH",
"337 185 OFFCURVE",
"362 171 OFFCURVE",
"362 140 CURVE SMOOTH",
"362 109 OFFCURVE",
"334 86 OFFCURVE",
"276 86 CURVE SMOOTH",
"218 86 OFFCURVE",
"171 108 OFFCURVE",
"158 178 CURVE",
"42 148 LINE",
"59 44 OFFCURVE",
"146 -14 OFFCURVE",
"276 -14 CURVE SMOOTH"
);
}
);
width = 524;
},
{
anchors = (
{
name = bottom;
position = "{274, 0}";
},
{
name = top;
position = "{261, 486}";
}
);
background = {
anchors = (
{
name = bottom;
position = "{274, 0}";
},
{
name = top;
position = "{261, 486}";
}
);
paths = (
{
closed = 1;
nodes = (
"399 -14 OFFCURVE",
"474 38 OFFCURVE",
"474 130 CURVE SMOOTH",
"474 222 OFFCURVE",
"396 254 OFFCURVE",
"297 271 CURVE SMOOTH",
"251 279 LINE SMOOTH",
"182 291 OFFCURVE",
"139 311 OFFCURVE",
"139 365 CURVE SMOOTH",
"139 419 OFFCURVE",
"186 448 OFFCURVE",
"260 448 CURVE SMOOTH",
"334 448 OFFCURVE",
"388 419 OFFCURVE",
"401 342 CURVE",
"457 354 LINE",
"439 449 OFFCURVE",
"370 500 OFFCURVE",
"260 500 CURVE SMOOTH",
"150 500 OFFCURVE",
"79 449 OFFCURVE",
"79 365 CURVE SMOOTH",
"79 281 OFFCURVE",
"149 242 OFFCURVE",
"242 226 CURVE SMOOTH",
"288 218 LINE SMOOTH",
"364 205 OFFCURVE",
"414 188 OFFCURVE",
"414 130 CURVE SMOOTH",
"414 72 OFFCURVE",
"361 38 OFFCURVE",
"281 38 CURVE SMOOTH",
"201 38 OFFCURVE",
"128 72 OFFCURVE",
"113 178 CURVE",
"54 167 LINE",
"72 38 OFFCURVE",
"163 -14 OFFCURVE",
"281 -14 CURVE SMOOTH"
);
}
);
};
layerId = "CEFBB1E5-951F-4065-926E-8B9137F837F5";
paths = (
{
closed = 1;
nodes = (
"399 -14 OFFCURVE",
"474 38 OFFCURVE",
"474 130 CURVE SMOOTH",
"474 222 OFFCURVE",
"396 254 OFFCURVE",
"297 271 CURVE SMOOTH",
"251 279 LINE SMOOTH",
"182 291 OFFCURVE",
"139 311 OFFCURVE",
"139 365 CURVE SMOOTH",
"139 419 OFFCURVE",
"186 448 OFFCURVE",
"260 448 CURVE SMOOTH",
"334 448 OFFCURVE",
"388 419 OFFCURVE",
"401 342 CURVE",
"457 354 LINE",
"439 449 OFFCURVE",
"370 500 OFFCURVE",
"260 500 CURVE SMOOTH",
"150 500 OFFCURVE",
"79 449 OFFCURVE",
"79 365 CURVE SMOOTH",
"79 281 OFFCURVE",
"149 242 OFFCURVE",
"242 226 CURVE SMOOTH",
"288 218 LINE SMOOTH",
"364 205 OFFCURVE",
"414 188 OFFCURVE",
"414 130 CURVE SMOOTH",
"414 72 OFFCURVE",
"361 38 OFFCURVE",
"281 38 CURVE SMOOTH",
"201 38 OFFCURVE",
"128 72 OFFCURVE",
"113 178 CURVE",
"54 167 LINE",
"72 38 OFFCURVE",
"163 -14 OFFCURVE",
"281 -14 CURVE SMOOTH"
);
}
);
width = 528;
}
);
leftKerningGroup = s;
note = s;
rightKerningGroup = s;
unicode = 0073;
},
{
glyphname = t;
lastChange = "2020-09-27 11:41:20 +0000";
layers = (
{
anchors = (
{
name = bottom;
position = "{232, 0}";
},
{
name = sidecaron;
position = "{280, 757}";
},
{
name = top;
position = "{213, 644}";
}
);
background = {
anchors = (
{
name = bottom;
position = "{232, 0}";
},
{
name = sidecaron;
position = "{282, 743}";
},
{
name = top;
position = "{213, 644}";
}
);
paths = (
{
closed = 1;
nodes = (
"400 0 LINE",
"400 104 LINE",
"304 104 LINE SMOOTH",
"286 104 OFFCURVE",
"276 114 OFFCURVE",
"276 134 CURVE SMOOTH",
"276 392 LINE",
"412 392 LINE",
"412 496 LINE",
"276 496 LINE",
"276 650 LINE",
"150 650 LINE",
"150 496 LINE",
"26 496 LINE",
"26 392 LINE",
"150 392 LINE",
"150 112 LINE SMOOTH",
"150 44 OFFCURVE",
"194 0 OFFCURVE",
"260 0 CURVE SMOOTH"
);
}
);
};
layerId = "5117E3E8-E17C-4812-BAF5-9E7064564A59";
paths = (
{
closed = 1;
nodes = (
"400 0 LINE",
"400 104 LINE",
"304 104 LINE SMOOTH",
"286 104 OFFCURVE",
"276 114 OFFCURVE",
"276 134 CURVE SMOOTH",
"276 392 LINE",
"412 392 LINE",
"412 496 LINE",
"276 496 LINE",
"276 650 LINE",
"150 650 LINE",
"150 496 LINE",
"26 496 LINE",
"26 392 LINE",
"150 392 LINE",
"150 112 LINE SMOOTH",
"150 44 OFFCURVE",
"194 0 OFFCURVE",
"260 0 CURVE SMOOTH"
);
}
);
width = 456;
},
{
anchors = (
{
name = bottom;
position = "{261, 0}";
},
{
name = sidecaron;
position = "{260, 762}";
},
{
name = top;
position = "{216, 652}";
}
);
background = {
anchors = (
{
name = bottom;
position = "{261, 0}";
},
{
name = sidecaron;
position = "{268, 757}";
},
{
name = top;
position = "{216, 652}";
}
);
paths = (
{
closed = 1;
nodes = (
"390 0 LINE",
"390 54 LINE",
"276 54 LINE SMOOTH",
"254 54 OFFCURVE",
"246 64 OFFCURVE",
"246 84 CURVE SMOOTH",
"246 432 LINE",
"416 432 LINE",
"416 486 LINE",
"246 486 LINE",
"246 668 LINE",
"186 668 LINE",
"186 486 LINE",
"30 486 LINE",
"30 432 LINE",
"186 432 LINE",
"186 76 LINE SMOOTH",
"186 28 OFFCURVE",
"212 0 OFFCURVE",
"264 0 CURVE SMOOTH"
);
}
);
};
layerId = "CEFBB1E5-951F-4065-926E-8B9137F837F5";
paths = (
{
closed = 1;
nodes = (
"390 0 LINE",
"390 54 LINE",
"276 54 LINE SMOOTH",
"254 54 OFFCURVE",
"246 64 OFFCURVE",
"246 84 CURVE SMOOTH",
"246 432 LINE",
"416 432 LINE",
"416 486 LINE",
"246 486 LINE",
"246 668 LINE",
"186 668 LINE",
"186 486 LINE",
"30 486 LINE",
"30 432 LINE",
"186 432 LINE",
"186 76 LINE SMOOTH",
"186 28 OFFCURVE",
"212 0 OFFCURVE",
"264 0 CURVE SMOOTH"
);
}
);
width = 462;
}
);
leftKerningGroup = t;
note = t;
rightKerningGroup = t;
unicode = 0074;
},
{
glyphname = u;
lastChange = "2020-08-11 15:54:18 +0000";
layers = (
{
anchors = (
{
name = bottom;
position = "{304, 0}";
},
{
name = horn;
position = "{546, 496}";
},
{
name = ogonek;
position = "{484, 0}";
},
{
name = top;
position = "{306, 496}";
}
);
background = {
anchors = (
{
name = bottom;
position = "{304, 0}";
},
{
name = horn;
position = "{546, 496}";
},
{
name = ogonek;
position = "{484, 0}";
},
{
name = top;
position = "{306, 496}";
}
);
paths = (
{
closed = 1;
nodes = (
"348 -8 OFFCURVE",
"388 31 OFFCURVE",
"404 65 CURVE",
"422 65 LINE",
"422 0 LINE",
"546 0 LINE",
"546 496 LINE",
"420 496 LINE",
"420 244 LINE SMOOTH",
"420 152 OFFCURVE",
"375 98 OFFCURVE",
"298 98 CURVE SMOOTH",
"230 98 OFFCURVE",
"192 135 OFFCURVE",
"192 210 CURVE SMOOTH",
"192 496 LINE",
"66 496 LINE",
"66 200 LINE SMOOTH",
"66 77 OFFCURVE",
"143 -8 OFFCURVE",
"259 -8 CURVE SMOOTH"
);
}
);
};
layerId = "5117E3E8-E17C-4812-BAF5-9E7064564A59";
paths = (
{
closed = 1;
nodes = (
"348 -8 OFFCURVE",
"388 31 OFFCURVE",
"404 65 CURVE",
"422 65 LINE",
"422 0 LINE",
"546 0 LINE",
"546 496 LINE",
"420 496 LINE",
"420 244 LINE SMOOTH",
"420 152 OFFCURVE",
"375 98 OFFCURVE",
"298 98 CURVE SMOOTH",
"230 98 OFFCURVE",
"192 135 OFFCURVE",
"192 210 CURVE SMOOTH",
"192 496 LINE",
"66 496 LINE",
"66 200 LINE SMOOTH",
"66 77 OFFCURVE",
"143 -8 OFFCURVE",
"259 -8 CURVE SMOOTH"
);
}
);
width = 616;
},
{
anchors = (
{
name = bottom;
position = "{295, 0}";
},
{
name = horn;
position = "{523, 486}";
},
{
name = ogonek;
position = "{493, 0}";
},
{
name = top;
position = "{302, 486}";
}
);
background = {
anchors = (
{
name = bottom;
position = "{295, 0}";
},
{
name = horn;
position = "{523, 486}";
},
{
name = ogonek;
position = "{493, 0}";
},
{
name = top;
position = "{302, 486}";
}
);
paths = (
{
closed = 1;
nodes = (
"379 -10 OFFCURVE",
"429 38 OFFCURVE",
"453 90 CURVE",
"465 90 LINE",
"465 0 LINE",
"523 0 LINE",
"523 486 LINE",
"463 486 LINE",
"463 243 LINE SMOOTH",
"463 110 OFFCURVE",
"388 44 OFFCURVE",
"288 44 CURVE SMOOTH",
"199 44 OFFCURVE",
"141 88 OFFCURVE",
"141 194 CURVE SMOOTH",
"141 486 LINE",
"81 486 LINE",
"81 190 LINE SMOOTH",
"81 56 OFFCURVE",
"170 -10 OFFCURVE",
"275 -10 CURVE SMOOTH"
);
}
);
};
layerId = "CEFBB1E5-951F-4065-926E-8B9137F837F5";
paths = (
{
closed = 1;
nodes = (
"379 -10 OFFCURVE",
"429 38 OFFCURVE",
"453 90 CURVE",
"465 90 LINE",
"465 0 LINE",
"523 0 LINE",
"523 486 LINE",
"463 486 LINE",
"463 243 LINE SMOOTH",
"463 110 OFFCURVE",
"388 44 OFFCURVE",
"288 44 CURVE SMOOTH",
"199 44 OFFCURVE",
"141 88 OFFCURVE",
"141 194 CURVE SMOOTH",
"141 486 LINE",
"81 486 LINE",
"81 190 LINE SMOOTH",
"81 56 OFFCURVE",
"170 -10 OFFCURVE",
"275 -10 CURVE SMOOTH"
);
}
);
width = 611;
}
);
leftKerningGroup = u;
note = u;
rightKerningGroup = u;
rightMetricsKey = idotless;
unicode = 0075;
},
{
glyphname = v;
lastChange = "2020-08-11 15:54:26 +0000";
layers = (
{
background = {
paths = (
{
closed = 1;
nodes = (
"374 0 LINE",
"532 496 LINE",
"398 496 LINE",
"283 92 LINE",
"265 92 LINE",
"150 496 LINE",
"16 496 LINE",
"174 0 LINE"
);
}
);
};
layerId = "5117E3E8-E17C-4812-BAF5-9E7064564A59";
paths = (
{
closed = 1;
nodes = (
"374 0 LINE",
"532 496 LINE",
"398 496 LINE",
"283 92 LINE",
"265 92 LINE",
"150 496 LINE",
"16 496 LINE",
"174 0 LINE"
);
}
);
width = 548;
},
{
background = {
paths = (
{
closed = 1;
nodes = (
"316 0 LINE",
"498 486 LINE",
"434 486 LINE",
"274 46 LINE",
"262 46 LINE",
"102 486 LINE",
"38 486 LINE",
"220 0 LINE"
);
}
);
};
layerId = "CEFBB1E5-951F-4065-926E-8B9137F837F5";
paths = (
{
closed = 1;
nodes = (
"316 0 LINE",
"498 486 LINE",
"434 486 LINE",
"274 46 LINE",
"262 46 LINE",
"102 486 LINE",
"38 486 LINE",
"220 0 LINE"
);
}
);
width = 536;
}
);
leftKerningGroup = v;
note = v;
rightKerningGroup = v;
unicode = 0076;
},
{
glyphname = w;
lastChange = "2020-08-11 15:54:35 +0000";
layers = (
{
anchors = (
{
name = top;
position = "{392, 496}";
}
);
background = {
anchors = (
{
name = top;
position = "{392, 496}";
}
);
paths = (
{
closed = 1;
nodes = (
"319 0 LINE",
"383 411 LINE",
"401 411 LINE",
"465 0 LINE",
"674 0 LINE",
"744 496 LINE",
"619 496 LINE",
"575 85 LINE",
"557 85 LINE",
"493 496 LINE",
"291 496 LINE",
"227 85 LINE",
"209 85 LINE",
"165 496 LINE",
"40 496 LINE",
"110 0 LINE"
);
}
);
};
layerId = "5117E3E8-E17C-4812-BAF5-9E7064564A59";
paths = (
{
closed = 1;
nodes = (
"319 0 LINE",
"383 411 LINE",
"401 411 LINE",
"465 0 LINE",
"674 0 LINE",
"744 496 LINE",
"619 496 LINE",
"575 85 LINE",
"557 85 LINE",
"493 496 LINE",
"291 496 LINE",
"227 85 LINE",
"209 85 LINE",
"165 496 LINE",
"40 496 LINE",
"110 0 LINE"
);
}
);
width = 784;
},
{
anchors = (
{
name = top;
position = "{404, 486}";
}
);
background = {
anchors = (
{
name = top;
position = "{404, 486}";
}
);
paths = (
{
closed = 1;
nodes = (
"273 0 LINE",
"398 446 LINE",
"410 446 LINE",
"535 0 LINE",
"640 0 LINE",
"750 486 LINE",
"688 486 LINE",
"592 40 LINE",
"580 40 LINE",
"455 486 LINE",
"353 486 LINE",
"228 40 LINE",
"216 40 LINE",
"120 486 LINE",
"58 486 LINE",
"168 0 LINE"
);
}
);
};
layerId = "CEFBB1E5-951F-4065-926E-8B9137F837F5";
paths = (
{
closed = 1;
nodes = (
"273 0 LINE",
"398 446 LINE",
"410 446 LINE",
"535 0 LINE",
"640 0 LINE",
"750 486 LINE",
"688 486 LINE",
"592 40 LINE",
"580 40 LINE",
"455 486 LINE",
"353 486 LINE",
"228 40 LINE",
"216 40 LINE",
"120 486 LINE",
"58 486 LINE",
"168 0 LINE"
);
}
);
width = 808;
}
);
leftKerningGroup = w;
note = w;
rightKerningGroup = w;
unicode = 0077;
},
{
glyphname = x;
lastChange = "2020-08-11 15:32:28 +0000";
layers = (
{
background = {
paths = (
{
closed = 1;
nodes = (
"174 0 LINE",
"287 167 LINE",
"305 167 LINE",
"418 0 LINE",
"566 0 LINE",
"386 250 LINE",
"564 496 LINE",
"418 496 LINE",
"305 331 LINE",
"287 331 LINE",
"174 496 LINE",
"28 496 LINE",
"206 250 LINE",
"26 0 LINE"
);
}
);
};
layerId = "5117E3E8-E17C-4812-BAF5-9E7064564A59";
paths = (
{
closed = 1;
nodes = (
"174 0 LINE",
"287 167 LINE",
"305 167 LINE",
"418 0 LINE",
"566 0 LINE",
"386 250 LINE",
"564 496 LINE",
"418 496 LINE",
"305 331 LINE",
"287 331 LINE",
"174 496 LINE",
"28 496 LINE",
"206 250 LINE",
"26 0 LINE"
);
}
);
width = 592;
},
{
background = {
paths = (
{
closed = 1;
nodes = (
"126 0 LINE",
"291 207 LINE",
"303 207 LINE",
"468 0 LINE",
"544 0 LINE",
"341 247 LINE",
"537 486 LINE",
"462 486 LINE",
"303 287 LINE",
"291 287 LINE",
"132 486 LINE",
"57 486 LINE",
"253 247 LINE",
"50 0 LINE"
);
}
);
};
layerId = "CEFBB1E5-951F-4065-926E-8B9137F837F5";
paths = (
{
closed = 1;
nodes = (
"126 0 LINE",
"291 207 LINE",
"303 207 LINE",
"468 0 LINE",
"544 0 LINE",
"341 247 LINE",
"537 486 LINE",
"462 486 LINE",
"303 287 LINE",
"291 287 LINE",
"132 486 LINE",
"57 486 LINE",
"253 247 LINE",
"50 0 LINE"
);
}
);
width = 594;
}
);
leftKerningGroup = x;
note = x;
rightKerningGroup = x;
unicode = 0078;
},
{
glyphname = y;
lastChange = "2020-08-10 18:19:29 +0000";
layers = (
{
anchors = (
{
name = bottom;
position = "{660, 0}";
},
{
name = top;
position = "{306, 496}";
}
);
background = {
anchors = (
{
name = bottom;
position = "{660, 0}";
},
{
name = top;
position = "{306, 496}";
}
);
paths = (
{
closed = 1;
nodes = (
"348 -8 OFFCURVE",
"388 31 OFFCURVE",
"404 65 CURVE",
"422 65 LINE",
"422 0 LINE",
"546 0 LINE",
"546 496 LINE",
"420 496 LINE",
"420 244 LINE SMOOTH",
"420 152 OFFCURVE",
"375 98 OFFCURVE",
"298 98 CURVE SMOOTH",
"230 98 OFFCURVE",
"192 135 OFFCURVE",
"192 210 CURVE SMOOTH",
"192 496 LINE",
"66 496 LINE",
"66 200 LINE SMOOTH",
"66 77 OFFCURVE",
"143 -8 OFFCURVE",
"259 -8 CURVE SMOOTH"
);
},
{
closed = 1;
nodes = (
"436 -200 LINE SMOOTH",
"502 -200 OFFCURVE",
"546 -156 OFFCURVE",
"546 -88 CURVE SMOOTH",
"546 0 LINE",
"422 0 LINE",
"422 -60 LINE SMOOTH",
"422 -80 OFFCURVE",
"412 -90 OFFCURVE",
"394 -90 CURVE SMOOTH",
"124 -90 LINE",
"124 -200 LINE"
);
}
);
};
layerId = "5117E3E8-E17C-4812-BAF5-9E7064564A59";
paths = (
{
closed = 1;
nodes = (
"436 -200 LINE SMOOTH",
"502 -200 OFFCURVE",
"546 -156 OFFCURVE",
"546 -88 CURVE SMOOTH",
"546 496 LINE",
"420 496 LINE",
"420 244 LINE SMOOTH",
"420 152 OFFCURVE",
"375 98 OFFCURVE",
"298 98 CURVE SMOOTH",
"230 98 OFFCURVE",
"192 135 OFFCURVE",
"192 210 CURVE SMOOTH",
"192 496 LINE",
"66 496 LINE",
"66 200 LINE SMOOTH",
"66 77 OFFCURVE",
"143 -8 OFFCURVE",
"259 -8 CURVE SMOOTH",
"348 -8 OFFCURVE",
"388 31 OFFCURVE",
"404 65 CURVE",
"422 65 LINE",
"422 -60 LINE SMOOTH",
"422 -80 OFFCURVE",
"412 -90 OFFCURVE",
"394 -90 CURVE SMOOTH",
"124 -90 LINE",
"124 -200 LINE"
);
}
);
width = 616;
},
{
anchors = (
{
name = top;
position = "{274, 496}";
}
);
associatedMasterId = "5117E3E8-E17C-4812-BAF5-9E7064564A59";
layerId = "9D0E3B52-0C7F-449D-9D20-01CA693A13A8";
name = "Sep 28 19, 01:54";
paths = (
{
closed = 1;
nodes = (
"156 0 LINE",
"306 0 LINE",
"331 -200 LINE",
"544 496 LINE",
"408 496 LINE",
"280 40 LINE",
"268 40 LINE",
"140 496 LINE",
"4 496 LINE"
);
},
{
closed = 1;
nodes = (
"331 -200 LINE",
"544 496 LINE",
"408 496 LINE",
"280 40 LINE",
"264 0 LINE",
"195 -200 LINE"
);
}
);
width = 548;
},
{
anchors = (
{
name = bottom;
position = "{609, -42}";
},
{
name = top;
position = "{303, 486}";
}
);
background = {
anchors = (
{
name = bottom;
position = "{609, -42}";
},
{
name = top;
position = "{303, 486}";
}
);
paths = (
{
closed = 1;
nodes = (
"379 -10 OFFCURVE",
"427 37 OFFCURVE",
"451 84 CURVE",
"463 84 LINE",
"463 0 LINE",
"523 0 LINE",
"523 486 LINE",
"463 486 LINE",
"463 242 LINE SMOOTH",
"463 109 OFFCURVE",
"388 44 OFFCURVE",
"288 44 CURVE SMOOTH",
"199 44 OFFCURVE",
"141 87 OFFCURVE",
"141 193 CURVE SMOOTH",
"141 486 LINE",
"81 486 LINE",
"81 189 LINE SMOOTH",
"81 55 OFFCURVE",
"170 -10 OFFCURVE",
"275 -10 CURVE SMOOTH"
);
},
{
closed = 1;
nodes = (
"445 -200 LINE SMOOTH",
"497 -200 OFFCURVE",
"523 -172 OFFCURVE",
"523 -124 CURVE SMOOTH",
"523 0 LINE",
"463 0 LINE",
"463 -116 LINE SMOOTH",
"463 -136 OFFCURVE",
"455 -146 OFFCURVE",
"433 -146 CURVE SMOOTH",
"149 -146 LINE",
"149 -200 LINE"
);
}
);
};
layerId = "CEFBB1E5-951F-4065-926E-8B9137F837F5";
paths = (
{
closed = 1;
nodes = (
"445 -200 LINE SMOOTH",
"497 -200 OFFCURVE",
"523 -172 OFFCURVE",
"523 -124 CURVE SMOOTH",
"523 486 LINE",
"463 486 LINE",
"463 242 LINE SMOOTH",
"463 109 OFFCURVE",
"388 44 OFFCURVE",
"288 44 CURVE SMOOTH",
"199 44 OFFCURVE",
"141 87 OFFCURVE",
"141 193 CURVE SMOOTH",
"141 486 LINE",
"81 486 LINE",
"81 189 LINE SMOOTH",
"81 55 OFFCURVE",
"170 -10 OFFCURVE",
"275 -10 CURVE SMOOTH",
"379 -10 OFFCURVE",
"427 37 OFFCURVE",
"451 84 CURVE",
"463 84 LINE",
"463 -116 LINE SMOOTH",
"463 -136 OFFCURVE",
"455 -146 OFFCURVE",
"433 -146 CURVE SMOOTH",
"149 -146 LINE",
"149 -200 LINE"
);
}
);
width = 611;
}
);
leftKerningGroup = u;
leftMetricsKey = u;
note = y;
rightKerningGroup = u;
rightMetricsKey = u;
unicode = 0079;
},
{
glyphname = z;
lastChange = "2020-08-11 15:27:37 +0000";
layers = (
{
anchors = (
{
name = bottom;
position = "{261, 0}";
},
{
name = top;
position = "{260, 496}";
}
);
background = {
anchors = (
{
name = bottom;
position = "{261, 0}";
},
{
name = top;
position = "{260, 496}";
}
);
paths = (
{
closed = 1;
nodes = (
"470 0 LINE",
"470 104 LINE",
"190 104 LINE",
"190 120 LINE",
"462 346 LINE",
"462 496 LINE",
"62 496 LINE",
"62 392 LINE",
"324 392 LINE",
"324 376 LINE",
"52 150 LINE",
"52 0 LINE"
);
}
);
};
layerId = "5117E3E8-E17C-4812-BAF5-9E7064564A59";
paths = (
{
closed = 1;
nodes = (
"470 0 LINE",
"470 104 LINE",
"190 104 LINE",
"190 120 LINE",
"462 346 LINE",
"462 496 LINE",
"62 496 LINE",
"62 392 LINE",
"324 392 LINE",
"324 376 LINE",
"52 150 LINE",
"52 0 LINE"
);
}
);
width = 518;
},
{
anchors = (
{
name = bottom;
position = "{262, 0}";
},
{
name = top;
position = "{253, 486}";
}
);
background = {
anchors = (
{
name = bottom;
position = "{262, 0}";
},
{
name = top;
position = "{253, 486}";
}
);
paths = (
{
closed = 1;
nodes = (
"460 0 LINE",
"460 54 LINE",
"124 54 LINE",
"124 64 LINE",
"452 404 LINE",
"452 486 LINE",
"74 486 LINE",
"74 432 LINE",
"391 432 LINE",
"391 422 LINE",
"64 82 LINE",
"64 0 LINE"
);
}
);
};
layerId = "CEFBB1E5-951F-4065-926E-8B9137F837F5";
paths = (
{
closed = 1;
nodes = (
"460 0 LINE",
"460 54 LINE",
"124 54 LINE",
"124 64 LINE",
"452 404 LINE",
"452 486 LINE",
"74 486 LINE",
"74 432 LINE",
"391 432 LINE",
"391 422 LINE",
"64 82 LINE",
"64 0 LINE"
);
}
);
width = 522;
}
);
leftKerningGroup = z;
note = z;
rightKerningGroup = z;
unicode = 007A;
},
{
glyphname = zero;
lastChange = "2020-08-10 18:12:01 +0000";
layers = (
{
background = {
paths = (
{
closed = 1;
nodes = (
"490 -14 OFFCURVE",
"598 76 OFFCURVE",
"598 262 CURVE SMOOTH",
"598 438 LINE SMOOTH",
"598 618 OFFCURVE",
"490 714 OFFCURVE",
"324 714 CURVE SMOOTH",
"158 714 OFFCURVE",
"50 618 OFFCURVE",
"50 438 CURVE SMOOTH",
"50 262 LINE SMOOTH",
"50 76 OFFCURVE",
"158 -14 OFFCURVE",
"324 -14 CURVE SMOOTH"
);
},
{
closed = 1;
nodes = (
"227 100 OFFCURVE",
"178 153 OFFCURVE",
"178 258 CURVE SMOOTH",
"178 444 LINE SMOOTH",
"178 543 OFFCURVE",
"232 600 OFFCURVE",
"324 600 CURVE SMOOTH",
"413 600 OFFCURVE",
"470 547 OFFCURVE",
"470 444 CURVE SMOOTH",
"470 258 LINE SMOOTH",
"470 157 OFFCURVE",
"424 100 OFFCURVE",
"324 100 CURVE SMOOTH"
);
}
);
};
layerId = "5117E3E8-E17C-4812-BAF5-9E7064564A59";
paths = (
{
closed = 1;
nodes = (
"490 -14 OFFCURVE",
"598 76 OFFCURVE",
"598 262 CURVE SMOOTH",
"598 438 LINE SMOOTH",
"598 618 OFFCURVE",
"490 714 OFFCURVE",
"324 714 CURVE SMOOTH",
"158 714 OFFCURVE",
"50 618 OFFCURVE",
"50 438 CURVE SMOOTH",
"50 262 LINE SMOOTH",
"50 76 OFFCURVE",
"158 -14 OFFCURVE",
"324 -14 CURVE SMOOTH"
);
},
{
closed = 1;
nodes = (
"227 100 OFFCURVE",
"178 153 OFFCURVE",
"178 258 CURVE SMOOTH",
"178 444 LINE SMOOTH",
"178 543 OFFCURVE",
"232 600 OFFCURVE",
"324 600 CURVE SMOOTH",
"413 600 OFFCURVE",
"470 547 OFFCURVE",
"470 444 CURVE SMOOTH",
"470 258 LINE SMOOTH",
"470 157 OFFCURVE",
"424 100 OFFCURVE",
"324 100 CURVE SMOOTH"
);
}
);
width = 648;
},
{
background = {
paths = (
{
closed = 1;
nodes = (
"476 -14 OFFCURVE",
"574 82 OFFCURVE",
"574 270 CURVE SMOOTH",
"574 430 LINE SMOOTH",
"574 618 OFFCURVE",
"476 714 OFFCURVE",
"319 714 CURVE SMOOTH",
"162 714 OFFCURVE",
"64 618 OFFCURVE",
"64 430 CURVE SMOOTH",
"64 270 LINE SMOOTH",
"64 82 OFFCURVE",
"162 -14 OFFCURVE",
"319 -14 CURVE SMOOTH"
);
},
{
closed = 1;
nodes = (
"191 42 OFFCURVE",
"126 126 OFFCURVE",
"126 266 CURVE SMOOTH",
"126 434 LINE SMOOTH",
"126 574 OFFCURVE",
"191 658 OFFCURVE",
"319 658 CURVE SMOOTH",
"447 658 OFFCURVE",
"512 574 OFFCURVE",
"512 434 CURVE SMOOTH",
"512 266 LINE SMOOTH",
"512 126 OFFCURVE",
"447 42 OFFCURVE",
"319 42 CURVE SMOOTH"
);
}
);
};
layerId = "CEFBB1E5-951F-4065-926E-8B9137F837F5";
paths = (
{
closed = 1;
nodes = (
"476 -14 OFFCURVE",
"574 82 OFFCURVE",
"574 270 CURVE SMOOTH",
"574 430 LINE SMOOTH",
"574 618 OFFCURVE",
"476 714 OFFCURVE",
"319 714 CURVE SMOOTH",
"162 714 OFFCURVE",
"64 618 OFFCURVE",
"64 430 CURVE SMOOTH",
"64 270 LINE SMOOTH",
"64 82 OFFCURVE",
"162 -14 OFFCURVE",
"319 -14 CURVE SMOOTH"
);
},
{
closed = 1;
nodes = (
"191 42 OFFCURVE",
"126 126 OFFCURVE",
"126 266 CURVE SMOOTH",
"126 434 LINE SMOOTH",
"126 574 OFFCURVE",
"191 658 OFFCURVE",
"319 658 CURVE SMOOTH",
"447 658 OFFCURVE",
"512 574 OFFCURVE",
"512 434 CURVE SMOOTH",
"512 266 LINE SMOOTH",
"512 126 OFFCURVE",
"447 42 OFFCURVE",
"319 42 CURVE SMOOTH"
);
}
);
width = 638;
}
);
leftKerningGroup = zero;
leftMetricsKey = O;
note = zero;
rightKerningGroup = zero;
rightMetricsKey = O;
unicode = 0030;
},
{
glyphname = one;
lastChange = "2020-08-10 18:12:01 +0000";
layers = (
{
background = {
paths = (
{
closed = 1;
nodes = (
"386 0 LINE",
"386 700 LINE",
"155 700 LINE",
"12 384 LINE",
"146 384 LINE",
"240 606 LINE",
"258 606 LINE",
"258 0 LINE"
);
}
);
};
layerId = "5117E3E8-E17C-4812-BAF5-9E7064564A59";
paths = (
{
closed = 1;
nodes = (
"386 0 LINE",
"386 700 LINE",
"155 700 LINE",
"12 384 LINE",
"146 384 LINE",
"240 606 LINE",
"258 606 LINE",
"258 0 LINE"
);
}
);
width = 452;
},
{
background = {
paths = (
{
closed = 1;
nodes = (
"318 0 LINE",
"318 700 LINE",
"197 700 LINE",
"20 402 LINE",
"90 402 LINE",
"243 662 LINE",
"256 662 LINE",
"256 0 LINE"
);
}
);
};
layerId = "CEFBB1E5-951F-4065-926E-8B9137F837F5";
paths = (
{
closed = 1;
nodes = (
"318 0 LINE",
"318 700 LINE",
"197 700 LINE",
"20 402 LINE",
"90 402 LINE",
"243 662 LINE",
"256 662 LINE",
"256 0 LINE"
);
}
);
width = 404;
}
);
leftKerningGroup = one;
note = one;
rightKerningGroup = one;
rightMetricsKey = I;
unicode = 0031;
},
{
glyphname = two;
lastChange = "2020-08-11 15:34:47 +0000";
layers = (
{
background = {
paths = (
{
closed = 1;
nodes = (
"550 0 LINE",
"550 114 LINE",
"173 114 LINE",
"173 118 LINE SMOOTH",
"173 169 OFFCURVE",
"197 198 OFFCURVE",
"283 225 CURVE SMOOTH",
"347 245 LINE SMOOTH",
"466 282 OFFCURVE",
"556 348 OFFCURVE",
"556 483 CURVE SMOOTH",
"556 493 LINE SMOOTH",
"556 627 OFFCURVE",
"445 714 OFFCURVE",
"301 714 CURVE SMOOTH",
"157 714 OFFCURVE",
"44 627 OFFCURVE",
"44 476 CURVE SMOOTH",
"44 460 LINE",
"172 460 LINE",
"172 478 LINE SMOOTH",
"172 557 OFFCURVE",
"223 600 OFFCURVE",
"301 600 CURVE SMOOTH",
"379 600 OFFCURVE",
"428 557 OFFCURVE",
"428 491 CURVE SMOOTH",
"428 487 LINE SMOOTH",
"428 423 OFFCURVE",
"387 381 OFFCURVE",
"314 358 CURVE SMOOTH",
"247 337 LINE SMOOTH",
"115 296 OFFCURVE",
"42 230 OFFCURVE",
"42 84 CURVE SMOOTH",
"42 0 LINE"
);
}
);
};
layerId = "5117E3E8-E17C-4812-BAF5-9E7064564A59";
paths = (
{
closed = 1;
nodes = (
"550 0 LINE",
"550 114 LINE",
"173 114 LINE",
"173 118 LINE SMOOTH",
"173 169 OFFCURVE",
"197 198 OFFCURVE",
"283 225 CURVE SMOOTH",
"347 245 LINE SMOOTH",
"466 282 OFFCURVE",
"556 348 OFFCURVE",
"556 483 CURVE SMOOTH",
"556 493 LINE SMOOTH",
"556 627 OFFCURVE",
"445 714 OFFCURVE",
"301 714 CURVE SMOOTH",
"157 714 OFFCURVE",
"44 627 OFFCURVE",
"44 476 CURVE SMOOTH",
"44 460 LINE",
"172 460 LINE",
"172 478 LINE SMOOTH",
"172 557 OFFCURVE",
"223 600 OFFCURVE",
"301 600 CURVE SMOOTH",
"379 600 OFFCURVE",
"428 557 OFFCURVE",
"428 491 CURVE SMOOTH",
"428 487 LINE SMOOTH",
"428 423 OFFCURVE",
"387 381 OFFCURVE",
"314 358 CURVE SMOOTH",
"247 337 LINE SMOOTH",
"115 296 OFFCURVE",
"42 230 OFFCURVE",
"42 84 CURVE SMOOTH",
"42 0 LINE"
);
}
);
width = 594;
},
{
background = {
paths = (
{
closed = 1;
nodes = (
"547 0 LINE",
"547 56 LINE",
"120 56 LINE",
"120 79 LINE SMOOTH",
"120 187 OFFCURVE",
"181 214 OFFCURVE",
"289 248 CURVE SMOOTH",
"339 263 LINE SMOOTH",
"469 304 OFFCURVE",
"553 358 OFFCURVE",
"553 494 CURVE SMOOTH",
"553 503 LINE SMOOTH",
"553 629 OFFCURVE",
"456 714 OFFCURVE",
"312 714 CURVE SMOOTH",
"168 714 OFFCURVE",
"63 630 OFFCURVE",
"63 478 CURVE SMOOTH",
"63 465 LINE",
"123 465 LINE",
"123 478 LINE SMOOTH",
"123 599 OFFCURVE",
"201 658 OFFCURVE",
"312 658 CURVE SMOOTH",
"416 658 OFFCURVE",
"491 598 OFFCURVE",
"491 501 CURVE SMOOTH",
"491 497 LINE SMOOTH",
"491 392 OFFCURVE",
"423 349 OFFCURVE",
"325 319 CURVE SMOOTH",
"275 303 LINE SMOOTH",
"143 262 OFFCURVE",
"58 219 OFFCURVE",
"58 69 CURVE SMOOTH",
"58 0 LINE"
);
}
);
};
layerId = "CEFBB1E5-951F-4065-926E-8B9137F837F5";
paths = (
{
closed = 1;
nodes = (
"547 0 LINE",
"547 56 LINE",
"120 56 LINE",
"120 79 LINE SMOOTH",
"120 187 OFFCURVE",
"181 214 OFFCURVE",
"289 248 CURVE SMOOTH",
"339 263 LINE SMOOTH",
"469 304 OFFCURVE",
"553 358 OFFCURVE",
"553 494 CURVE SMOOTH",
"553 503 LINE SMOOTH",
"553 629 OFFCURVE",
"456 714 OFFCURVE",
"312 714 CURVE SMOOTH",
"168 714 OFFCURVE",
"63 630 OFFCURVE",
"63 478 CURVE SMOOTH",
"63 465 LINE",
"123 465 LINE",
"123 478 LINE SMOOTH",
"123 599 OFFCURVE",
"201 658 OFFCURVE",
"312 658 CURVE SMOOTH",
"416 658 OFFCURVE",
"491 598 OFFCURVE",
"491 501 CURVE SMOOTH",
"491 497 LINE SMOOTH",
"491 392 OFFCURVE",
"423 349 OFFCURVE",
"325 319 CURVE SMOOTH",
"275 303 LINE SMOOTH",
"143 262 OFFCURVE",
"58 219 OFFCURVE",
"58 69 CURVE SMOOTH",
"58 0 LINE"
);
}
);
width = 606;
}
);
leftKerningGroup = two;
note = two;
rightKerningGroup = two;
unicode = 0032;
},
{
glyphname = three;
lastChange = "2020-08-11 15:41:46 +0000";
layers = (
{
background = {
paths = (
{
closed = 1;
nodes = (
"462 -14 OFFCURVE",
"568 73 OFFCURVE",
"568 210 CURVE SMOOTH",
"568 222 LINE SMOOTH",
"568 348 OFFCURVE",
"467 402 OFFCURVE",
"374 402 CURVE SMOOTH",
"337 402 LINE",
"337 418 LINE",
"548 530 LINE",
"548 700 LINE",
"52 700 LINE",
"52 586 LINE",
"406 586 LINE",
"406 570 LINE",
"180 450 LINE",
"180 310 LINE",
"320 310 LINE SMOOTH",
"388 310 OFFCURVE",
"440 283 OFFCURVE",
"440 219 CURVE SMOOTH",
"440 209 LINE SMOOTH",
"440 146 OFFCURVE",
"390 100 OFFCURVE",
"304 100 CURVE SMOOTH",
"218 100 OFFCURVE",
"162 148 OFFCURVE",
"162 223 CURVE SMOOTH",
"162 237 LINE",
"34 237 LINE",
"34 219 LINE SMOOTH",
"34 75 OFFCURVE",
"146 -14 OFFCURVE",
"304 -14 CURVE SMOOTH"
);
}
);
};
layerId = "5117E3E8-E17C-4812-BAF5-9E7064564A59";
paths = (
{
closed = 1;
nodes = (
"462 -14 OFFCURVE",
"568 73 OFFCURVE",
"568 210 CURVE SMOOTH",
"568 222 LINE SMOOTH",
"568 348 OFFCURVE",
"467 402 OFFCURVE",
"374 402 CURVE SMOOTH",
"337 402 LINE",
"337 418 LINE",
"548 530 LINE",
"548 700 LINE",
"52 700 LINE",
"52 586 LINE",
"406 586 LINE",
"406 570 LINE",
"180 450 LINE",
"180 310 LINE",
"320 310 LINE SMOOTH",
"388 310 OFFCURVE",
"440 283 OFFCURVE",
"440 219 CURVE SMOOTH",
"440 209 LINE SMOOTH",
"440 146 OFFCURVE",
"390 100 OFFCURVE",
"304 100 CURVE SMOOTH",
"218 100 OFFCURVE",
"162 148 OFFCURVE",
"162 223 CURVE SMOOTH",
"162 237 LINE",
"34 237 LINE",
"34 219 LINE SMOOTH",
"34 75 OFFCURVE",
"146 -14 OFFCURVE",
"304 -14 CURVE SMOOTH"
);
}
);
width = 608;
},
{
background = {
paths = (
{
closed = 1;
nodes = (
"451 -14 OFFCURVE",
"547 72 OFFCURVE",
"547 202 CURVE SMOOTH",
"547 212 LINE SMOOTH",
"547 341 OFFCURVE",
"449 409 OFFCURVE",
"320 409 CURVE SMOOTH",
"265 409 LINE",
"265 419 LINE",
"546 610 LINE",
"546 700 LINE",
"66 700 LINE",
"66 644 LINE",
"484 644 LINE",
"484 634 LINE",
"200 441 LINE",
"200 357 LINE",
"303 357 LINE SMOOTH",
"403 357 OFFCURVE",
"485 313 OFFCURVE",
"485 210 CURVE SMOOTH",
"485 204 LINE SMOOTH",
"485 111 OFFCURVE",
"417 42 OFFCURVE",
"303 42 CURVE SMOOTH",
"189 42 OFFCURVE",
"112 111 OFFCURVE",
"112 224 CURVE SMOOTH",
"112 244 LINE",
"50 244 LINE",
"50 225 LINE SMOOTH",
"50 72 OFFCURVE",
"156 -14 OFFCURVE",
"303 -14 CURVE SMOOTH"
);
}
);
};
layerId = "CEFBB1E5-951F-4065-926E-8B9137F837F5";
paths = (
{
closed = 1;
nodes = (
"451 -14 OFFCURVE",
"547 72 OFFCURVE",
"547 202 CURVE SMOOTH",
"547 212 LINE SMOOTH",
"547 341 OFFCURVE",
"449 409 OFFCURVE",
"320 409 CURVE SMOOTH",
"265 409 LINE",
"265 419 LINE",
"546 610 LINE",
"546 700 LINE",
"66 700 LINE",
"66 644 LINE",
"484 644 LINE",
"484 634 LINE",
"200 441 LINE",
"200 357 LINE",
"303 357 LINE SMOOTH",
"403 357 OFFCURVE",
"485 313 OFFCURVE",
"485 210 CURVE SMOOTH",
"485 204 LINE SMOOTH",
"485 111 OFFCURVE",
"417 42 OFFCURVE",
"303 42 CURVE SMOOTH",
"189 42 OFFCURVE",
"112 111 OFFCURVE",
"112 224 CURVE SMOOTH",
"112 244 LINE",
"50 244 LINE",
"50 225 LINE SMOOTH",
"50 72 OFFCURVE",
"156 -14 OFFCURVE",
"303 -14 CURVE SMOOTH"
);
}
);
width = 603;
}
);
leftKerningGroup = three;
note = three;
rightKerningGroup = three;
unicode = 0033;
},
{
glyphname = four;
lastChange = "2020-08-11 15:34:20 +0000";
layers = (
{
background = {
paths = (
{
closed = 1;
nodes = (
"498 0 LINE",
"498 142 LINE",
"614 142 LINE",
"614 256 LINE",
"498 256 LINE",
"498 700 LINE",
"268 700 LINE",
"26 290 LINE",
"26 142 LINE",
"370 142 LINE",
"370 0 LINE"
);
},
{
closed = 1;
nodes = (
"148 272 LINE",
"352 618 LINE",
"370 618 LINE",
"370 256 LINE",
"148 256 LINE"
);
}
);
};
layerId = "5117E3E8-E17C-4812-BAF5-9E7064564A59";
paths = (
{
closed = 1;
nodes = (
"498 0 LINE",
"498 142 LINE",
"614 142 LINE",
"614 256 LINE",
"498 256 LINE",
"498 700 LINE",
"268 700 LINE",
"26 290 LINE",
"26 142 LINE",
"370 142 LINE",
"370 0 LINE"
);
},
{
closed = 1;
nodes = (
"148 272 LINE",
"352 618 LINE",
"370 618 LINE",
"370 256 LINE",
"148 256 LINE"
);
}
);
width = 636;
},
{
background = {
paths = (
{
closed = 1;
nodes = (
"470 0 LINE",
"470 144 LINE",
"592 144 LINE",
"592 200 LINE",
"470 200 LINE",
"470 700 LINE",
"350 700 LINE",
"34 218 LINE",
"34 144 LINE",
"408 144 LINE",
"408 0 LINE"
);
},
{
closed = 1;
nodes = (
"99 210 LINE",
"396 664 LINE",
"408 664 LINE",
"408 200 LINE",
"99 200 LINE"
);
}
);
};
layerId = "CEFBB1E5-951F-4065-926E-8B9137F837F5";
paths = (
{
closed = 1;
nodes = (
"470 0 LINE",
"470 144 LINE",
"592 144 LINE",
"592 200 LINE",
"470 200 LINE",
"470 700 LINE",
"350 700 LINE",
"34 218 LINE",
"34 144 LINE",
"408 144 LINE",
"408 0 LINE"
);
},
{
closed = 1;
nodes = (
"99 210 LINE",
"396 664 LINE",
"408 664 LINE",
"408 200 LINE",
"99 200 LINE"
);
}
);
width = 620;
}
);
leftKerningGroup = four;
note = four;
rightKerningGroup = four;
unicode = 0034;
},
{
glyphname = five;
lastChange = "2020-08-10 18:12:01 +0000";
layers = (
{
background = {
paths = (
{
closed = 1;
nodes = (
"467 -14 OFFCURVE",
"566 79 OFFCURVE",
"566 227 CURVE SMOOTH",
"566 239 LINE SMOOTH",
"566 386 OFFCURVE",
"464 466 OFFCURVE",
"341 466 CURVE SMOOTH",
"266 466 OFFCURVE",
"225 438 OFFCURVE",
"206 413 CURVE",
"188 413 LINE",
"188 584 LINE",
"538 584 LINE",
"538 700 LINE",
"60 700 LINE",
"60 308 LINE",
"215 308 LINE",
"230 332 OFFCURVE",
"256 360 OFFCURVE",
"314 360 CURVE SMOOTH",
"385 360 OFFCURVE",
"438 312 OFFCURVE",
"438 238 CURVE SMOOTH",
"438 228 LINE SMOOTH",
"438 152 OFFCURVE",
"389 100 OFFCURVE",
"301 100 CURVE SMOOTH",
"213 100 OFFCURVE",
"168 154 OFFCURVE",
"168 221 CURVE SMOOTH",
"168 230 LINE",
"38 230 LINE",
"38 220 LINE SMOOTH",
"38 79 OFFCURVE",
"139 -14 OFFCURVE",
"303 -14 CURVE SMOOTH"
);
}
);
};
layerId = "5117E3E8-E17C-4812-BAF5-9E7064564A59";
paths = (
{
closed = 1;
nodes = (
"467 -14 OFFCURVE",
"566 79 OFFCURVE",
"566 227 CURVE SMOOTH",
"566 239 LINE SMOOTH",
"566 386 OFFCURVE",
"464 466 OFFCURVE",
"341 466 CURVE SMOOTH",
"266 466 OFFCURVE",
"225 438 OFFCURVE",
"206 413 CURVE",
"188 413 LINE",
"188 584 LINE",
"538 584 LINE",
"538 700 LINE",
"60 700 LINE",
"60 308 LINE",
"215 308 LINE",
"230 332 OFFCURVE",
"256 360 OFFCURVE",
"314 360 CURVE SMOOTH",
"385 360 OFFCURVE",
"438 312 OFFCURVE",
"438 238 CURVE SMOOTH",
"438 228 LINE SMOOTH",
"438 152 OFFCURVE",
"389 100 OFFCURVE",
"301 100 CURVE SMOOTH",
"213 100 OFFCURVE",
"168 154 OFFCURVE",
"168 221 CURVE SMOOTH",
"168 230 LINE",
"38 230 LINE",
"38 220 LINE SMOOTH",
"38 79 OFFCURVE",
"139 -14 OFFCURVE",
"303 -14 CURVE SMOOTH"
);
}
);
width = 600;
},
{
background = {
paths = (
{
closed = 1;
nodes = (
"452 -14 OFFCURVE",
"545 86 OFFCURVE",
"545 226 CURVE SMOOTH",
"545 236 LINE SMOOTH",
"545 380 OFFCURVE",
"449 470 OFFCURVE",
"328 470 CURVE SMOOTH",
"222 470 OFFCURVE",
"172 418 OFFCURVE",
"151 373 CURVE",
"139 373 LINE",
"139 644 LINE",
"529 644 LINE",
"529 700 LINE",
"77 700 LINE",
"77 327 LINE",
"169 327 LINE",
"188 364 OFFCURVE",
"225 416 OFFCURVE",
"314 416 CURVE SMOOTH",
"415 416 OFFCURVE",
"483 346 OFFCURVE",
"483 235 CURVE SMOOTH",
"483 227 LINE SMOOTH",
"483 111 OFFCURVE",
"414 42 OFFCURVE",
"300 42 CURVE SMOOTH",
"193 42 OFFCURVE",
"118 102 OFFCURVE",
"118 222 CURVE SMOOTH",
"118 232 LINE",
"56 232 LINE",
"56 219 LINE SMOOTH",
"56 80 OFFCURVE",
"153 -14 OFFCURVE",
"301 -14 CURVE SMOOTH"
);
}
);
};
layerId = "CEFBB1E5-951F-4065-926E-8B9137F837F5";
paths = (
{
closed = 1;
nodes = (
"452 -14 OFFCURVE",
"545 86 OFFCURVE",
"545 226 CURVE SMOOTH",
"545 236 LINE SMOOTH",
"545 380 OFFCURVE",
"449 470 OFFCURVE",
"328 470 CURVE SMOOTH",
"222 470 OFFCURVE",
"172 418 OFFCURVE",
"151 373 CURVE",
"139 373 LINE",
"139 644 LINE",
"529 644 LINE",
"529 700 LINE",
"77 700 LINE",
"77 327 LINE",
"169 327 LINE",
"188 364 OFFCURVE",
"225 416 OFFCURVE",
"314 416 CURVE SMOOTH",
"415 416 OFFCURVE",
"483 346 OFFCURVE",
"483 235 CURVE SMOOTH",
"483 227 LINE SMOOTH",
"483 111 OFFCURVE",
"414 42 OFFCURVE",
"300 42 CURVE SMOOTH",
"193 42 OFFCURVE",
"118 102 OFFCURVE",
"118 222 CURVE SMOOTH",
"118 232 LINE",
"56 232 LINE",
"56 219 LINE SMOOTH",
"56 80 OFFCURVE",
"153 -14 OFFCURVE",
"301 -14 CURVE SMOOTH"
);
}
);
width = 598;
}
);
leftKerningGroup = five;
note = five;
rightKerningGroup = five;
unicode = 0035;
},
{
glyphname = six;
lastChange = "2020-08-10 18:12:01 +0000";
layers = (
{
background = {
paths = (
{
closed = 1;
nodes = (
"472 -14 OFFCURVE",
"578 80 OFFCURVE",
"578 219 CURVE SMOOTH",
"578 231 LINE SMOOTH",
"578 371 OFFCURVE",
"471 452 OFFCURVE",
"350 452 CURVE SMOOTH",
"260 452 OFFCURVE",
"219 423 OFFCURVE",
"196 396 CURVE",
"178 396 LINE",
"178 468 LINE SMOOTH",
"178 550 OFFCURVE",
"228 600 OFFCURVE",
"318 600 CURVE SMOOTH",
"408 600 OFFCURVE",
"444 552 OFFCURVE",
"444 496 CURVE",
"574 496 LINE",
"574 632 OFFCURVE",
"474 714 OFFCURVE",
"318 714 CURVE SMOOTH",
"162 714 OFFCURVE",
"50 630 OFFCURVE",
"50 460 CURVE SMOOTH",
"50 221 LINE SMOOTH",
"50 83 OFFCURVE",
"152 -14 OFFCURVE",
"312 -14 CURVE SMOOTH"
);
},
{
closed = 1;
nodes = (
"230 100 OFFCURVE",
"178 147 OFFCURVE",
"178 221 CURVE SMOOTH",
"178 229 LINE SMOOTH",
"178 303 OFFCURVE",
"231 350 OFFCURVE",
"314 350 CURVE SMOOTH",
"397 350 OFFCURVE",
"450 303 OFFCURVE",
"450 229 CURVE SMOOTH",
"450 221 LINE SMOOTH",
"450 147 OFFCURVE",
"398 100 OFFCURVE",
"314 100 CURVE SMOOTH"
);
}
);
};
layerId = "5117E3E8-E17C-4812-BAF5-9E7064564A59";
paths = (
{
closed = 1;
nodes = (
"472 -14 OFFCURVE",
"578 80 OFFCURVE",
"578 219 CURVE SMOOTH",
"578 231 LINE SMOOTH",
"578 371 OFFCURVE",
"471 452 OFFCURVE",
"350 452 CURVE SMOOTH",
"260 452 OFFCURVE",
"219 423 OFFCURVE",
"196 396 CURVE",
"178 396 LINE",
"178 468 LINE SMOOTH",
"178 550 OFFCURVE",
"228 600 OFFCURVE",
"318 600 CURVE SMOOTH",
"408 600 OFFCURVE",
"444 552 OFFCURVE",
"444 496 CURVE",
"574 496 LINE",
"574 632 OFFCURVE",
"474 714 OFFCURVE",
"318 714 CURVE SMOOTH",
"162 714 OFFCURVE",
"50 630 OFFCURVE",
"50 460 CURVE SMOOTH",
"50 221 LINE SMOOTH",
"50 83 OFFCURVE",
"152 -14 OFFCURVE",
"312 -14 CURVE SMOOTH"
);
},
{
closed = 1;
nodes = (
"230 100 OFFCURVE",
"178 147 OFFCURVE",
"178 221 CURVE SMOOTH",
"178 229 LINE SMOOTH",
"178 303 OFFCURVE",
"231 350 OFFCURVE",
"314 350 CURVE SMOOTH",
"397 350 OFFCURVE",
"450 303 OFFCURVE",
"450 229 CURVE SMOOTH",
"450 221 LINE SMOOTH",
"450 147 OFFCURVE",
"398 100 OFFCURVE",
"314 100 CURVE SMOOTH"
);
}
);
width = 618;
},
{
background = {
paths = (
{
closed = 1;
nodes = (
"447 -14 OFFCURVE",
"554 74 OFFCURVE",
"554 217 CURVE SMOOTH",
"554 229 LINE SMOOTH",
"554 370 OFFCURVE",
"453 460 OFFCURVE",
"324 460 CURVE SMOOTH",
"220 460 OFFCURVE",
"163 414 OFFCURVE",
"138 369 CURVE",
"126 369 LINE",
"126 476 LINE SMOOTH",
"126 589 OFFCURVE",
"193 658 OFFCURVE",
"311 658 CURVE SMOOTH",
"425 658 OFFCURVE",
"486 597 OFFCURVE",
"486 505 CURVE",
"548 505 LINE",
"548 622 OFFCURVE",
"465 714 OFFCURVE",
"311 714 CURVE SMOOTH",
"155 714 OFFCURVE",
"64 620 OFFCURVE",
"64 469 CURVE SMOOTH",
"64 222 LINE SMOOTH",
"64 73 OFFCURVE",
"170 -14 OFFCURVE",
"309 -14 CURVE SMOOTH"
);
},
{
closed = 1;
nodes = (
"201 42 OFFCURVE",
"126 109 OFFCURVE",
"126 218 CURVE SMOOTH",
"126 226 LINE SMOOTH",
"126 335 OFFCURVE",
"202 406 OFFCURVE",
"309 406 CURVE SMOOTH",
"416 406 OFFCURVE",
"492 335 OFFCURVE",
"492 226 CURVE SMOOTH",
"492 218 LINE SMOOTH",
"492 109 OFFCURVE",
"417 42 OFFCURVE",
"309 42 CURVE SMOOTH"
);
}
);
};
layerId = "CEFBB1E5-951F-4065-926E-8B9137F837F5";
paths = (
{
closed = 1;
nodes = (
"447 -14 OFFCURVE",
"554 74 OFFCURVE",
"554 217 CURVE SMOOTH",
"554 229 LINE SMOOTH",
"554 370 OFFCURVE",
"453 460 OFFCURVE",
"324 460 CURVE SMOOTH",
"220 460 OFFCURVE",
"163 414 OFFCURVE",
"138 369 CURVE",
"126 369 LINE",
"126 476 LINE SMOOTH",
"126 589 OFFCURVE",
"193 658 OFFCURVE",
"311 658 CURVE SMOOTH",
"425 658 OFFCURVE",
"486 597 OFFCURVE",
"486 505 CURVE",
"548 505 LINE",
"548 622 OFFCURVE",
"465 714 OFFCURVE",
"311 714 CURVE SMOOTH",
"155 714 OFFCURVE",
"64 620 OFFCURVE",
"64 469 CURVE SMOOTH",
"64 222 LINE SMOOTH",
"64 73 OFFCURVE",
"170 -14 OFFCURVE",
"309 -14 CURVE SMOOTH"
);
},
{
closed = 1;
nodes = (
"201 42 OFFCURVE",
"126 109 OFFCURVE",
"126 218 CURVE SMOOTH",
"126 226 LINE SMOOTH",
"126 335 OFFCURVE",
"202 406 OFFCURVE",
"309 406 CURVE SMOOTH",
"416 406 OFFCURVE",
"492 335 OFFCURVE",
"492 226 CURVE SMOOTH",
"492 218 LINE SMOOTH",
"492 109 OFFCURVE",
"417 42 OFFCURVE",
"309 42 CURVE SMOOTH"
);
}
);
width = 610;
}
);
leftKerningGroup = six;
leftMetricsKey = O;
note = six;
rightKerningGroup = six;
unicode = 0036;
},
{
glyphname = seven;
lastChange = "2020-08-10 18:12:01 +0000";
layers = (
{
background = {
paths = (
{
closed = 1;
nodes = (
"259 0 LINE",
"259 20 LINE SMOOTH",
"259 55 OFFCURVE",
"265 74 OFFCURVE",
"282 105 CURVE SMOOTH",
"530 548 LINE",
"530 700 LINE",
"26 700 LINE",
"26 586 LINE",
"398 586 LINE",
"398 570 LINE",
"163 155 LINE SMOOTH",
"136 108 OFFCURVE",
"131 78 OFFCURVE",
"131 26 CURVE SMOOTH",
"131 0 LINE"
);
}
);
};
layerId = "5117E3E8-E17C-4812-BAF5-9E7064564A59";
paths = (
{
closed = 1;
nodes = (
"259 0 LINE",
"259 20 LINE SMOOTH",
"259 55 OFFCURVE",
"265 74 OFFCURVE",
"282 105 CURVE SMOOTH",
"530 548 LINE",
"530 700 LINE",
"26 700 LINE",
"26 586 LINE",
"398 586 LINE",
"398 570 LINE",
"163 155 LINE SMOOTH",
"136 108 OFFCURVE",
"131 78 OFFCURVE",
"131 26 CURVE SMOOTH",
"131 0 LINE"
);
}
);
width = 554;
},
{
background = {
paths = (
{
closed = 1;
nodes = (
"222 0 LINE",
"222 24 LINE SMOOTH",
"222 59 OFFCURVE",
"227 76 OFFCURVE",
"242 103 CURVE SMOOTH",
"534 627 LINE",
"534 700 LINE",
"35 700 LINE",
"35 644 LINE",
"468 644 LINE",
"468 635 LINE",
"189 135 LINE SMOOTH",
"166 92 OFFCURVE",
"160 69 OFFCURVE",
"160 24 CURVE SMOOTH",
"160 0 LINE"
);
}
);
};
layerId = "CEFBB1E5-951F-4065-926E-8B9137F837F5";
paths = (
{
closed = 1;
nodes = (
"222 0 LINE",
"222 24 LINE SMOOTH",
"222 59 OFFCURVE",
"227 76 OFFCURVE",
"242 103 CURVE SMOOTH",
"534 627 LINE",
"534 700 LINE",
"35 700 LINE",
"35 644 LINE",
"468 644 LINE",
"468 635 LINE",
"189 135 LINE SMOOTH",
"166 92 OFFCURVE",
"160 69 OFFCURVE",
"160 24 CURVE SMOOTH",
"160 0 LINE"
);
}
);
width = 568;
}
);
leftKerningGroup = seven;
note = seven;
rightKerningGroup = seven;
unicode = 0037;
},
{
glyphname = eight;
lastChange = "2020-08-11 15:39:20 +0000";
layers = (
{
background = {
paths = (
{
closed = 1;
nodes = (
"460 -14 OFFCURVE",
"572 62 OFFCURVE",
"572 187 CURVE SMOOTH",
"572 199 LINE SMOOTH",
"572 294 OFFCURVE",
"511 339 OFFCURVE",
"464 353 CURVE",
"464 371 LINE",
"511 387 OFFCURVE",
"562 432 OFFCURVE",
"562 517 CURVE SMOOTH",
"562 529 LINE SMOOTH",
"562 638 OFFCURVE",
"458 714 OFFCURVE",
"300 714 CURVE SMOOTH",
"142 714 OFFCURVE",
"38 638 OFFCURVE",
"38 529 CURVE SMOOTH",
"38 517 LINE SMOOTH",
"38 432 OFFCURVE",
"89 387 OFFCURVE",
"136 371 CURVE",
"136 353 LINE",
"89 339 OFFCURVE",
"28 294 OFFCURVE",
"28 199 CURVE SMOOTH",
"28 187 LINE SMOOTH",
"28 62 OFFCURVE",
"140 -14 OFFCURVE",
"300 -14 CURVE SMOOTH"
);
},
{
closed = 1;
nodes = (
"208 100 OFFCURVE",
"156 138 OFFCURVE",
"156 197 CURVE SMOOTH",
"156 205 LINE SMOOTH",
"156 264 OFFCURVE",
"206 302 OFFCURVE",
"300 302 CURVE SMOOTH",
"394 302 OFFCURVE",
"444 264 OFFCURVE",
"444 205 CURVE SMOOTH",
"444 197 LINE SMOOTH",
"444 138 OFFCURVE",
"392 100 OFFCURVE",
"300 100 CURVE SMOOTH"
);
},
{
closed = 1;
nodes = (
"215 416 OFFCURVE",
"166 448 OFFCURVE",
"166 504 CURVE SMOOTH",
"166 512 LINE SMOOTH",
"166 568 OFFCURVE",
"217 600 OFFCURVE",
"300 600 CURVE SMOOTH",
"383 600 OFFCURVE",
"434 568 OFFCURVE",
"434 512 CURVE SMOOTH",
"434 504 LINE SMOOTH",
"434 448 OFFCURVE",
"385 416 OFFCURVE",
"300 416 CURVE SMOOTH"
);
}
);
};
layerId = "5117E3E8-E17C-4812-BAF5-9E7064564A59";
paths = (
{
closed = 1;
nodes = (
"460 -14 OFFCURVE",
"572 62 OFFCURVE",
"572 187 CURVE SMOOTH",
"572 199 LINE SMOOTH",
"572 294 OFFCURVE",
"511 339 OFFCURVE",
"464 353 CURVE",
"464 371 LINE",
"511 387 OFFCURVE",
"562 432 OFFCURVE",
"562 517 CURVE SMOOTH",
"562 529 LINE SMOOTH",
"562 638 OFFCURVE",
"458 714 OFFCURVE",
"300 714 CURVE SMOOTH",
"142 714 OFFCURVE",
"38 638 OFFCURVE",
"38 529 CURVE SMOOTH",
"38 517 LINE SMOOTH",
"38 432 OFFCURVE",
"89 387 OFFCURVE",
"136 371 CURVE",
"136 353 LINE",
"89 339 OFFCURVE",
"28 294 OFFCURVE",
"28 199 CURVE SMOOTH",
"28 187 LINE SMOOTH",
"28 62 OFFCURVE",
"140 -14 OFFCURVE",
"300 -14 CURVE SMOOTH"
);
},
{
closed = 1;
nodes = (
"208 100 OFFCURVE",
"156 138 OFFCURVE",
"156 197 CURVE SMOOTH",
"156 205 LINE SMOOTH",
"156 264 OFFCURVE",
"206 302 OFFCURVE",
"300 302 CURVE SMOOTH",
"394 302 OFFCURVE",
"444 264 OFFCURVE",
"444 205 CURVE SMOOTH",
"444 197 LINE SMOOTH",
"444 138 OFFCURVE",
"392 100 OFFCURVE",
"300 100 CURVE SMOOTH"
);
},
{
closed = 1;
nodes = (
"215 416 OFFCURVE",
"166 448 OFFCURVE",
"166 504 CURVE SMOOTH",
"166 512 LINE SMOOTH",
"166 568 OFFCURVE",
"217 600 OFFCURVE",
"300 600 CURVE SMOOTH",
"383 600 OFFCURVE",
"434 568 OFFCURVE",
"434 512 CURVE SMOOTH",
"434 504 LINE SMOOTH",
"434 448 OFFCURVE",
"385 416 OFFCURVE",
"300 416 CURVE SMOOTH"
);
}
);
width = 600;
},
{
background = {
paths = (
{
closed = 1;
nodes = (
"479 -14 OFFCURVE",
"578 65 OFFCURVE",
"578 183 CURVE SMOOTH",
"578 193 LINE SMOOTH",
"578 301 OFFCURVE",
"493 349 OFFCURVE",
"434 358 CURVE",
"434 370 LINE",
"493 384 OFFCURVE",
"564 430 OFFCURVE",
"564 523 CURVE SMOOTH",
"564 533 LINE SMOOTH",
"564 648 OFFCURVE",
"458 714 OFFCURVE",
"316 714 CURVE SMOOTH",
"174 714 OFFCURVE",
"68 648 OFFCURVE",
"68 533 CURVE SMOOTH",
"68 523 LINE SMOOTH",
"68 430 OFFCURVE",
"139 384 OFFCURVE",
"198 370 CURVE",
"198 358 LINE",
"139 349 OFFCURVE",
"54 301 OFFCURVE",
"54 193 CURVE SMOOTH",
"54 183 LINE SMOOTH",
"54 65 OFFCURVE",
"152 -14 OFFCURVE",
"316 -14 CURVE SMOOTH"
);
},
{
closed = 1;
nodes = (
"195 42 OFFCURVE",
"116 90 OFFCURVE",
"116 184 CURVE SMOOTH",
"116 192 LINE SMOOTH",
"116 286 OFFCURVE",
"194 334 OFFCURVE",
"316 334 CURVE SMOOTH",
"437 334 OFFCURVE",
"516 286 OFFCURVE",
"516 192 CURVE SMOOTH",
"516 184 LINE SMOOTH",
"516 90 OFFCURVE",
"437 42 OFFCURVE",
"316 42 CURVE SMOOTH"
);
},
{
closed = 1;
nodes = (
"201 390 OFFCURVE",
"130 437 OFFCURVE",
"130 520 CURVE SMOOTH",
"130 528 LINE SMOOTH",
"130 611 OFFCURVE",
"201 658 OFFCURVE",
"316 658 CURVE SMOOTH",
"431 658 OFFCURVE",
"502 611 OFFCURVE",
"502 528 CURVE SMOOTH",
"502 520 LINE SMOOTH",
"502 437 OFFCURVE",
"431 390 OFFCURVE",
"316 390 CURVE SMOOTH"
);
}
);
};
layerId = "CEFBB1E5-951F-4065-926E-8B9137F837F5";
paths = (
{
closed = 1;
nodes = (
"479 -14 OFFCURVE",
"578 65 OFFCURVE",
"578 183 CURVE SMOOTH",
"578 193 LINE SMOOTH",
"578 301 OFFCURVE",
"493 349 OFFCURVE",
"434 358 CURVE",
"434 370 LINE",
"493 384 OFFCURVE",
"564 430 OFFCURVE",
"564 523 CURVE SMOOTH",
"564 533 LINE SMOOTH",
"564 648 OFFCURVE",
"458 714 OFFCURVE",
"316 714 CURVE SMOOTH",
"174 714 OFFCURVE",
"68 648 OFFCURVE",
"68 533 CURVE SMOOTH",
"68 523 LINE SMOOTH",
"68 430 OFFCURVE",
"139 384 OFFCURVE",
"198 370 CURVE",
"198 358 LINE",
"139 349 OFFCURVE",
"54 301 OFFCURVE",
"54 193 CURVE SMOOTH",
"54 183 LINE SMOOTH",
"54 65 OFFCURVE",
"152 -14 OFFCURVE",
"316 -14 CURVE SMOOTH"
);
},
{
closed = 1;
nodes = (
"195 42 OFFCURVE",
"116 90 OFFCURVE",
"116 184 CURVE SMOOTH",
"116 192 LINE SMOOTH",
"116 286 OFFCURVE",
"194 334 OFFCURVE",
"316 334 CURVE SMOOTH",
"437 334 OFFCURVE",
"516 286 OFFCURVE",
"516 192 CURVE SMOOTH",
"516 184 LINE SMOOTH",
"516 90 OFFCURVE",
"437 42 OFFCURVE",
"316 42 CURVE SMOOTH"
);
},
{
closed = 1;
nodes = (
"201 390 OFFCURVE",
"130 437 OFFCURVE",
"130 520 CURVE SMOOTH",
"130 528 LINE SMOOTH",
"130 611 OFFCURVE",
"201 658 OFFCURVE",
"316 658 CURVE SMOOTH",
"431 658 OFFCURVE",
"502 611 OFFCURVE",
"502 528 CURVE SMOOTH",
"502 520 LINE SMOOTH",
"502 437 OFFCURVE",
"431 390 OFFCURVE",
"316 390 CURVE SMOOTH"
);
}
);
width = 632;
}
);
leftKerningGroup = eight;
note = eight;
rightKerningGroup = eight;
unicode = 0038;
},
{
glyphname = nine;
lastChange = "2020-08-11 15:39:34 +0000";
layers = (
{
background = {
paths = (
{
closed = 1;
nodes = (
"456 -14 OFFCURVE",
"568 70 OFFCURVE",
"568 240 CURVE SMOOTH",
"568 479 LINE SMOOTH",
"568 617 OFFCURVE",
"466 714 OFFCURVE",
"306 714 CURVE SMOOTH",
"146 714 OFFCURVE",
"40 620 OFFCURVE",
"40 481 CURVE SMOOTH",
"40 469 LINE SMOOTH",
"40 329 OFFCURVE",
"147 248 OFFCURVE",
"268 248 CURVE SMOOTH",
"358 248 OFFCURVE",
"399 277 OFFCURVE",
"422 304 CURVE",
"440 304 LINE",
"440 232 LINE SMOOTH",
"440 150 OFFCURVE",
"390 100 OFFCURVE",
"300 100 CURVE SMOOTH",
"210 100 OFFCURVE",
"174 148 OFFCURVE",
"174 204 CURVE",
"44 204 LINE",
"44 68 OFFCURVE",
"144 -14 OFFCURVE",
"300 -14 CURVE SMOOTH"
);
},
{
closed = 1;
nodes = (
"221 350 OFFCURVE",
"168 397 OFFCURVE",
"168 471 CURVE SMOOTH",
"168 479 LINE SMOOTH",
"168 553 OFFCURVE",
"220 600 OFFCURVE",
"304 600 CURVE SMOOTH",
"388 600 OFFCURVE",
"440 553 OFFCURVE",
"440 479 CURVE SMOOTH",
"440 471 LINE SMOOTH",
"440 397 OFFCURVE",
"387 350 OFFCURVE",
"304 350 CURVE SMOOTH"
);
}
);
};
layerId = "5117E3E8-E17C-4812-BAF5-9E7064564A59";
paths = (
{
closed = 1;
nodes = (
"456 -14 OFFCURVE",
"568 70 OFFCURVE",
"568 240 CURVE SMOOTH",
"568 479 LINE SMOOTH",
"568 617 OFFCURVE",
"466 714 OFFCURVE",
"306 714 CURVE SMOOTH",
"146 714 OFFCURVE",
"40 620 OFFCURVE",
"40 481 CURVE SMOOTH",
"40 469 LINE SMOOTH",
"40 329 OFFCURVE",
"147 248 OFFCURVE",
"268 248 CURVE SMOOTH",
"358 248 OFFCURVE",
"399 277 OFFCURVE",
"422 304 CURVE",
"440 304 LINE",
"440 232 LINE SMOOTH",
"440 150 OFFCURVE",
"390 100 OFFCURVE",
"300 100 CURVE SMOOTH",
"210 100 OFFCURVE",
"174 148 OFFCURVE",
"174 204 CURVE",
"44 204 LINE",
"44 68 OFFCURVE",
"144 -14 OFFCURVE",
"300 -14 CURVE SMOOTH"
);
},
{
closed = 1;
nodes = (
"221 350 OFFCURVE",
"168 397 OFFCURVE",
"168 471 CURVE SMOOTH",
"168 479 LINE SMOOTH",
"168 553 OFFCURVE",
"220 600 OFFCURVE",
"304 600 CURVE SMOOTH",
"388 600 OFFCURVE",
"440 553 OFFCURVE",
"440 479 CURVE SMOOTH",
"440 471 LINE SMOOTH",
"440 397 OFFCURVE",
"387 350 OFFCURVE",
"304 350 CURVE SMOOTH"
);
}
);
width = 618;
},
{
background = {
paths = (
{
closed = 1;
nodes = (
"455 -14 OFFCURVE",
"546 80 OFFCURVE",
"546 231 CURVE SMOOTH",
"546 478 LINE SMOOTH",
"546 627 OFFCURVE",
"440 714 OFFCURVE",
"301 714 CURVE SMOOTH",
"163 714 OFFCURVE",
"56 626 OFFCURVE",
"56 483 CURVE SMOOTH",
"56 471 LINE SMOOTH",
"56 330 OFFCURVE",
"157 240 OFFCURVE",
"286 240 CURVE SMOOTH",
"390 240 OFFCURVE",
"447 286 OFFCURVE",
"472 331 CURVE",
"484 331 LINE",
"484 224 LINE SMOOTH",
"484 111 OFFCURVE",
"417 42 OFFCURVE",
"299 42 CURVE SMOOTH",
"185 42 OFFCURVE",
"124 103 OFFCURVE",
"124 195 CURVE",
"62 195 LINE",
"62 78 OFFCURVE",
"145 -14 OFFCURVE",
"299 -14 CURVE SMOOTH"
);
},
{
closed = 1;
nodes = (
"194 294 OFFCURVE",
"118 365 OFFCURVE",
"118 474 CURVE SMOOTH",
"118 482 LINE SMOOTH",
"118 591 OFFCURVE",
"193 658 OFFCURVE",
"301 658 CURVE SMOOTH",
"409 658 OFFCURVE",
"484 591 OFFCURVE",
"484 482 CURVE SMOOTH",
"484 474 LINE SMOOTH",
"484 365 OFFCURVE",
"408 294 OFFCURVE",
"301 294 CURVE SMOOTH"
);
}
);
};
layerId = "CEFBB1E5-951F-4065-926E-8B9137F837F5";
paths = (
{
closed = 1;
nodes = (
"455 -14 OFFCURVE",
"546 80 OFFCURVE",
"546 231 CURVE SMOOTH",
"546 478 LINE SMOOTH",
"546 627 OFFCURVE",
"440 714 OFFCURVE",
"301 714 CURVE SMOOTH",
"163 714 OFFCURVE",
"56 626 OFFCURVE",
"56 483 CURVE SMOOTH",
"56 471 LINE SMOOTH",
"56 330 OFFCURVE",
"157 240 OFFCURVE",
"286 240 CURVE SMOOTH",
"390 240 OFFCURVE",
"447 286 OFFCURVE",
"472 331 CURVE",
"484 331 LINE",
"484 224 LINE SMOOTH",
"484 111 OFFCURVE",
"417 42 OFFCURVE",
"299 42 CURVE SMOOTH",
"185 42 OFFCURVE",
"124 103 OFFCURVE",
"124 195 CURVE",
"62 195 LINE",
"62 78 OFFCURVE",
"145 -14 OFFCURVE",
"299 -14 CURVE SMOOTH"
);
},
{
closed = 1;
nodes = (
"194 294 OFFCURVE",
"118 365 OFFCURVE",
"118 474 CURVE SMOOTH",
"118 482 LINE SMOOTH",
"118 591 OFFCURVE",
"193 658 OFFCURVE",
"301 658 CURVE SMOOTH",
"409 658 OFFCURVE",
"484 591 OFFCURVE",
"484 482 CURVE SMOOTH",
"484 474 LINE SMOOTH",
"484 365 OFFCURVE",
"408 294 OFFCURVE",
"301 294 CURVE SMOOTH"
);
}
);
width = 610;
}
);
leftKerningGroup = nine;
note = nine;
rightKerningGroup = nine;
rightMetricsKey = O;
unicode = 0039;
},
{
glyphname = bracketleft;
lastChange = "2020-08-10 18:12:01 +0000";
layers = (
{
background = {
paths = (
{
closed = 1;
nodes = (
"342 -246 LINE",
"342 -138 LINE",
"219 -138 LINE SMOOTH",
"201 -138 OFFCURVE",
"192 -128 OFFCURVE",
"192 -108 CURVE SMOOTH",
"192 618 LINE SMOOTH",
"192 638 OFFCURVE",
"201 648 OFFCURVE",
"219 648 CURVE SMOOTH",
"342 648 LINE",
"342 756 LINE",
"172 756 LINE SMOOTH",
"112 756 OFFCURVE",
"70 714 OFFCURVE",
"70 654 CURVE SMOOTH",
"70 -144 LINE SMOOTH",
"70 -204 OFFCURVE",
"112 -246 OFFCURVE",
"172 -246 CURVE SMOOTH"
);
}
);
};
layerId = "5117E3E8-E17C-4812-BAF5-9E7064564A59";
paths = (
{
closed = 1;
nodes = (
"342 -246 LINE",
"342 -138 LINE",
"219 -138 LINE SMOOTH",
"201 -138 OFFCURVE",
"192 -128 OFFCURVE",
"192 -108 CURVE SMOOTH",
"192 618 LINE SMOOTH",
"192 638 OFFCURVE",
"201 648 OFFCURVE",
"219 648 CURVE SMOOTH",
"342 648 LINE",
"342 756 LINE",
"172 756 LINE SMOOTH",
"112 756 OFFCURVE",
"70 714 OFFCURVE",
"70 654 CURVE SMOOTH",
"70 -144 LINE SMOOTH",
"70 -204 OFFCURVE",
"112 -246 OFFCURVE",
"172 -246 CURVE SMOOTH"
);
}
);
width = 358;
},
{
background = {
paths = (
{
closed = 1;
nodes = (
"306 -230 LINE",
"306 -178 LINE",
"173 -178 LINE SMOOTH",
"155 -178 OFFCURVE",
"146 -168 OFFCURVE",
"146 -148 CURVE SMOOTH",
"146 658 LINE SMOOTH",
"146 678 OFFCURVE",
"155 688 OFFCURVE",
"173 688 CURVE SMOOTH",
"306 688 LINE",
"306 740 LINE",
"156 740 LINE SMOOTH",
"116 740 OFFCURVE",
"88 710 OFFCURVE",
"88 671 CURVE SMOOTH",
"88 -161 LINE SMOOTH",
"88 -200 OFFCURVE",
"116 -230 OFFCURVE",
"156 -230 CURVE SMOOTH"
);
}
);
};
layerId = "CEFBB1E5-951F-4065-926E-8B9137F837F5";
paths = (
{
closed = 1;
nodes = (
"306 -230 LINE",
"306 -178 LINE",
"173 -178 LINE SMOOTH",
"155 -178 OFFCURVE",
"146 -168 OFFCURVE",
"146 -148 CURVE SMOOTH",
"146 658 LINE SMOOTH",
"146 678 OFFCURVE",
"155 688 OFFCURVE",
"173 688 CURVE SMOOTH",
"306 688 LINE",
"306 740 LINE",
"156 740 LINE SMOOTH",
"116 740 OFFCURVE",
"88 710 OFFCURVE",
"88 671 CURVE SMOOTH",
"88 -161 LINE SMOOTH",
"88 -200 OFFCURVE",
"116 -230 OFFCURVE",
"156 -230 CURVE SMOOTH"
);
}
);
width = 326;
}
);
leftMetricsKey = l;
note = bracketleft;
rightKerningGroup = bracketleft;
rightMetricsKey = braceleft;
unicode = 005B;
},
{
glyphname = bracketright;
lastChange = "2020-08-11 15:36:30 +0000";
layers = (
{
background = {
paths = (
{
closed = 1;
nodes = (
"186 -246 LINE SMOOTH",
"246 -246 OFFCURVE",
"288 -204 OFFCURVE",
"288 -144 CURVE SMOOTH",
"288 654 LINE SMOOTH",
"288 714 OFFCURVE",
"246 756 OFFCURVE",
"186 756 CURVE SMOOTH",
"16 756 LINE",
"16 648 LINE",
"139 648 LINE SMOOTH",
"157 648 OFFCURVE",
"166 638 OFFCURVE",
"166 618 CURVE SMOOTH",
"166 -108 LINE SMOOTH",
"166 -128 OFFCURVE",
"157 -138 OFFCURVE",
"139 -138 CURVE SMOOTH",
"16 -138 LINE",
"16 -246 LINE"
);
}
);
};
layerId = "5117E3E8-E17C-4812-BAF5-9E7064564A59";
paths = (
{
closed = 1;
nodes = (
"186 -246 LINE SMOOTH",
"246 -246 OFFCURVE",
"288 -204 OFFCURVE",
"288 -144 CURVE SMOOTH",
"288 654 LINE SMOOTH",
"288 714 OFFCURVE",
"246 756 OFFCURVE",
"186 756 CURVE SMOOTH",
"16 756 LINE",
"16 648 LINE",
"139 648 LINE SMOOTH",
"157 648 OFFCURVE",
"166 638 OFFCURVE",
"166 618 CURVE SMOOTH",
"166 -108 LINE SMOOTH",
"166 -128 OFFCURVE",
"157 -138 OFFCURVE",
"139 -138 CURVE SMOOTH",
"16 -138 LINE",
"16 -246 LINE"
);
}
);
width = 358;
},
{
background = {
paths = (
{
closed = 1;
nodes = (
"170 -230 LINE SMOOTH",
"210 -230 OFFCURVE",
"238 -200 OFFCURVE",
"238 -161 CURVE SMOOTH",
"238 671 LINE SMOOTH",
"238 710 OFFCURVE",
"210 740 OFFCURVE",
"170 740 CURVE SMOOTH",
"20 740 LINE",
"20 688 LINE",
"153 688 LINE SMOOTH",
"171 688 OFFCURVE",
"180 678 OFFCURVE",
"180 658 CURVE SMOOTH",
"180 -148 LINE SMOOTH",
"180 -168 OFFCURVE",
"171 -178 OFFCURVE",
"153 -178 CURVE SMOOTH",
"20 -178 LINE",
"20 -230 LINE"
);
}
);
};
layerId = "CEFBB1E5-951F-4065-926E-8B9137F837F5";
paths = (
{
closed = 1;
nodes = (
"170 -230 LINE SMOOTH",
"210 -230 OFFCURVE",
"238 -200 OFFCURVE",
"238 -161 CURVE SMOOTH",
"238 671 LINE SMOOTH",
"238 710 OFFCURVE",
"210 740 OFFCURVE",
"170 740 CURVE SMOOTH",
"20 740 LINE",
"20 688 LINE",
"153 688 LINE SMOOTH",
"171 688 OFFCURVE",
"180 678 OFFCURVE",
"180 658 CURVE SMOOTH",
"180 -148 LINE SMOOTH",
"180 -168 OFFCURVE",
"171 -178 OFFCURVE",
"153 -178 CURVE SMOOTH",
"20 -178 LINE",
"20 -230 LINE"
);
}
);
width = 326;
}
);
leftKerningGroup = bracketright;
leftMetricsKey = braceright;
note = bracketright;
rightMetricsKey = l;
unicode = 005D;
},
{
glyphname = braceleft;
lastChange = "2020-08-10 18:12:01 +0000";
layers = (
{
background = {
paths = (
{
closed = 1;
nodes = (
"450 -246 LINE",
"450 -138 LINE",
"327 -138 LINE SMOOTH",
"309 -138 OFFCURVE",
"300 -128 OFFCURVE",
"300 -108 CURVE SMOOTH",
"300 166 LINE SMOOTH",
"300 211 OFFCURVE",
"269 246 OFFCURVE",
"222 246 CURVE SMOOTH",
"206 246 LINE",
"206 264 LINE",
"222 264 LINE SMOOTH",
"269 264 OFFCURVE",
"300 299 OFFCURVE",
"300 344 CURVE SMOOTH",
"300 618 LINE SMOOTH",
"300 638 OFFCURVE",
"309 648 OFFCURVE",
"327 648 CURVE SMOOTH",
"450 648 LINE",
"450 756 LINE",
"280 756 LINE SMOOTH",
"220 756 OFFCURVE",
"178 714 OFFCURVE",
"178 654 CURVE SMOOTH",
"178 344 LINE SMOOTH",
"178 325 OFFCURVE",
"169 315 OFFCURVE",
"151 315 CURVE SMOOTH",
"36 315 LINE",
"36 195 LINE",
"151 195 LINE SMOOTH",
"169 195 OFFCURVE",
"178 185 OFFCURVE",
"178 166 CURVE SMOOTH",
"178 -144 LINE SMOOTH",
"178 -204 OFFCURVE",
"220 -246 OFFCURVE",
"280 -246 CURVE SMOOTH"
);
}
);
};
layerId = "5117E3E8-E17C-4812-BAF5-9E7064564A59";
paths = (
{
closed = 1;
nodes = (
"450 -246 LINE",
"450 -138 LINE",
"327 -138 LINE SMOOTH",
"309 -138 OFFCURVE",
"300 -128 OFFCURVE",
"300 -108 CURVE SMOOTH",
"300 166 LINE SMOOTH",
"300 211 OFFCURVE",
"269 246 OFFCURVE",
"222 246 CURVE SMOOTH",
"206 246 LINE",
"206 264 LINE",
"222 264 LINE SMOOTH",
"269 264 OFFCURVE",
"300 299 OFFCURVE",
"300 344 CURVE SMOOTH",
"300 618 LINE SMOOTH",
"300 638 OFFCURVE",
"309 648 OFFCURVE",
"327 648 CURVE SMOOTH",
"450 648 LINE",
"450 756 LINE",
"280 756 LINE SMOOTH",
"220 756 OFFCURVE",
"178 714 OFFCURVE",
"178 654 CURVE SMOOTH",
"178 344 LINE SMOOTH",
"178 325 OFFCURVE",
"169 315 OFFCURVE",
"151 315 CURVE SMOOTH",
"36 315 LINE",
"36 195 LINE",
"151 195 LINE SMOOTH",
"169 195 OFFCURVE",
"178 185 OFFCURVE",
"178 166 CURVE SMOOTH",
"178 -144 LINE SMOOTH",
"178 -204 OFFCURVE",
"220 -246 OFFCURVE",
"280 -246 CURVE SMOOTH"
);
}
);
width = 466;
},
{
background = {
paths = (
{
closed = 1;
nodes = (
"398 -230 LINE",
"398 -178 LINE",
"265 -178 LINE SMOOTH",
"247 -178 OFFCURVE",
"238 -168 OFFCURVE",
"238 -148 CURVE SMOOTH",
"238 169 LINE SMOOTH",
"238 218 OFFCURVE",
"213 249 OFFCURVE",
"165 249 CURVE SMOOTH",
"162 249 LINE",
"162 261 LINE",
"165 261 LINE SMOOTH",
"213 261 OFFCURVE",
"238 292 OFFCURVE",
"238 341 CURVE SMOOTH",
"238 658 LINE SMOOTH",
"238 678 OFFCURVE",
"247 688 OFFCURVE",
"265 688 CURVE SMOOTH",
"398 688 LINE",
"398 740 LINE",
"248 740 LINE SMOOTH",
"209 740 OFFCURVE",
"180 710 OFFCURVE",
"180 671 CURVE SMOOTH",
"180 343 LINE SMOOTH",
"180 304 OFFCURVE",
"159 284 OFFCURVE",
"115 284 CURVE SMOOTH",
"40 284 LINE",
"40 226 LINE",
"115 226 LINE SMOOTH",
"159 226 OFFCURVE",
"180 206 OFFCURVE",
"180 167 CURVE SMOOTH",
"180 -161 LINE SMOOTH",
"180 -200 OFFCURVE",
"209 -230 OFFCURVE",
"248 -230 CURVE SMOOTH"
);
}
);
};
layerId = "CEFBB1E5-951F-4065-926E-8B9137F837F5";
paths = (
{
closed = 1;
nodes = (
"398 -230 LINE",
"398 -178 LINE",
"265 -178 LINE SMOOTH",
"247 -178 OFFCURVE",
"238 -168 OFFCURVE",
"238 -148 CURVE SMOOTH",
"238 169 LINE SMOOTH",
"238 218 OFFCURVE",
"213 249 OFFCURVE",
"165 249 CURVE SMOOTH",
"162 249 LINE",
"162 261 LINE",
"165 261 LINE SMOOTH",
"213 261 OFFCURVE",
"238 292 OFFCURVE",
"238 341 CURVE SMOOTH",
"238 658 LINE SMOOTH",
"238 678 OFFCURVE",
"247 688 OFFCURVE",
"265 688 CURVE SMOOTH",
"398 688 LINE",
"398 740 LINE",
"248 740 LINE SMOOTH",
"209 740 OFFCURVE",
"180 710 OFFCURVE",
"180 671 CURVE SMOOTH",
"180 343 LINE SMOOTH",
"180 304 OFFCURVE",
"159 284 OFFCURVE",
"115 284 CURVE SMOOTH",
"40 284 LINE",
"40 226 LINE",
"115 226 LINE SMOOTH",
"159 226 OFFCURVE",
"180 206 OFFCURVE",
"180 167 CURVE SMOOTH",
"180 -161 LINE SMOOTH",
"180 -200 OFFCURVE",
"209 -230 OFFCURVE",
"248 -230 CURVE SMOOTH"
);
}
);
width = 418;
}
);
note = braceleft;
rightKerningGroup = bracketleft;
unicode = 007B;
},
{
glyphname = braceright;
lastChange = "2020-08-10 18:12:01 +0000";
layers = (
{
background = {
paths = (
{
closed = 1;
nodes = (
"186 -246 LINE SMOOTH",
"246 -246 OFFCURVE",
"288 -204 OFFCURVE",
"288 -144 CURVE SMOOTH",
"288 166 LINE SMOOTH",
"288 185 OFFCURVE",
"297 195 OFFCURVE",
"315 195 CURVE SMOOTH",
"430 195 LINE",
"430 315 LINE",
"315 315 LINE SMOOTH",
"297 315 OFFCURVE",
"288 325 OFFCURVE",
"288 344 CURVE SMOOTH",
"288 654 LINE SMOOTH",
"288 714 OFFCURVE",
"246 756 OFFCURVE",
"186 756 CURVE SMOOTH",
"16 756 LINE",
"16 648 LINE",
"139 648 LINE SMOOTH",
"157 648 OFFCURVE",
"166 638 OFFCURVE",
"166 618 CURVE SMOOTH",
"166 344 LINE SMOOTH",
"166 299 OFFCURVE",
"197 264 OFFCURVE",
"244 264 CURVE SMOOTH",
"260 264 LINE",
"260 246 LINE",
"244 246 LINE SMOOTH",
"197 246 OFFCURVE",
"166 211 OFFCURVE",
"166 166 CURVE SMOOTH",
"166 -108 LINE SMOOTH",
"166 -128 OFFCURVE",
"157 -138 OFFCURVE",
"139 -138 CURVE SMOOTH",
"16 -138 LINE",
"16 -246 LINE"
);
}
);
};
layerId = "5117E3E8-E17C-4812-BAF5-9E7064564A59";
paths = (
{
closed = 1;
nodes = (
"186 -246 LINE SMOOTH",
"246 -246 OFFCURVE",
"288 -204 OFFCURVE",
"288 -144 CURVE SMOOTH",
"288 166 LINE SMOOTH",
"288 185 OFFCURVE",
"297 195 OFFCURVE",
"315 195 CURVE SMOOTH",
"430 195 LINE",
"430 315 LINE",
"315 315 LINE SMOOTH",
"297 315 OFFCURVE",
"288 325 OFFCURVE",
"288 344 CURVE SMOOTH",
"288 654 LINE SMOOTH",
"288 714 OFFCURVE",
"246 756 OFFCURVE",
"186 756 CURVE SMOOTH",
"16 756 LINE",
"16 648 LINE",
"139 648 LINE SMOOTH",
"157 648 OFFCURVE",
"166 638 OFFCURVE",
"166 618 CURVE SMOOTH",
"166 344 LINE SMOOTH",
"166 299 OFFCURVE",
"197 264 OFFCURVE",
"244 264 CURVE SMOOTH",
"260 264 LINE",
"260 246 LINE",
"244 246 LINE SMOOTH",
"197 246 OFFCURVE",
"166 211 OFFCURVE",
"166 166 CURVE SMOOTH",
"166 -108 LINE SMOOTH",
"166 -128 OFFCURVE",
"157 -138 OFFCURVE",
"139 -138 CURVE SMOOTH",
"16 -138 LINE",
"16 -246 LINE"
);
}
);
width = 466;
},
{
background = {
paths = (
{
closed = 1;
nodes = (
"170 -230 LINE SMOOTH",
"209 -230 OFFCURVE",
"238 -200 OFFCURVE",
"238 -161 CURVE SMOOTH",
"238 167 LINE SMOOTH",
"238 206 OFFCURVE",
"259 226 OFFCURVE",
"303 226 CURVE SMOOTH",
"378 226 LINE",
"378 284 LINE",
"303 284 LINE SMOOTH",
"259 284 OFFCURVE",
"238 304 OFFCURVE",
"238 343 CURVE SMOOTH",
"238 671 LINE SMOOTH",
"238 710 OFFCURVE",
"209 740 OFFCURVE",
"170 740 CURVE SMOOTH",
"20 740 LINE",
"20 688 LINE",
"153 688 LINE SMOOTH",
"171 688 OFFCURVE",
"180 678 OFFCURVE",
"180 658 CURVE SMOOTH",
"180 341 LINE SMOOTH",
"180 292 OFFCURVE",
"205 261 OFFCURVE",
"253 261 CURVE SMOOTH",
"256 261 LINE",
"256 249 LINE",
"253 249 LINE SMOOTH",
"205 249 OFFCURVE",
"180 218 OFFCURVE",
"180 169 CURVE SMOOTH",
"180 -148 LINE SMOOTH",
"180 -168 OFFCURVE",
"171 -178 OFFCURVE",
"153 -178 CURVE SMOOTH",
"20 -178 LINE",
"20 -230 LINE"
);
}
);
};
layerId = "CEFBB1E5-951F-4065-926E-8B9137F837F5";
paths = (
{
closed = 1;
nodes = (
"170 -230 LINE SMOOTH",
"209 -230 OFFCURVE",
"238 -200 OFFCURVE",
"238 -161 CURVE SMOOTH",
"238 167 LINE SMOOTH",
"238 206 OFFCURVE",
"259 226 OFFCURVE",
"303 226 CURVE SMOOTH",
"378 226 LINE",
"378 284 LINE",
"303 284 LINE SMOOTH",
"259 284 OFFCURVE",
"238 304 OFFCURVE",
"238 343 CURVE SMOOTH",
"238 671 LINE SMOOTH",
"238 710 OFFCURVE",
"209 740 OFFCURVE",
"170 740 CURVE SMOOTH",
"20 740 LINE",
"20 688 LINE",
"153 688 LINE SMOOTH",
"171 688 OFFCURVE",
"180 678 OFFCURVE",
"180 658 CURVE SMOOTH",
"180 341 LINE SMOOTH",
"180 292 OFFCURVE",
"205 261 OFFCURVE",
"253 261 CURVE SMOOTH",
"256 261 LINE",
"256 249 LINE",
"253 249 LINE SMOOTH",
"205 249 OFFCURVE",
"180 218 OFFCURVE",
"180 169 CURVE SMOOTH",
"180 -148 LINE SMOOTH",
"180 -168 OFFCURVE",
"171 -178 OFFCURVE",
"153 -178 CURVE SMOOTH",
"20 -178 LINE",
"20 -230 LINE"
);
}
);
width = 418;
}
);
leftKerningGroup = bracketright;
note = braceright;
unicode = 007D;
},
{
glyphname = parenleft;
lastChange = "2020-08-10 18:12:01 +0000";
layers = (
{
background = {
paths = (
{
closed = 1;
nodes = (
"390 -138 LINE",
"244 -138 OFFCURVE",
"172 -57 OFFCURVE",
"172 120 CURVE SMOOTH",
"172 390 LINE SMOOTH",
"172 567 OFFCURVE",
"244 648 OFFCURVE",
"390 648 CURVE",
"390 756 LINE",
"167 756 OFFCURVE",
"50 642 OFFCURVE",
"50 394 CURVE SMOOTH",
"50 116 LINE SMOOTH",
"50 -132 OFFCURVE",
"167 -246 OFFCURVE",
"390 -246 CURVE"
);
}
);
};
layerId = "5117E3E8-E17C-4812-BAF5-9E7064564A59";
paths = (
{
closed = 1;
nodes = (
"390 -138 LINE",
"244 -138 OFFCURVE",
"172 -57 OFFCURVE",
"172 120 CURVE SMOOTH",
"172 390 LINE SMOOTH",
"172 567 OFFCURVE",
"244 648 OFFCURVE",
"390 648 CURVE",
"390 756 LINE",
"167 756 OFFCURVE",
"50 642 OFFCURVE",
"50 394 CURVE SMOOTH",
"50 116 LINE SMOOTH",
"50 -132 OFFCURVE",
"167 -246 OFFCURVE",
"390 -246 CURVE"
);
}
);
width = 398;
},
{
background = {
paths = (
{
closed = 1;
nodes = (
"361 -178 LINE",
"195 -175 OFFCURVE",
"122 -89 OFFCURVE",
"122 89 CURVE SMOOTH",
"122 421 LINE SMOOTH",
"122 599 OFFCURVE",
"195 685 OFFCURVE",
"361 688 CURVE",
"361 740 LINE",
"179 740 OFFCURVE",
"64 651 OFFCURVE",
"64 426 CURVE SMOOTH",
"64 84 LINE SMOOTH",
"64 -141 OFFCURVE",
"179 -230 OFFCURVE",
"361 -230 CURVE"
);
}
);
};
layerId = "CEFBB1E5-951F-4065-926E-8B9137F837F5";
paths = (
{
closed = 1;
nodes = (
"361 -178 LINE",
"195 -175 OFFCURVE",
"122 -89 OFFCURVE",
"122 89 CURVE SMOOTH",
"122 421 LINE SMOOTH",
"122 599 OFFCURVE",
"195 685 OFFCURVE",
"361 688 CURVE",
"361 740 LINE",
"179 740 OFFCURVE",
"64 651 OFFCURVE",
"64 426 CURVE SMOOTH",
"64 84 LINE SMOOTH",
"64 -141 OFFCURVE",
"179 -230 OFFCURVE",
"361 -230 CURVE"
);
}
);
width = 371;
}
);
leftMetricsKey = O;
note = parenleft;
unicode = 0028;
},
{
glyphname = parenright;
lastChange = "2020-08-11 15:56:49 +0000";
layers = (
{
background = {
paths = (
{
closed = 1;
nodes = (
"223 -246 OFFCURVE",
"340 -132 OFFCURVE",
"340 116 CURVE SMOOTH",
"340 394 LINE SMOOTH",
"340 642 OFFCURVE",
"223 756 OFFCURVE",
"0 756 CURVE",
"0 648 LINE",
"146 648 OFFCURVE",
"218 567 OFFCURVE",
"218 390 CURVE SMOOTH",
"218 120 LINE SMOOTH",
"218 -57 OFFCURVE",
"146 -138 OFFCURVE",
"0 -138 CURVE",
"0 -246 LINE"
);
}
);
};
layerId = "5117E3E8-E17C-4812-BAF5-9E7064564A59";
paths = (
{
closed = 1;
nodes = (
"223 -246 OFFCURVE",
"340 -132 OFFCURVE",
"340 116 CURVE SMOOTH",
"340 394 LINE SMOOTH",
"340 642 OFFCURVE",
"223 756 OFFCURVE",
"0 756 CURVE",
"0 648 LINE",
"146 648 OFFCURVE",
"218 567 OFFCURVE",
"218 390 CURVE SMOOTH",
"218 120 LINE SMOOTH",
"218 -57 OFFCURVE",
"146 -138 OFFCURVE",
"0 -138 CURVE",
"0 -246 LINE"
);
}
);
width = 390;
},
{
background = {
paths = (
{
closed = 1;
nodes = (
"192 -230 OFFCURVE",
"307 -141 OFFCURVE",
"307 84 CURVE SMOOTH",
"307 426 LINE SMOOTH",
"307 651 OFFCURVE",
"192 740 OFFCURVE",
"10 740 CURVE",
"10 688 LINE",
"176 685 OFFCURVE",
"249 599 OFFCURVE",
"249 421 CURVE SMOOTH",
"249 89 LINE SMOOTH",
"249 -89 OFFCURVE",
"176 -175 OFFCURVE",
"10 -178 CURVE",
"10 -230 LINE"
);
}
);
};
layerId = "CEFBB1E5-951F-4065-926E-8B9137F837F5";
paths = (
{
closed = 1;
nodes = (
"192 -230 OFFCURVE",
"307 -141 OFFCURVE",
"307 84 CURVE SMOOTH",
"307 426 LINE SMOOTH",
"307 651 OFFCURVE",
"192 740 OFFCURVE",
"10 740 CURVE",
"10 688 LINE",
"176 685 OFFCURVE",
"249 599 OFFCURVE",
"249 421 CURVE SMOOTH",
"249 89 LINE SMOOTH",
"249 -89 OFFCURVE",
"176 -175 OFFCURVE",
"10 -178 CURVE",
"10 -230 LINE"
);
}
);
width = 371;
}
);
note = parenright;
rightMetricsKey = O;
unicode = 0029;
},
{
glyphname = slash;
lastChange = "2020-08-10 18:12:01 +0000";
layers = (
{
background = {
paths = (
{
closed = 1;
nodes = (
"110 -200 LINE",
"404 700 LINE",
"278 700 LINE",
"-16 -200 LINE"
);
}
);
};
layerId = "5117E3E8-E17C-4812-BAF5-9E7064564A59";
paths = (
{
closed = 1;
nodes = (
"110 -200 LINE",
"404 700 LINE",
"278 700 LINE",
"-16 -200 LINE"
);
}
);
width = 388;
},
{
background = {
paths = (
{
closed = 1;
nodes = (
"67 -200 LINE",
"361 700 LINE",
"300 700 LINE",
"6 -200 LINE"
);
}
);
};
layerId = "CEFBB1E5-951F-4065-926E-8B9137F837F5";
paths = (
{
closed = 1;
nodes = (
"67 -200 LINE",
"361 700 LINE",
"300 700 LINE",
"6 -200 LINE"
);
}
);
width = 363;
}
);
note = slash;
unicode = 002F;
},
{
glyphname = bar;
lastChange = "2020-08-10 18:12:01 +0000";
layers = (
{
background = {
paths = (
{
closed = 1;
nodes = (
"192 -246 LINE",
"192 806 LINE",
"66 806 LINE",
"66 -246 LINE"
);
}
);
};
layerId = "5117E3E8-E17C-4812-BAF5-9E7064564A59";
paths = (
{
closed = 1;
nodes = (
"192 -246 LINE",
"192 806 LINE",
"66 806 LINE",
"66 -246 LINE"
);
}
);
width = 258;
},
{
background = {
paths = (
{
closed = 1;
nodes = (
"146 -246 LINE",
"146 806 LINE",
"86 806 LINE",
"86 -246 LINE"
);
}
);
};
layerId = "CEFBB1E5-951F-4065-926E-8B9137F837F5";
paths = (
{
closed = 1;
nodes = (
"146 -246 LINE",
"146 806 LINE",
"86 806 LINE",
"86 -246 LINE"
);
}
);
width = 232;
}
);
leftMetricsKey = I;
note = bar;
rightMetricsKey = I;
unicode = 007C;
},
{
glyphname = brokenbar;
lastChange = "2020-08-10 18:12:01 +0000";
layers = (
{
background = {
paths = (
{
closed = 1;
nodes = (
"192 366 LINE",
"192 806 LINE",
"66 806 LINE",
"66 366 LINE"
);
},
{
closed = 1;
nodes = (
"192 -246 LINE",
"192 194 LINE",
"66 194 LINE",
"66 -246 LINE"
);
}
);
};
layerId = "5117E3E8-E17C-4812-BAF5-9E7064564A59";
paths = (
{
closed = 1;
nodes = (
"192 366 LINE",
"192 806 LINE",
"66 806 LINE",
"66 366 LINE"
);
},
{
closed = 1;
nodes = (
"192 -246 LINE",
"192 194 LINE",
"66 194 LINE",
"66 -246 LINE"
);
}
);
width = 258;
},
{
background = {
paths = (
{
closed = 1;
nodes = (
"146 366 LINE",
"146 806 LINE",
"86 806 LINE",
"86 366 LINE"
);
},
{
closed = 1;
nodes = (
"146 -246 LINE",
"146 194 LINE",
"86 194 LINE",
"86 -246 LINE"
);
}
);
};
layerId = "CEFBB1E5-951F-4065-926E-8B9137F837F5";
paths = (
{
closed = 1;
nodes = (
"146 366 LINE",
"146 806 LINE",
"86 806 LINE",
"86 366 LINE"
);
},
{
closed = 1;
nodes = (
"146 -246 LINE",
"146 194 LINE",
"86 194 LINE",
"86 -246 LINE"
);
}
);
width = 232;
}
);
leftMetricsKey = I;
note = brokenbar;
rightMetricsKey = I;
unicode = 00A6;
},
{
glyphname = backslash;
lastChange = "2020-08-10 18:12:01 +0000";
layers = (
{
background = {
paths = (
{
closed = 1;
nodes = (
"404 -200 LINE",
"110 700 LINE",
"-16 700 LINE",
"278 -200 LINE"
);
}
);
};
layerId = "5117E3E8-E17C-4812-BAF5-9E7064564A59";
paths = (
{
closed = 1;
nodes = (
"404 -200 LINE",
"110 700 LINE",
"-16 700 LINE",
"278 -200 LINE"
);
}
);
width = 388;
},
{
background = {
paths = (
{
closed = 1;
nodes = (
"357 -200 LINE",
"63 700 LINE",
"2 700 LINE",
"296 -200 LINE"
);
}
);
};
layerId = "CEFBB1E5-951F-4065-926E-8B9137F837F5";
paths = (
{
closed = 1;
nodes = (
"357 -200 LINE",
"63 700 LINE",
"2 700 LINE",
"296 -200 LINE"
);
}
);
width = 363;
}
);
note = backslash;
unicode = 005C;
},
{
glyphname = period;
lastChange = "2020-08-10 18:12:01 +0000";
layers = (
{
background = {
paths = (
{
closed = 1;
nodes = (
"203 -14 OFFCURVE",
"244 25 OFFCURVE",
"244 81 CURVE SMOOTH",
"244 137 OFFCURVE",
"203 176 OFFCURVE",
"149 176 CURVE SMOOTH",
"95 176 OFFCURVE",
"54 137 OFFCURVE",
"54 81 CURVE SMOOTH",
"54 25 OFFCURVE",
"95 -14 OFFCURVE",
"149 -14 CURVE SMOOTH"
);
}
);
};
layerId = "5117E3E8-E17C-4812-BAF5-9E7064564A59";
paths = (
{
closed = 1;
nodes = (
"203 -14 OFFCURVE",
"244 25 OFFCURVE",
"244 81 CURVE SMOOTH",
"244 137 OFFCURVE",
"203 176 OFFCURVE",
"149 176 CURVE SMOOTH",
"95 176 OFFCURVE",
"54 137 OFFCURVE",
"54 81 CURVE SMOOTH",
"54 25 OFFCURVE",
"95 -14 OFFCURVE",
"149 -14 CURVE SMOOTH"
);
}
);
width = 298;
},
{
background = {
paths = (
{
closed = 1;
nodes = (
"150 -14 OFFCURVE",
"174 10 OFFCURVE",
"174 43 CURVE SMOOTH",
"174 76 OFFCURVE",
"150 100 OFFCURVE",
"117 100 CURVE SMOOTH",
"84 100 OFFCURVE",
"60 76 OFFCURVE",
"60 43 CURVE SMOOTH",
"60 10 OFFCURVE",
"84 -14 OFFCURVE",
"117 -14 CURVE SMOOTH"
);
}
);
};
layerId = "CEFBB1E5-951F-4065-926E-8B9137F837F5";
paths = (
{
closed = 1;
nodes = (
"150 -14 OFFCURVE",
"174 10 OFFCURVE",
"174 43 CURVE SMOOTH",
"174 76 OFFCURVE",
"150 100 OFFCURVE",
"117 100 CURVE SMOOTH",
"84 100 OFFCURVE",
"60 76 OFFCURVE",
"60 43 CURVE SMOOTH",
"60 10 OFFCURVE",
"84 -14 OFFCURVE",
"117 -14 CURVE SMOOTH"
);
}
);
width = 234;
}
);
leftKerningGroup = period;
note = period;
rightKerningGroup = period;
unicode = 002E;
},
{
glyphname = comma;
lastChange = "2020-09-27 11:00:10 +0000";
layers = (
{
background = {
paths = (
{
closed = 1;
nodes = (
"128 -147 LINE SMOOTH",
"202 -147 OFFCURVE",
"240 -109 OFFCURVE",
"240 -35 CURVE SMOOTH",
"240 80 LINE SMOOTH",
"240 137 OFFCURVE",
"201 174 OFFCURVE",
"147 174 CURVE SMOOTH",
"93 174 OFFCURVE",
"54 137 OFFCURVE",
"54 84 CURVE SMOOTH",
"54 35 OFFCURVE",
"93 -1 OFFCURVE",
"147 -1 CURVE SMOOTH",
"164 -1 LINE",
"164 -33 LINE SMOOTH",
"164 -65 OFFCURVE",
"150 -79 OFFCURVE",
"118 -79 CURVE SMOOTH",
"79 -79 LINE",
"79 -147 LINE"
);
}
);
};
layerId = "5117E3E8-E17C-4812-BAF5-9E7064564A59";
paths = (
{
closed = 1;
nodes = (
"128 -147 LINE SMOOTH",
"202 -147 OFFCURVE",
"240 -109 OFFCURVE",
"240 -35 CURVE SMOOTH",
"240 80 LINE SMOOTH",
"240 137 OFFCURVE",
"201 174 OFFCURVE",
"147 174 CURVE SMOOTH",
"93 174 OFFCURVE",
"54 137 OFFCURVE",
"54 84 CURVE SMOOTH",
"54 35 OFFCURVE",
"93 -1 OFFCURVE",
"147 -1 CURVE SMOOTH",
"164 -1 LINE",
"164 -33 LINE SMOOTH",
"164 -65 OFFCURVE",
"150 -79 OFFCURVE",
"118 -79 CURVE SMOOTH",
"79 -79 LINE",
"79 -147 LINE"
);
}
);
width = 294;
},
{
background = {
paths = (
{
closed = 1;
nodes = (
"99 -116 LINE SMOOTH",
"150 -116 OFFCURVE",
"174 -92 OFFCURVE",
"174 -40 CURVE SMOOTH",
"174 43 LINE SMOOTH",
"174 75 OFFCURVE",
"149 100 OFFCURVE",
"117 100 CURVE SMOOTH",
"85 100 OFFCURVE",
"60 77 OFFCURVE",
"60 45 CURVE SMOOTH",
"60 13 OFFCURVE",
"85 -10 OFFCURVE",
"117 -10 CURVE SMOOTH",
"130 -10 LINE",
"130 -42 LINE SMOOTH",
"130 -64 OFFCURVE",
"120 -74 OFFCURVE",
"98 -74 CURVE SMOOTH",
"74 -74 LINE",
"74 -116 LINE"
);
}
);
};
layerId = "CEFBB1E5-951F-4065-926E-8B9137F837F5";
paths = (
{
closed = 1;
nodes = (
"99 -116 LINE SMOOTH",
"150 -116 OFFCURVE",
"174 -92 OFFCURVE",
"174 -40 CURVE SMOOTH",
"174 43 LINE SMOOTH",
"174 75 OFFCURVE",
"149 100 OFFCURVE",
"117 100 CURVE SMOOTH",
"85 100 OFFCURVE",
"60 77 OFFCURVE",
"60 45 CURVE SMOOTH",
"60 13 OFFCURVE",
"85 -10 OFFCURVE",
"117 -10 CURVE SMOOTH",
"130 -10 LINE",
"130 -42 LINE SMOOTH",
"130 -64 OFFCURVE",
"120 -74 OFFCURVE",
"98 -74 CURVE SMOOTH",
"74 -74 LINE",
"74 -116 LINE"
);
}
);
width = 234;
}
);
leftKerningGroup = period;
leftMetricsKey = period;
note = comma;
rightKerningGroup = period;
rightMetricsKey = period;
unicode = 002C;
},
{
glyphname = exclam;
lastChange = "2020-08-10 18:12:01 +0000";
layers = (
{
background = {
components = (
{
name = period;
}
);
paths = (
{
closed = 1;
nodes = (
"213 230 LINE",
"213 700 LINE",
"85 700 LINE",
"85 230 LINE"
);
}
);
};
components = (
{
name = period;
}
);
layerId = "5117E3E8-E17C-4812-BAF5-9E7064564A59";
paths = (
{
closed = 1;
nodes = (
"213 230 LINE",
"213 700 LINE",
"85 700 LINE",
"85 230 LINE"
);
}
);
width = 298;
},
{
background = {
components = (
{
alignment = -1;
name = period;
}
);
paths = (
{
closed = 1;
nodes = (
"148 170 LINE",
"148 700 LINE",
"86 700 LINE",
"86 170 LINE"
);
}
);
};
components = (
{
alignment = -1;
name = period;
}
);
layerId = "CEFBB1E5-951F-4065-926E-8B9137F837F5";
paths = (
{
closed = 1;
nodes = (
"148 170 LINE",
"148 700 LINE",
"86 700 LINE",
"86 170 LINE"
);
}
);
width = 234;
}
);
leftMetricsKey = period;
note = exclam;
rightMetricsKey = period;
unicode = 0021;
},
{
glyphname = exclamdown;
lastChange = "2020-08-10 18:12:01 +0000";
layers = (
{
background = {
components = (
{
name = period;
transform = "{-1, 0, 0, -1, 298, 496}";
}
);
paths = (
{
closed = 1;
nodes = (
"213 -200 LINE",
"213 266 LINE",
"85 266 LINE",
"85 -200 LINE"
);
}
);
};
components = (
{
name = period;
transform = "{-1, 0, 0, -1, 298, 496}";
}
);
layerId = "5117E3E8-E17C-4812-BAF5-9E7064564A59";
paths = (
{
closed = 1;
nodes = (
"213 -200 LINE",
"213 266 LINE",
"85 266 LINE",
"85 -200 LINE"
);
}
);
width = 298;
},
{
background = {
components = (
{
alignment = -1;
name = period;
transform = "{-1, 0, 0, -1, 234, 486}";
}
);
paths = (
{
closed = 1;
nodes = (
"148 -200 LINE",
"148 316 LINE",
"86 316 LINE",
"86 -200 LINE"
);
}
);
};
components = (
{
alignment = -1;
name = period;
transform = "{-1, 0, 0, -1, 234, 486}";
}
);
layerId = "CEFBB1E5-951F-4065-926E-8B9137F837F5";
paths = (
{
closed = 1;
nodes = (
"148 -200 LINE",
"148 316 LINE",
"86 316 LINE",
"86 -200 LINE"
);
}
);
width = 234;
}
);
leftMetricsKey = period;
note = exclamdown;
rightMetricsKey = period;
unicode = 00A1;
},
{
glyphname = question;
lastChange = "2020-08-10 18:12:01 +0000";
layers = (
{
background = {
components = (
{
name = period;
transform = "{1, 0, 0, 1, 130, 0}";
}
);
paths = (
{
closed = 1;
nodes = (
"341 230 LINE",
"341 248 LINE SMOOTH",
"341 277 OFFCURVE",
"349 290 OFFCURVE",
"373 301 CURVE SMOOTH",
"390 309 LINE SMOOTH",
"460 342 OFFCURVE",
"536 390 OFFCURVE",
"536 510 CURVE SMOOTH",
"536 630 OFFCURVE",
"432 714 OFFCURVE",
"290 714 CURVE SMOOTH",
"146 714 OFFCURVE",
"34 630 OFFCURVE",
"34 492 CURVE SMOOTH",
"34 472 LINE",
"164 472 LINE",
"164 494 LINE SMOOTH",
"164 566 OFFCURVE",
"218 602 OFFCURVE",
"290 602 CURVE SMOOTH",
"360 602 OFFCURVE",
"406 568 OFFCURVE",
"406 510 CURVE SMOOTH",
"406 456 OFFCURVE",
"373 429 OFFCURVE",
"313 401 CURVE SMOOTH",
"296 393 LINE SMOOTH",
"234 364 OFFCURVE",
"209 322 OFFCURVE",
"209 254 CURVE SMOOTH",
"209 230 LINE"
);
}
);
};
components = (
{
name = period;
transform = "{1, 0, 0, 1, 130, 0}";
}
);
layerId = "5117E3E8-E17C-4812-BAF5-9E7064564A59";
paths = (
{
closed = 1;
nodes = (
"341 230 LINE",
"341 248 LINE SMOOTH",
"341 277 OFFCURVE",
"349 290 OFFCURVE",
"373 301 CURVE SMOOTH",
"390 309 LINE SMOOTH",
"460 342 OFFCURVE",
"536 390 OFFCURVE",
"536 510 CURVE SMOOTH",
"536 630 OFFCURVE",
"432 714 OFFCURVE",
"290 714 CURVE SMOOTH",
"146 714 OFFCURVE",
"34 630 OFFCURVE",
"34 492 CURVE SMOOTH",
"34 472 LINE",
"164 472 LINE",
"164 494 LINE SMOOTH",
"164 566 OFFCURVE",
"218 602 OFFCURVE",
"290 602 CURVE SMOOTH",
"360 602 OFFCURVE",
"406 568 OFFCURVE",
"406 510 CURVE SMOOTH",
"406 456 OFFCURVE",
"373 429 OFFCURVE",
"313 401 CURVE SMOOTH",
"296 393 LINE SMOOTH",
"234 364 OFFCURVE",
"209 322 OFFCURVE",
"209 254 CURVE SMOOTH",
"209 230 LINE"
);
}
);
width = 578;
},
{
background = {
components = (
{
alignment = -1;
name = period;
transform = "{1, 0, 0, 1, 163, 0}";
}
);
paths = (
{
closed = 1;
nodes = (
"311 170 LINE",
"311 246 LINE SMOOTH",
"311 280 OFFCURVE",
"321 295 OFFCURVE",
"347 306 CURVE SMOOTH",
"379 320 LINE SMOOTH",
"464 355 OFFCURVE",
"533 408 OFFCURVE",
"533 518 CURVE SMOOTH",
"533 631 OFFCURVE",
"436 714 OFFCURVE",
"294 714 CURVE SMOOTH",
"150 714 OFFCURVE",
"46 640 OFFCURVE",
"46 505 CURVE SMOOTH",
"46 463 LINE",
"108 463 LINE",
"108 504 LINE SMOOTH",
"108 609 OFFCURVE",
"196 660 OFFCURVE",
"294 660 CURVE SMOOTH",
"391 660 OFFCURVE",
"471 609 OFFCURVE",
"471 518 CURVE SMOOTH",
"471 436 OFFCURVE",
"426 398 OFFCURVE",
"354 369 CURVE SMOOTH",
"322 355 LINE SMOOTH",
"265 331 OFFCURVE",
"249 304 OFFCURVE",
"249 245 CURVE SMOOTH",
"249 170 LINE"
);
}
);
};
components = (
{
alignment = -1;
name = period;
transform = "{1, 0, 0, 1, 163, 0}";
}
);
layerId = "CEFBB1E5-951F-4065-926E-8B9137F837F5";
paths = (
{
closed = 1;
nodes = (
"311 170 LINE",
"311 246 LINE SMOOTH",
"311 280 OFFCURVE",
"321 295 OFFCURVE",
"347 306 CURVE SMOOTH",
"379 320 LINE SMOOTH",
"464 355 OFFCURVE",
"533 408 OFFCURVE",
"533 518 CURVE SMOOTH",
"533 631 OFFCURVE",
"436 714 OFFCURVE",
"294 714 CURVE SMOOTH",
"150 714 OFFCURVE",
"46 640 OFFCURVE",
"46 505 CURVE SMOOTH",
"46 463 LINE",
"108 463 LINE",
"108 504 LINE SMOOTH",
"108 609 OFFCURVE",
"196 660 OFFCURVE",
"294 660 CURVE SMOOTH",
"391 660 OFFCURVE",
"471 609 OFFCURVE",
"471 518 CURVE SMOOTH",
"471 436 OFFCURVE",
"426 398 OFFCURVE",
"354 369 CURVE SMOOTH",
"322 355 LINE SMOOTH",
"265 331 OFFCURVE",
"249 304 OFFCURVE",
"249 245 CURVE SMOOTH",
"249 170 LINE"
);
}
);
width = 581;
}
);
note = question;
unicode = 003F;
},
{
glyphname = questiondown;
lastChange = "2020-08-10 18:12:01 +0000";
layers = (
{
background = {
components = (
{
name = period;
transform = "{-1, 0, 0, -1, 448, 496}";
}
);
paths = (
{
closed = 1;
nodes = (
"432 -214 OFFCURVE",
"544 -130 OFFCURVE",
"544 8 CURVE SMOOTH",
"544 28 LINE",
"414 28 LINE",
"414 6 LINE SMOOTH",
"414 -66 OFFCURVE",
"360 -102 OFFCURVE",
"288 -102 CURVE SMOOTH",
"218 -102 OFFCURVE",
"172 -68 OFFCURVE",
"172 -10 CURVE SMOOTH",
"172 44 OFFCURVE",
"205 71 OFFCURVE",
"265 99 CURVE SMOOTH",
"282 107 LINE SMOOTH",
"344 136 OFFCURVE",
"369 178 OFFCURVE",
"369 246 CURVE SMOOTH",
"369 266 LINE",
"237 266 LINE",
"237 252 LINE SMOOTH",
"237 223 OFFCURVE",
"229 210 OFFCURVE",
"205 199 CURVE SMOOTH",
"188 191 LINE SMOOTH",
"118 158 OFFCURVE",
"42 110 OFFCURVE",
"42 -10 CURVE SMOOTH",
"42 -130 OFFCURVE",
"146 -214 OFFCURVE",
"288 -214 CURVE SMOOTH"
);
}
);
};
components = (
{
name = period;
transform = "{-1, 0, 0, -1, 448, 496}";
}
);
layerId = "5117E3E8-E17C-4812-BAF5-9E7064564A59";
paths = (
{
closed = 1;
nodes = (
"432 -214 OFFCURVE",
"544 -130 OFFCURVE",
"544 8 CURVE SMOOTH",
"544 28 LINE",
"414 28 LINE",
"414 6 LINE SMOOTH",
"414 -66 OFFCURVE",
"360 -102 OFFCURVE",
"288 -102 CURVE SMOOTH",
"218 -102 OFFCURVE",
"172 -68 OFFCURVE",
"172 -10 CURVE SMOOTH",
"172 44 OFFCURVE",
"205 71 OFFCURVE",
"265 99 CURVE SMOOTH",
"282 107 LINE SMOOTH",
"344 136 OFFCURVE",
"369 178 OFFCURVE",
"369 246 CURVE SMOOTH",
"369 266 LINE",
"237 266 LINE",
"237 252 LINE SMOOTH",
"237 223 OFFCURVE",
"229 210 OFFCURVE",
"205 199 CURVE SMOOTH",
"188 191 LINE SMOOTH",
"118 158 OFFCURVE",
"42 110 OFFCURVE",
"42 -10 CURVE SMOOTH",
"42 -130 OFFCURVE",
"146 -214 OFFCURVE",
"288 -214 CURVE SMOOTH"
);
}
);
width = 578;
},
{
background = {
components = (
{
alignment = -1;
name = period;
transform = "{-1, 0, 0, -1, 417, 486}";
}
);
paths = (
{
closed = 1;
nodes = (
"431 -216 OFFCURVE",
"535 -142 OFFCURVE",
"535 -7 CURVE SMOOTH",
"535 35 LINE",
"473 35 LINE",
"473 -6 LINE SMOOTH",
"473 -111 OFFCURVE",
"385 -162 OFFCURVE",
"287 -162 CURVE SMOOTH",
"190 -162 OFFCURVE",
"110 -111 OFFCURVE",
"110 -20 CURVE SMOOTH",
"110 62 OFFCURVE",
"156 98 OFFCURVE",
"227 129 CURVE SMOOTH",
"259 143 LINE SMOOTH",
"316 168 OFFCURVE",
"332 194 OFFCURVE",
"332 253 CURVE SMOOTH",
"332 316 LINE",
"270 316 LINE",
"270 252 LINE SMOOTH",
"270 218 OFFCURVE",
"260 203 OFFCURVE",
"234 192 CURVE SMOOTH",
"202 178 LINE SMOOTH",
"118 141 OFFCURVE",
"48 90 OFFCURVE",
"48 -20 CURVE SMOOTH",
"48 -133 OFFCURVE",
"145 -216 OFFCURVE",
"287 -216 CURVE SMOOTH"
);
}
);
};
components = (
{
alignment = -1;
name = period;
transform = "{-1, 0, 0, -1, 417, 486}";
}
);
layerId = "CEFBB1E5-951F-4065-926E-8B9137F837F5";
paths = (
{
closed = 1;
nodes = (
"431 -216 OFFCURVE",
"535 -142 OFFCURVE",
"535 -7 CURVE SMOOTH",
"535 35 LINE",
"473 35 LINE",
"473 -6 LINE SMOOTH",
"473 -111 OFFCURVE",
"385 -162 OFFCURVE",
"287 -162 CURVE SMOOTH",
"190 -162 OFFCURVE",
"110 -111 OFFCURVE",
"110 -20 CURVE SMOOTH",
"110 62 OFFCURVE",
"156 98 OFFCURVE",
"227 129 CURVE SMOOTH",
"259 143 LINE SMOOTH",
"316 168 OFFCURVE",
"332 194 OFFCURVE",
"332 253 CURVE SMOOTH",
"332 316 LINE",
"270 316 LINE",
"270 252 LINE SMOOTH",
"270 218 OFFCURVE",
"260 203 OFFCURVE",
"234 192 CURVE SMOOTH",
"202 178 LINE SMOOTH",
"118 141 OFFCURVE",
"48 90 OFFCURVE",
"48 -20 CURVE SMOOTH",
"48 -133 OFFCURVE",
"145 -216 OFFCURVE",
"287 -216 CURVE SMOOTH"
);
}
);
width = 581;
}
);
unicode = 00BF;
},
{
glyphname = guilsinglleft;
lastChange = "2020-08-10 18:12:01 +0000";
layers = (
{
background = {
paths = (
{
closed = 1;
nodes = (
"412 6 LINE",
"412 141 LINE",
"178 239 LINE",
"178 257 LINE",
"412 355 LINE",
"412 490 LINE",
"406 490 LINE",
"52 320 LINE",
"52 176 LINE",
"406 6 LINE"
);
}
);
};
layerId = "5117E3E8-E17C-4812-BAF5-9E7064564A59";
paths = (
{
closed = 1;
nodes = (
"412 6 LINE",
"412 141 LINE",
"178 239 LINE",
"178 257 LINE",
"412 355 LINE",
"412 490 LINE",
"406 490 LINE",
"52 320 LINE",
"52 176 LINE",
"406 6 LINE"
);
}
);
width = 480;
},
{
background = {
paths = (
{
closed = 1;
nodes = (
"384 28 LINE",
"384 91 LINE",
"110 242 LINE",
"110 252 LINE",
"384 403 LINE",
"384 466 LINE",
"378 466 LINE",
"52 284 LINE",
"52 210 LINE",
"378 28 LINE"
);
}
);
};
layerId = "CEFBB1E5-951F-4065-926E-8B9137F837F5";
paths = (
{
closed = 1;
nodes = (
"384 28 LINE",
"384 91 LINE",
"110 242 LINE",
"110 252 LINE",
"384 403 LINE",
"384 466 LINE",
"378 466 LINE",
"52 284 LINE",
"52 210 LINE",
"378 28 LINE"
);
}
);
width = 454;
}
);
note = guilsinglleft;
unicode = 2039;
},
{
glyphname = guilsinglright;
lastChange = "2020-08-10 18:12:01 +0000";
layers = (
{
background = {
paths = (
{
closed = 1;
nodes = (
"74 6 LINE",
"428 176 LINE",
"428 320 LINE",
"74 490 LINE",
"68 490 LINE",
"68 355 LINE",
"302 257 LINE",
"302 239 LINE",
"68 141 LINE",
"68 6 LINE"
);
}
);
};
layerId = "5117E3E8-E17C-4812-BAF5-9E7064564A59";
paths = (
{
closed = 1;
nodes = (
"74 6 LINE",
"428 176 LINE",
"428 320 LINE",
"74 490 LINE",
"68 490 LINE",
"68 355 LINE",
"302 257 LINE",
"302 239 LINE",
"68 141 LINE",
"68 6 LINE"
);
}
);
width = 480;
},
{
background = {
paths = (
{
closed = 1;
nodes = (
"76 28 LINE",
"402 210 LINE",
"402 284 LINE",
"76 466 LINE",
"70 466 LINE",
"70 403 LINE",
"344 252 LINE",
"344 242 LINE",
"70 91 LINE",
"70 28 LINE"
);
}
);
};
layerId = "CEFBB1E5-951F-4065-926E-8B9137F837F5";
paths = (
{
closed = 1;
nodes = (
"76 28 LINE",
"402 210 LINE",
"402 284 LINE",
"76 466 LINE",
"70 466 LINE",
"70 403 LINE",
"344 252 LINE",
"344 242 LINE",
"70 91 LINE",
"70 28 LINE"
);
}
);
width = 454;
}
);
note = guilsinglright;
unicode = 203A;
},
{
glyphname = hyphen;
lastChange = "2020-08-11 15:41:36 +0000";
layers = (
{
background = {
paths = (
{
closed = 1;
nodes = (
"364 198 LINE",
"364 312 LINE",
"68 312 LINE",
"68 198 LINE"
);
}
);
};
layerId = "5117E3E8-E17C-4812-BAF5-9E7064564A59";
paths = (
{
closed = 1;
nodes = (
"364 198 LINE",
"364 312 LINE",
"68 312 LINE",
"68 198 LINE"
);
}
);
width = 432;
},
{
background = {
paths = (
{
closed = 1;
nodes = (
"380 230 LINE",
"380 286 LINE",
"84 286 LINE",
"84 230 LINE"
);
}
);
};
layerId = "CEFBB1E5-951F-4065-926E-8B9137F837F5";
paths = (
{
closed = 1;
nodes = (
"380 230 LINE",
"380 286 LINE",
"84 286 LINE",
"84 230 LINE"
);
}
);
width = 464;
}
);
leftKerningGroup = hyphen;
note = hyphen;
rightKerningGroup = hyphen;
unicode = 002D;
},
{
glyphname = endash;
lastChange = "2020-08-10 18:12:01 +0000";
layers = (
{
background = {
paths = (
{
closed = 1;
nodes = (
"516 198 LINE",
"516 312 LINE",
"68 312 LINE",
"68 198 LINE"
);
}
);
};
layerId = "5117E3E8-E17C-4812-BAF5-9E7064564A59";
paths = (
{
closed = 1;
nodes = (
"516 198 LINE",
"516 312 LINE",
"68 312 LINE",
"68 198 LINE"
);
}
);
width = 584;
},
{
background = {
paths = (
{
closed = 1;
nodes = (
"532 230 LINE",
"532 286 LINE",
"84 286 LINE",
"84 230 LINE"
);
}
);
};
layerId = "CEFBB1E5-951F-4065-926E-8B9137F837F5";
paths = (
{
closed = 1;
nodes = (
"532 230 LINE",
"532 286 LINE",
"84 286 LINE",
"84 230 LINE"
);
}
);
width = 616;
}
);
leftKerningGroup = hyphen;
leftMetricsKey = hyphen;
note = endash;
rightKerningGroup = hyphen;
rightMetricsKey = hyphen;
unicode = 2013;
},
{
glyphname = emdash;
lastChange = "2020-08-10 18:12:01 +0000";
layers = (
{
background = {
paths = (
{
closed = 1;
nodes = (
"820 198 LINE",
"820 312 LINE",
"68 312 LINE",
"68 198 LINE"
);
}
);
};
layerId = "5117E3E8-E17C-4812-BAF5-9E7064564A59";
paths = (
{
closed = 1;
nodes = (
"820 198 LINE",
"820 312 LINE",
"68 312 LINE",
"68 198 LINE"
);
}
);
width = 888;
},
{
background = {
paths = (
{
closed = 1;
nodes = (
"836 230 LINE",
"836 286 LINE",
"84 286 LINE",
"84 230 LINE"
);
}
);
};
layerId = "CEFBB1E5-951F-4065-926E-8B9137F837F5";
paths = (
{
closed = 1;
nodes = (
"836 230 LINE",
"836 286 LINE",
"84 286 LINE",
"84 230 LINE"
);
}
);
width = 920;
}
);
leftKerningGroup = hyphen;
leftMetricsKey = hyphen;
note = emdash;
rightKerningGroup = hyphen;
rightMetricsKey = hyphen;
unicode = 2014;
},
{
glyphname = bullet;
lastChange = "2020-08-10 18:12:01 +0000";
layers = (
{
background = {
paths = (
{
closed = 1;
nodes = (
"278 111 OFFCURVE",
"344 170 OFFCURVE",
"344 255 CURVE SMOOTH",
"344 338 OFFCURVE",
"283 399 OFFCURVE",
"200 399 CURVE SMOOTH",
"117 399 OFFCURVE",
"56 336 OFFCURVE",
"56 255 CURVE SMOOTH",
"56 174 OFFCURVE",
"120 111 OFFCURVE",
"200 111 CURVE SMOOTH"
);
}
);
};
layerId = "5117E3E8-E17C-4812-BAF5-9E7064564A59";
paths = (
{
closed = 1;
nodes = (
"278 111 OFFCURVE",
"344 170 OFFCURVE",
"344 255 CURVE SMOOTH",
"344 338 OFFCURVE",
"283 399 OFFCURVE",
"200 399 CURVE SMOOTH",
"117 399 OFFCURVE",
"56 336 OFFCURVE",
"56 255 CURVE SMOOTH",
"56 174 OFFCURVE",
"120 111 OFFCURVE",
"200 111 CURVE SMOOTH"
);
}
);
width = 400;
},
{
background = {
paths = (
{
closed = 1;
nodes = (
"234 150 OFFCURVE",
"282 196 OFFCURVE",
"282 258 CURVE SMOOTH",
"282 320 OFFCURVE",
"234 366 OFFCURVE",
"172 366 CURVE SMOOTH",
"110 366 OFFCURVE",
"62 320 OFFCURVE",
"62 258 CURVE SMOOTH",
"62 196 OFFCURVE",
"110 150 OFFCURVE",
"172 150 CURVE SMOOTH"
);
}
);
};
layerId = "CEFBB1E5-951F-4065-926E-8B9137F837F5";
paths = (
{
closed = 1;
nodes = (
"234 150 OFFCURVE",
"282 196 OFFCURVE",
"282 258 CURVE SMOOTH",
"282 320 OFFCURVE",
"234 366 OFFCURVE",
"172 366 CURVE SMOOTH",
"110 366 OFFCURVE",
"62 320 OFFCURVE",
"62 258 CURVE SMOOTH",
"62 196 OFFCURVE",
"110 150 OFFCURVE",
"172 150 CURVE SMOOTH"
);
}
);
width = 344;
}
);
note = bullet;
unicode = 2022;
},
{
glyphname = underscore;
lastChange = "2020-08-10 18:12:01 +0000";
layers = (
{
background = {
paths = (
{
closed = 1;
nodes = (
"555 -162 LINE",
"555 -48 LINE",
"65 -48 LINE",
"65 -162 LINE"
);
}
);
};
layerId = "5117E3E8-E17C-4812-BAF5-9E7064564A59";
paths = (
{
closed = 1;
nodes = (
"555 -162 LINE",
"555 -48 LINE",
"65 -48 LINE",
"65 -162 LINE"
);
}
);
width = 620;
},
{
background = {
paths = (
{
closed = 1;
nodes = (
"538 -106 LINE",
"538 -50 LINE",
"82 -50 LINE",
"82 -106 LINE"
);
}
);
};
layerId = "CEFBB1E5-951F-4065-926E-8B9137F837F5";
paths = (
{
closed = 1;
nodes = (
"538 -106 LINE",
"538 -50 LINE",
"82 -50 LINE",
"82 -106 LINE"
);
}
);
width = 620;
}
);
note = underscore;
unicode = 005F;
},
